{
.appVersion = "1225";
classes = (
{
code = "virama-sidd\012a-sidd\012aa-sidd\012i-sidd\012ii-sidd\012u-sidd\012uu-sidd\012iAlt-sidd\012iAlt2-sidd\012iiAlt-sidd\012uAlt-sidd\012rVocalic-sidd\012rrVocalic-sidd\012lVocalic-sidd\012llVocalic-sidd\012e-sidd\012ai-sidd\012o-sidd\012au-sidd\012ka-sidd\012kha-sidd\012ga-sidd\012gha-sidd\012nga-sidd\012ca-sidd\012cha-sidd\012ja-sidd\012jha-sidd\012nya-sidd\012tta-sidd\012ttha-sidd\012dda-sidd\012ddha-sidd\012nna-sidd\012ta-sidd\012tha-sidd\012da-sidd\012dha-sidd\012na-sidd\012pa-sidd\012pha-sidd\012ba-sidd\012bha-sidd\012ma-sidd\012ya-sidd\012ra-sidd\012la-sidd\012va-sidd\012sha-sidd\012ssa-sidd\012sa-sidd\012ha-sidd\012a-sidd.ini\012aa-sidd.ini\012ka-sidd.ini\012gha-sidd.ini\012cha-sidd.ini\012ta-sidd.ini\012da-sidd.ini\012pa-sidd.ini\012pha-sidd.ini\012ba-sidd.ini\012ma-sidd.ini\012ra-sidd.ini\012va-sidd.ini\012ssa-sidd.ini\012sa-sidd.ini\012ha-sidd.ini\012k-sidd\012gh-sidd\012ch-sidd\012d-sidd\012p-sidd\012ph-sidd\012b-sidd\012m-sidd\012r-sidd\012v-sidd\012ss-sidd\012s-sidd\012h-sidd\012k-sidd.med\012gh-sidd.med\012ch-sidd.med\012d-sidd.med\012p-sidd.med\012ph-sidd.med\012b-sidd.med\012m-sidd.med\012v-sidd.med\012ss-sidd.med\012s-sidd.med\012h-sidd.med";
name = Letters;
},
{
code = "k-sidd\012kh-sidd\012g-sidd\012gh-sidd\012ng-sidd\012c-sidd\012ch-sidd\012j-sidd\012jh-sidd\012ny-sidd\012tt-sidd\012tth-sidd\012dd-sidd\012ddh-sidd\012nn-sidd\012t-sidd\012th-sidd\012d-sidd\012dh-sidd\012n-sidd\012p-sidd\012ph-sidd\012b-sidd\012bh-sidd\012m-sidd\012y-sidd\012r-sidd\012l-sidd\012v-sidd\012sh-sidd\012ss-sidd\012s-sidd\012h-sidd";
name = LettersNonInit;
},
{

glyphs = (
{
glyphname = .notdef;
lastChange = "2019-04-05 14:14:01 +0000";
layers = (
{
layerId = "56FF8C95-10BF-4749-91E0-C1649AF59D40";
paths = (
{
closed = 1;
nodes = (
"505 0 LINE",
"505 714 LINE",
"94 714 LINE",
"94 0 LINE"
);
},
{
closed = 1;
nodes = (
"145 663 LINE",
"454 663 LINE",
"454 51 LINE",
"145 51 LINE"
);
}
);
width = 600;
}
);
script = "";
category = Separator;
subCategory = Other;
},
{
glyphname = "a-sidd";
production = uni11580;
lastChange = "2019-04-05 14:14:02 +0000";
layers = (
{
anchors = (
{
name = bottom;
position = "{351, 0}";
},
{
name = top;
position = "{353, 680}";
},
{
name = topleft;
position = "{114, 680}";
}
);
layerId = "56FF8C95-10BF-4749-91E0-C1649AF59D40";
paths = (
{
closed = 1;
nodes = (
"547 12 LINE",
"687 -114 LINE",
"710 -88 LINE",
"511 91 LINE SMOOTH",
"497 103 OFFCURVE",
"485 107 OFFCURVE",
"475 107 CURVE SMOOTH",
"463 107 OFFCURVE",
"456 99 OFFCURVE",
"456 88 CURVE SMOOTH",
"456 74 OFFCURVE",
"467 53 OFFCURVE",
"496 27 CURVE SMOOTH",
"534 -7 OFFCURVE",
"558 -18 OFFCURVE",
"591 -18 CURVE SMOOTH",
"628 -18 OFFCURVE",
"648 7 OFFCURVE",
"648 62 CURVE SMOOTH",
"648 525 LINE SMOOTH",
"648 568 OFFCURVE",
"655 589 OFFCURVE",
"679 616 CURVE",
"589 680 LINE",
"567 657 OFFCURVE",
"558 634 OFFCURVE",
"558 586 CURVE SMOOTH",
"558 107 LINE SMOOTH",
"558 70 OFFCURVE",
"548 62 OFFCURVE",
"523 62 CURVE"
);
},
{
closed = 1;
nodes = (
"574 258 LINE",
"488 350 OFFCURVE",
"376 413 OFFCURVE",
"276 413 CURVE",
"254 348 LINE",
"342 316 LINE",
"422 316 OFFCURVE",
"504 284 OFFCURVE",
"562 228 CURVE"
);
},
{
closed = 1;
nodes = (
"111 610 OFFCURVE",
"141 575 OFFCURVE",
"313 467 CURVE",
"367 641 LINE",
"126 363 LINE",
"216 299 LINE",
"239 321 OFFCURVE",
"263 331 OFFCURVE",
"286 331 CURVE SMOOTH",
"322 331 OFFCURVE",
"349 303 OFFCURVE",
"349 248 CURVE SMOOTH",
"349 170 OFFCURVE",
"285 76 OFFCURVE",
"189 76 CURVE SMOOTH",
"145 76 OFFCURVE",
"123 96 OFFCURVE",
"123 137 CURVE SMOOTH",
"123 166 OFFCURVE",
"134 194 OFFCURVE",
"165 226 CURVE",
"75 290 LINE",
"44 263 OFFCURVE",
"30 232 OFFCURVE",
"30 197 CURVE SMOOTH",
"30 153 OFFCURVE",
"52 100 OFFCURVE",
"111 54 CURVE SMOOTH",
"160 15 OFFCURVE",
"202 0 OFFCURVE",
"249 0 CURVE SMOOTH",
"362 0 OFFCURVE",
"439 87 OFFCURVE",
"439 189 CURVE SMOOTH",
"439 280 OFFCURVE",
"372 340 OFFCURVE",
"271 379 CURVE",
"243 341 LINE",
"484 619 LINE",
"394 683 LINE",
"372 658 OFFCURVE",
"343 645 OFFCURVE",
"315 645 CURVE SMOOTH",
"277 645 OFFCURVE",
"253 666 OFFCURVE",
"221 666 CURVE SMOOTH",
"197 666 OFFCURVE",
"179 655 OFFCURVE",
"168 637 CURVE",
"152 643 OFFCURVE",
"136 651 OFFCURVE",
"123 659 CURVE",
"116 655 OFFCURVE",
"111 648 OFFCURVE",
"111 638 CURVE SMOOTH"
);
}
);
width = 765;
}
);
rightKerningGroup = gha;
unicode = 11580;
script = siddham;
category = Letter;
subCategory = Other;
},
{
glyphname = "aa-sidd";
production = uni11581;
lastChange = "2019-04-05 14:14:03 +0000";
layers = (
{
anchors = (
{
name = bottom;
position = "{351, 0}";
},
{
name = top;
position = "{353, 680}";
},
{
name = topleft;
position = "{114, 680}";
}
);
layerId = "56FF8C95-10BF-4749-91E0-C1649AF59D40";
paths = (
{
closed = 1;
nodes = (
"547 12 LINE",
"687 -114 LINE",
"710 -88 LINE",
"511 91 LINE SMOOTH",
"497 103 OFFCURVE",
"485 107 OFFCURVE",
"475 107 CURVE SMOOTH",
"463 107 OFFCURVE",
"456 99 OFFCURVE",
"456 88 CURVE SMOOTH",
"456 74 OFFCURVE",
"467 53 OFFCURVE",
"496 27 CURVE SMOOTH",
"534 -7 OFFCURVE",
"558 -18 OFFCURVE",
"591 -18 CURVE SMOOTH",
"628 -18 OFFCURVE",
"648 7 OFFCURVE",
"648 62 CURVE SMOOTH",
"648 525 LINE SMOOTH",
"648 568 OFFCURVE",
"655 589 OFFCURVE",
"679 616 CURVE",
"589 680 LINE",
"567 657 OFFCURVE",
"558 634 OFFCURVE",
"558 586 CURVE SMOOTH",
"558 107 LINE SMOOTH",
"558 70 OFFCURVE",
"548 62 OFFCURVE",
"523 62 CURVE"
);
},
{
closed = 1;
nodes = (
"574 258 LINE",
"488 350 OFFCURVE",
"376 413 OFFCURVE",
"276 413 CURVE",
"254 348 LINE",
"342 316 LINE",
"422 316 OFFCURVE",
"504 284 OFFCURVE",
"562 228 CURVE"
);
},
{
closed = 1;
nodes = (
"111 610 OFFCURVE",
"141 575 OFFCURVE",
"313 467 CURVE",
"367 641 LINE",
"126 363 LINE",
"216 299 LINE",
"239 321 OFFCURVE",
"263 331 OFFCURVE",
"286 331 CURVE SMOOTH",
"322 331 OFFCURVE",
"349 303 OFFCURVE",
"349 248 CURVE SMOOTH",
"349 170 OFFCURVE",
"285 76 OFFCURVE",
"189 76 CURVE SMOOTH",
"145 76 OFFCURVE",
"123 96 OFFCURVE",
"123 137 CURVE SMOOTH",
"123 166 OFFCURVE",
"134 194 OFFCURVE",
"165 226 CURVE",
"75 290 LINE",
"44 263 OFFCURVE",
"30 232 OFFCURVE",
"30 197 CURVE SMOOTH",
"30 153 OFFCURVE",
"52 100 OFFCURVE",
"111 54 CURVE SMOOTH",
"160 15 OFFCURVE",
"202 0 OFFCURVE",
"249 0 CURVE SMOOTH",
"362 0 OFFCURVE",
"439 87 OFFCURVE",
"439 189 CURVE SMOOTH",
"439 280 OFFCURVE",
"372 340 OFFCURVE",
"271 379 CURVE",
"243 341 LINE",
"484 619 LINE",
"394 683 LINE",
"372 658 OFFCURVE",
"343 645 OFFCURVE",
"315 645 CURVE SMOOTH",
"277 645 OFFCURVE",
"253 666 OFFCURVE",
"221 666 CURVE SMOOTH",
"197 666 OFFCURVE",
"179 655 OFFCURVE",
"168 637 CURVE",
"152 643 OFFCURVE",
"136 651 OFFCURVE",
"123 659 CURVE",
"116 655 OFFCURVE",
"111 648 OFFCURVE",
"111 638 CURVE SMOOTH"
);
},
{
closed = 1;
nodes = (
"841 325 LINE",
"741 401 OFFCURVE",
"706 448 OFFCURVE",
"706 500 CURVE SMOOTH",
"706 548 OFFCURVE",
"736 582 OFFCURVE",
"788 616 CURVE",
"697 680 LINE",
"641 641 OFFCURVE",
"615 606 OFFCURVE",
"615 551 CURVE SMOOTH",
"615 461 OFFCURVE",
"684 395 OFFCURVE",
"818 299 CURVE"
);
}
);
width = 861;
}
);
leftMetricsKey = "a-sidd";
rightKerningGroup = nga;
unicode = 11581;
script = siddham;
category = Letter;
subCategory = Other;
},
{
glyphname = "i-sidd";
production = uni11582;
lastChange = "2019-04-05 14:14:03 +0000";
layers = (
{
anchors = (
{
name = bottom;
position = "{412, -54}";
},
{
name = top;
position = "{412, 680}";
}
);
layerId = "56FF8C95-10BF-4749-91E0-C1649AF59D40";
paths = (
{
closed = 1;
nodes = (
"590 -54 OFFCURVE",
"662 25 OFFCURVE",
"662 123 CURVE SMOOTH",
"662 187 OFFCURVE",
"633 239 OFFCURVE",
"564 289 CURVE SMOOTH",
"506 331 OFFCURVE",
"456 353 OFFCURVE",
"401 353 CURVE SMOOTH",
"325 353 OFFCURVE",
"275 308 OFFCURVE",
"275 249 CURVE SMOOTH",
"275 197 OFFCURVE",
"313 155 OFFCURVE",
"379 115 CURVE",
"392 131 LINE",
"378 149 OFFCURVE",
"368 171 OFFCURVE",
"368 195 CURVE SMOOTH",
"368 245 OFFCURVE",
"408 284 OFFCURVE",
"459 284 CURVE SMOOTH",
"518 284 OFFCURVE",
"568 245 OFFCURVE",
"568 171 CURVE SMOOTH",
"568 97 OFFCURVE",
"513 33 OFFCURVE",
"419 33 CURVE SMOOTH",
"307 33 OFFCURVE",
"218 109 OFFCURVE",
"118 267 CURVE",
"90 251 LINE",
"193 60 OFFCURVE",
"309 -54 OFFCURVE",
"456 -54 CURVE SMOOTH"
);
},
{
closed = 1;
nodes = (
"324 364 OFFCURVE",
"379 430 OFFCURVE",
"379 499 CURVE SMOOTH",
"379 593 OFFCURVE",
"275 680 OFFCURVE",
"181 680 CURVE SMOOTH",
"99 680 OFFCURVE",
"44 614 OFFCURVE",
"44 546 CURVE SMOOTH",
"44 451 OFFCURVE",
"149 364 OFFCURVE",
"243 364 CURVE SMOOTH"
);
},
{
closed = 1;
nodes = (
"153 428 OFFCURVE",
"131 445 OFFCURVE",
"131 483 CURVE SMOOTH",
"131 544 OFFCURVE",
"189 616 OFFCURVE",
"244 616 CURVE SMOOTH",
"271 616 OFFCURVE",
"293 599 OFFCURVE",
"293 561 CURVE SMOOTH",
"293 500 OFFCURVE",
"235 428 OFFCURVE",
"180 428 CURVE SMOOTH"
);
},
{
closed = 1;
nodes = (
"724 364 OFFCURVE",
"779 430 OFFCURVE",
"779 499 CURVE SMOOTH",
"779 593 OFFCURVE",
"675 680 OFFCURVE",
"581 680 CURVE SMOOTH",
"499 680 OFFCURVE",
"444 614 OFFCURVE",
"444 546 CURVE SMOOTH",
"444 451 OFFCURVE",
"549 364 OFFCURVE",
"643 364 CURVE SMOOTH"
);
},
{
closed = 1;
nodes = (
"553 428 OFFCURVE",
"531 445 OFFCURVE",
"531 483 CURVE SMOOTH",
"531 544 OFFCURVE",
"589 616 OFFCURVE",
"644 616 CURVE SMOOTH",
"671 616 OFFCURVE",
"693 599 OFFCURVE",
"693 561 CURVE SMOOTH",
"693 500 OFFCURVE",
"635 428 OFFCURVE",
"580 428 CURVE SMOOTH"
);
}
);
width = 823;
}
);
unicode = 11582;
script = siddham;
category = Letter;
subCategory = Other;
},
{
glyphname = "ii-sidd";
production = uni11583;
lastChange = "2019-04-05 14:14:03 +0000";
layers = (
{
anchors = (
{
name = bottom;
position = "{412, -63}";
},
{
name = top;
position = "{412, 680}";
}
);
layerId = "56FF8C95-10BF-4749-91E0-C1649AF59D40";
paths = (
{
closed = 1;
nodes = (
"682 -88 LINE",
"636 -51 OFFCURVE",
"620 -19 OFFCURVE",
"620 114 CURVE SMOOTH",
"620 176 LINE SMOOTH",
"620 235 OFFCURVE",
"595 280 OFFCURVE",
"538 319 CURVE SMOOTH",
"492 351 OFFCURVE",
"448 365 OFFCURVE",
"408 365 CURVE SMOOTH",
"326 365 OFFCURVE",
"279 297 OFFCURVE",
"279 213 CURVE SMOOTH",
"279 -1 LINE",
"351 -63 LINE",
"369 -59 LINE",
"369 149 LINE SMOOTH",
"369 232 OFFCURVE",
"418 295 OFFCURVE",
"491 295 CURVE SMOOTH",
"517 295 OFFCURVE",
"530 280 OFFCURVE",
"530 250 CURVE SMOOTH",
"530 130 LINE SMOOTH",
"530 1 OFFCURVE",
"560 -43 OFFCURVE",
"659 -114 CURVE"
);
},
{
closed = 1;
nodes = (
"324 364 OFFCURVE",
"379 430 OFFCURVE",
"379 499 CURVE SMOOTH",
"379 593 OFFCURVE",
"275 680 OFFCURVE",
"181 680 CURVE SMOOTH",
"99 680 OFFCURVE",
"44 614 OFFCURVE",
"44 546 CURVE SMOOTH",
"44 451 OFFCURVE",
"149 364 OFFCURVE",
"243 364 CURVE SMOOTH"
);
},
{
closed = 1;
nodes = (
"153 428 OFFCURVE",
"131 445 OFFCURVE",
"131 483 CURVE SMOOTH",
"131 544 OFFCURVE",
"189 616 OFFCURVE",
"244 616 CURVE SMOOTH",
"271 616 OFFCURVE",
"293 599 OFFCURVE",
"293 561 CURVE SMOOTH",
"293 500 OFFCURVE",
"235 428 OFFCURVE",
"180 428 CURVE SMOOTH"
);
},
{
closed = 1;
nodes = (
"724 364 OFFCURVE",
"779 430 OFFCURVE",
"779 499 CURVE SMOOTH",
"779 593 OFFCURVE",
"675 680 OFFCURVE",
"581 680 CURVE SMOOTH",
"499 680 OFFCURVE",
"444 614 OFFCURVE",
"444 546 CURVE SMOOTH",
"444 451 OFFCURVE",
"549 364 OFFCURVE",
"643 364 CURVE SMOOTH"
);
},
{
closed = 1;
nodes = (
"553 428 OFFCURVE",
"531 445 OFFCURVE",
"531 483 CURVE SMOOTH",
"531 544 OFFCURVE",
"589 616 OFFCURVE",
"644 616 CURVE SMOOTH",
"671 616 OFFCURVE",
"693 599 OFFCURVE",
"693 561 CURVE SMOOTH",
"693 500 OFFCURVE",
"635 428 OFFCURVE",
"580 428 CURVE SMOOTH"
);
}
);
width = 823;
}
);
unicode = 11583;
script = siddham;
category = Letter;
subCategory = Other;
},
{
glyphname = "u-sidd";
production = uni11584;
lastChange = "2019-04-05 14:14:03 +0000";
layers = (
{
anchors = (
{
name = bottom;
position = "{515, 0}";
},
{
name = top;
position = "{515, 680}";
}
);
layerId = "56FF8C95-10BF-4749-91E0-C1649AF59D40";
paths = (
{
closed = 1;
nodes = (
"453 269 LINE",
"480 297 OFFCURVE",
"504 312 OFFCURVE",
"541 312 CURVE SMOOTH",
"587 312 OFFCURVE",
"626 278 OFFCURVE",
"626 216 CURVE SMOOTH",
"626 139 OFFCURVE",
"565 84 OFFCURVE",
"472 84 CURVE SMOOTH",
"382 84 OFFCURVE",
"348 99 OFFCURVE",
"294 232 CURVE SMOOTH",
"233 382 OFFCURVE",
"172 429 OFFCURVE",
"23 499 CURVE",
"10 468 LINE",
"97 418 OFFCURVE",
"132 375 OFFCURVE",
"173 281 CURVE SMOOTH",
"256 91 OFFCURVE",
"388 6 OFFCURVE",
"526 6 CURVE SMOOTH",
"644 6 OFFCURVE",
"722 75 OFFCURVE",
"722 173 CURVE SMOOTH",
"722 281 OFFCURVE",
"577 383 OFFCURVE",
"471 383 CURVE",
"512 347 LINE",
"771 620 LINE",
"681 683 LINE",
"647 658 OFFCURVE",
"602 645 OFFCURVE",
"558 645 CURVE SMOOTH",
"510 645 OFFCURVE",
"480 666 OFFCURVE",
"440 666 CURVE SMOOTH",
"416 666 OFFCURVE",
"398 655 OFFCURVE",
"387 637 CURVE",
"371 643 OFFCURVE",
"355 651 OFFCURVE",
"342 659 CURVE",
"335 655 OFFCURVE",
"330 648 OFFCURVE",
"330 638 CURVE SMOOTH",
"330 610 OFFCURVE",
"360 575 OFFCURVE",
"532 467 CURVE",
"622 605 LINE",
"363 332 LINE"
);
}
);
width = 830;
}
);
unicode = 11584;
script = siddham;
category = Letter;
subCategory = Other;
},
{
glyphname = "uu-sidd";
production = uni11585;
lastChange = "2019-04-05 14:14:03 +0000";
layers = (
{
anchors = (
{
name = bottom;
position = "{515, 0}";
},
{
name = top;
position = "{515, 680}";
}
);
layerId = "56FF8C95-10BF-4749-91E0-C1649AF59D40";
paths = (
{
closed = 1;
nodes = (
"893 195 OFFCURVE",
"812 282 OFFCURVE",
"694 282 CURVE SMOOTH",
"674 282 OFFCURVE",
"657 280 OFFCURVE",
"643 275 CURVE",
"665 232 LINE",
"674 235 OFFCURVE",
"684 236 OFFCURVE",
"698 236 CURVE SMOOTH",
"748 236 OFFCURVE",
"784 193 OFFCURVE",
"784 116 CURVE",
"893 74 LINE"
);
},
{
closed = 1;
nodes = (
"453 269 LINE",
"480 297 OFFCURVE",
"504 312 OFFCURVE",
"541 312 CURVE SMOOTH",
"587 312 OFFCURVE",
"626 278 OFFCURVE",
"626 216 CURVE SMOOTH",
"626 139 OFFCURVE",
"565 84 OFFCURVE",
"472 84 CURVE SMOOTH",
"382 84 OFFCURVE",
"348 99 OFFCURVE",
"294 232 CURVE SMOOTH",
"233 382 OFFCURVE",
"172 429 OFFCURVE",
"23 499 CURVE",
"10 468 LINE",
"97 418 OFFCURVE",
"132 375 OFFCURVE",
"173 281 CURVE SMOOTH",
"256 91 OFFCURVE",
"388 6 OFFCURVE",
"526 6 CURVE SMOOTH",
"644 6 OFFCURVE",
"722 75 OFFCURVE",
"722 173 CURVE SMOOTH",
"722 281 OFFCURVE",
"577 383 OFFCURVE",
"471 383 CURVE",
"512 347 LINE",
"771 620 LINE",
"681 683 LINE",
"647 658 OFFCURVE",
"602 645 OFFCURVE",
"558 645 CURVE SMOOTH",
"510 645 OFFCURVE",
"480 666 OFFCURVE",
"440 666 CURVE SMOOTH",
"416 666 OFFCURVE",
"398 655 OFFCURVE",
"387 637 CURVE",
"371 643 OFFCURVE",
"355 651 OFFCURVE",
"342 659 CURVE",
"335 655 OFFCURVE",
"330 648 OFFCURVE",
"330 638 CURVE SMOOTH",
"330 610 OFFCURVE",
"360 575 OFFCURVE",
"532 467 CURVE",
"622 605 LINE",
"363 332 LINE"
);
}
);
width = 913;
}
);
leftMetricsKey = "u-sidd";
unicode = 11585;
script = siddham;
category = Letter;
subCategory = Other;
},
{
glyphname = "iAlt-sidd";
production = uni115D8;
lastChange = "2019-04-05 14:14:03 +0000";
layers = (
{
anchors = (
{
name = bottom;
position = "{398, 0}";
},
{
name = top;
position = "{398, 680}";
}
);
layerId = "56FF8C95-10BF-4749-91E0-C1649AF59D40";
paths = (
{
closed = 1;
nodes = (
"310 4 OFFCURVE",
"365 70 OFFCURVE",
"365 139 CURVE SMOOTH",
"365 233 OFFCURVE",
"261 320 OFFCURVE",
"167 320 CURVE SMOOTH",
"85 320 OFFCURVE",
"30 254 OFFCURVE",
"30 186 CURVE SMOOTH",
"30 91 OFFCURVE",
"135 4 OFFCURVE",
"229 4 CURVE SMOOTH"
);
},
{
closed = 1;
nodes = (
"139 68 OFFCURVE",
"117 85 OFFCURVE",
"117 123 CURVE SMOOTH",
"117 184 OFFCURVE",
"175 256 OFFCURVE",
"230 256 CURVE SMOOTH",
"257 256 OFFCURVE",
"279 239 OFFCURVE",
"279 201 CURVE SMOOTH",
"279 140 OFFCURVE",
"221 68 OFFCURVE",
"166 68 CURVE SMOOTH"
);
},
{
closed = 1;
nodes = (
"710 4 OFFCURVE",
"765 70 OFFCURVE",
"765 139 CURVE SMOOTH",
"765 233 OFFCURVE",
"661 320 OFFCURVE",
"567 320 CURVE SMOOTH",
"485 320 OFFCURVE",
"430 254 OFFCURVE",
"430 186 CURVE SMOOTH",
"430 91 OFFCURVE",
"535 4 OFFCURVE",
"629 4 CURVE SMOOTH"
);
},
{
closed = 1;
nodes = (
"539 68 OFFCURVE",
"517 85 OFFCURVE",
"517 123 CURVE SMOOTH",
"517 184 OFFCURVE",
"575 256 OFFCURVE",
"630 256 CURVE SMOOTH",
"657 256 OFFCURVE",
"679 239 OFFCURVE",
"679 201 CURVE SMOOTH",
"679 140 OFFCURVE",
"621 68 OFFCURVE",
"566 68 CURVE SMOOTH"
);
},
{
closed = 1;
nodes = (
"490 364 OFFCURVE",
"545 430 OFFCURVE",
"545 499 CURVE SMOOTH",
"545 593 OFFCURVE",
"441 680 OFFCURVE",
"347 680 CURVE SMOOTH",
"265 680 OFFCURVE",
"210 614 OFFCURVE",
"210 546 CURVE SMOOTH",
"210 451 OFFCURVE",
"315 364 OFFCURVE",
"409 364 CURVE SMOOTH"
);
},
{
closed = 1;
nodes = (
"319 428 OFFCURVE",
"297 445 OFFCURVE",
"297 483 CURVE SMOOTH",
"297 544 OFFCURVE",
"355 616 OFFCURVE",
"410 616 CURVE SMOOTH",
"437 616 OFFCURVE",
"459 599 OFFCURVE",
"459 561 CURVE SMOOTH",
"459 500 OFFCURVE",
"401 428 OFFCURVE",
"346 428 CURVE SMOOTH"
);
}
);
width = 795;
}
);
unicode = 115D8;
script = siddham;
category = Letter;
subCategory = Other;
},
{
glyphname = "iAlt2-sidd";
production = uni115D9;
lastChange = "2019-04-05 14:14:03 +0000";
layers = (
{
anchors = (
{
name = bottom;
position = "{407, -100}";
},
{
name = top;
position = "{407, 680}";
}
);
layerId = "56FF8C95-10BF-4749-91E0-C1649AF59D40";
paths = (
{
closed = 1;
nodes = (
"578 -94 OFFCURVE",
"632 -41 OFFCURVE",
"632 27 CURVE SMOOTH",
"632 73 OFFCURVE",
"607 114 OFFCURVE",
"536 169 CURVE SMOOTH",
"488 206 OFFCURVE",
"445 223 OFFCURVE",
"401 223 CURVE SMOOTH",
"346 223 OFFCURVE",
"297 200 OFFCURVE",
"273 162 CURVE",
"363 99 LINE",
"387 133 OFFCURVE",
"417 152 OFFCURVE",
"455 152 CURVE SMOOTH",
"499 152 OFFCURVE",
"536 126 OFFCURVE",
"536 78 CURVE SMOOTH",
"536 28 OFFCURVE",
"500 -8 OFFCURVE",
"431 -8 CURVE SMOOTH",
"332 -8 OFFCURVE",
"249 56 OFFCURVE",
"138 187 CURVE",
"112 168 LINE",
"225 4 OFFCURVE",
"334 -94 OFFCURVE",
"476 -94 CURVE SMOOTH"
);
},
{
closed = 1;
nodes = (
"260 229 OFFCURVE",
"313 295 OFFCURVE",
"313 364 CURVE SMOOTH",
"313 443 OFFCURVE",
"239 505 OFFCURVE",
"161 505 CURVE SMOOTH",
"83 505 OFFCURVE",
"30 439 OFFCURVE",
"30 371 CURVE SMOOTH",
"30 291 OFFCURVE",
"105 229 OFFCURVE",
"183 229 CURVE SMOOTH"
);
},
{
closed = 1;
nodes = (
"117 286 OFFCURVE",
"102 304 OFFCURVE",
"102 331 CURVE SMOOTH",
"102 382 OFFCURVE",
"156 448 OFFCURVE",
"199 448 CURVE SMOOTH",
"226 448 OFFCURVE",
"241 430 OFFCURVE",
"241 403 CURVE SMOOTH",
"241 353 OFFCURVE",
"187 286 OFFCURVE",
"144 286 CURVE SMOOTH"
);
},
{
closed = 1;
nodes = (
"731 219 OFFCURVE",
"784 285 OFFCURVE",
"784 354 CURVE SMOOTH",
"784 433 OFFCURVE",
"710 495 OFFCURVE",
"632 495 CURVE SMOOTH",
"554 495 OFFCURVE",
"501 429 OFFCURVE",
"501 361 CURVE SMOOTH",
"501 281 OFFCURVE",
"576 219 OFFCURVE",
"654 219 CURVE SMOOTH"
);
},
{
closed = 1;
nodes = (
"588 276 OFFCURVE",
"573 294 OFFCURVE",
"573 321 CURVE SMOOTH",
"573 372 OFFCURVE",
"627 438 OFFCURVE",
"670 438 CURVE SMOOTH",
"697 438 OFFCURVE",
"712 420 OFFCURVE",
"712 393 CURVE SMOOTH",
"712 343 OFFCURVE",
"658 276 OFFCURVE",
"615 276 CURVE SMOOTH"
);
},
{
closed = 1;
nodes = (
"190 610 OFFCURVE",
"220 575 OFFCURVE",
"392 467 CURVE",
"403 610 LINE",
"374 597 OFFCURVE",
"362 574 OFFCURVE",
"362 526 CURVE SMOOTH",
"362 209 LINE",
"452 182 LINE",
"452 466 LINE SMOOTH",
"452 540 OFFCURVE",
"588 560 OFFCURVE",
"631 620 CURVE",
"541 683 LINE",
"507 658 OFFCURVE",
"462 645 OFFCURVE",
"418 645 CURVE SMOOTH",
"370 645 OFFCURVE",
"340 666 OFFCURVE",
"300 666 CURVE SMOOTH",
"276 666 OFFCURVE",
"258 655 OFFCURVE",
"247 637 CURVE",
"231 643 OFFCURVE",
"215 651 OFFCURVE",
"202 659 CURVE",
"195 655 OFFCURVE",
"190 648 OFFCURVE",
"190 638 CURVE SMOOTH"
);
}
);
width = 814;
}
);
unicode = 115D9;
script = siddham;
category = Letter;
subCategory = Other;
},
{
glyphname = "iiAlt-sidd";
production = uni115DA;
lastChange = "2019-04-05 14:14:04 +0000";
layers = (
{
anchors = (
{
name = bottom;
position = "{412, -53}";
},
{
name = top;
position = "{412, 680}";
},
{
name = topleft;
position = "{262, 680}";
}
);
layerId = "56FF8C95-10BF-4749-91E0-C1649AF59D40";
paths = (
{
closed = 1;
nodes = (
"731 209 OFFCURVE",
"784 275 OFFCURVE",
"784 344 CURVE SMOOTH",
"784 423 OFFCURVE",
"710 485 OFFCURVE",
"632 485 CURVE SMOOTH",
"554 485 OFFCURVE",
"501 419 OFFCURVE",
"501 351 CURVE SMOOTH",
"501 271 OFFCURVE",
"576 209 OFFCURVE",
"654 209 CURVE SMOOTH"
);
},
{
closed = 1;
nodes = (
"260 219 OFFCURVE",
"313 285 OFFCURVE",
"313 354 CURVE SMOOTH",
"313 433 OFFCURVE",
"239 495 OFFCURVE",
"161 495 CURVE SMOOTH",
"83 495 OFFCURVE",
"30 429 OFFCURVE",
"30 361 CURVE SMOOTH",
"30 281 OFFCURVE",
"105 219 OFFCURVE",
"183 219 CURVE SMOOTH"
);
},
{
closed = 1;
nodes = (
"117 276 OFFCURVE",
"102 294 OFFCURVE",
"102 321 CURVE SMOOTH",
"102 372 OFFCURVE",
"156 438 OFFCURVE",
"199 438 CURVE SMOOTH",
"226 438 OFFCURVE",
"241 420 OFFCURVE",
"241 393 CURVE SMOOTH",
"241 343 OFFCURVE",
"187 276 OFFCURVE",
"144 276 CURVE SMOOTH"
);
},
{
closed = 1;
nodes = (
"588 266 OFFCURVE",
"573 284 OFFCURVE",
"573 311 CURVE SMOOTH",
"573 362 OFFCURVE",
"627 428 OFFCURVE",
"670 428 CURVE SMOOTH",
"697 428 OFFCURVE",
"712 410 OFFCURVE",
"712 383 CURVE SMOOTH",
"712 333 OFFCURVE",
"658 266 OFFCURVE",
"615 266 CURVE SMOOTH"
);
},
{
closed = 1;
nodes = (
"195 615 OFFCURVE",
"225 580 OFFCURVE",
"397 472 CURVE",
"408 600 LINE",
"379 587 OFFCURVE",
"367 564 OFFCURVE",
"367 516 CURVE SMOOTH",
"367 159 LINE SMOOTH",
"367 122 OFFCURVE",
"357 114 OFFCURVE",
"332 114 CURVE",
"390 36 LINE",
"594 -103 LINE",
"613 -74 LINE",
"325 123 LINE SMOOTH",
"269 161 OFFCURVE",
"242 173 OFFCURVE",
"219 173 CURVE SMOOTH",
"203 173 OFFCURVE",
"193 164 OFFCURVE",
"193 151 CURVE SMOOTH",
"193 134 OFFCURVE",
"204 115 OFFCURVE",
"238 86 CURVE SMOOTH",
"291 42 OFFCURVE",
"331 25 OFFCURVE",
"370 25 CURVE SMOOTH",
"427 25 OFFCURVE",
"457 61 OFFCURVE",
"457 142 CURVE SMOOTH",
"457 476 LINE SMOOTH",
"457 550 OFFCURVE",
"593 560 OFFCURVE",
"636 620 CURVE",
"546 683 LINE",
"512 661 OFFCURVE",
"467 650 OFFCURVE",
"423 650 CURVE SMOOTH",
"375 650 OFFCURVE",
"345 671 OFFCURVE",
"305 671 CURVE SMOOTH",
"281 671 OFFCURVE",
"263 660 OFFCURVE",
"252 642 CURVE",
"236 648 OFFCURVE",
"220 656 OFFCURVE",
"207 664 CURVE",
"200 660 OFFCURVE",
"195 653 OFFCURVE",
"195 643 CURVE SMOOTH"
);
}
);
width = 814;
}
);
unicode = 115DA;
script = siddham;
category = Letter;
subCategory = Other;
},
{
glyphname = "uAlt-sidd";
production = uni115DB;
lastChange = "2019-04-05 14:14:04 +0000";
layers = (
{
anchors = (
{
name = bottom;
position = "{332, -9}";
},
{
name = top;
position = "{332, 680}";
}
);
layerId = "56FF8C95-10BF-4749-91E0-C1649AF59D40";
paths = (
{
closed = 1;
nodes = (
"148 615 OFFCURVE",
"178 580 OFFCURVE",
"350 472 CURVE",
"352 641 LINE",
"301 612 OFFCURVE",
"287 591 OFFCURVE",
"287 559 CURVE SMOOTH",
"287 385 LINE",
"341 422 LINE",
"302 433 OFFCURVE",
"265 439 OFFCURVE",
"225 439 CURVE SMOOTH",
"159 439 OFFCURVE",
"114 407 OFFCURVE",
"114 355 CURVE SMOOTH",
"114 281 OFFCURVE",
"215 189 OFFCURVE",
"308 189 CURVE SMOOTH",
"360 189 OFFCURVE",
"424 232 OFFCURVE",
"473 232 CURVE SMOOTH",
"505 232 OFFCURVE",
"532 209 OFFCURVE",
"532 177 CURVE SMOOTH",
"532 120 OFFCURVE",
"474 77 OFFCURVE",
"381 77 CURVE SMOOTH",
"258 77 OFFCURVE",
"152 144 OFFCURVE",
"38 282 CURVE",
"12 263 LINE",
"129 93 OFFCURVE",
"253 -9 OFFCURVE",
"426 -9 CURVE SMOOTH",
"546 -9 OFFCURVE",
"622 51 OFFCURVE",
"622 118 CURVE SMOOTH",
"622 211 OFFCURVE",
"499 302 OFFCURVE",
"406 302 CURVE SMOOTH",
"344 302 OFFCURVE",
"292 261 OFFCURVE",
"245 261 CURVE SMOOTH",
"213 261 OFFCURVE",
"198 274 OFFCURVE",
"198 301 CURVE SMOOTH",
"198 346 OFFCURVE",
"239 372 OFFCURVE",
"295 372 CURVE SMOOTH",
"320 372 OFFCURVE",
"349 369 OFFCURVE",
"377 363 CURVE",
"377 501 LINE SMOOTH",
"377 555 OFFCURVE",
"461 557 OFFCURVE",
"501 620 CURVE",
"411 683 LINE",
"392 665 OFFCURVE",
"366 655 OFFCURVE",
"342 655 CURVE SMOOTH",
"308 655 OFFCURVE",
"287 671 OFFCURVE",
"258 671 CURVE SMOOTH",
"234 671 OFFCURVE",
"216 660 OFFCURVE",
"205 642 CURVE",
"189 648 OFFCURVE",
"173 656 OFFCURVE",
"160 664 CURVE",
"153 660 OFFCURVE",
"148 653 OFFCURVE",
"148 643 CURVE SMOOTH"
);
}
);
width = 652;
}
);
unicode = 115DB;
script = siddham;
category = Letter;
subCategory = Other;
},
{
glyphname = "rVocalic-sidd";
production = uni11586;
lastChange = "2019-04-05 14:14:04 +0000";
layers = (
{
anchors = (
{
name = bottom;
position = "{247, 0}";
},
{
name = top;
position = "{247, 680}";
}
);
layerId = "56FF8C95-10BF-4749-91E0-C1649AF59D40";
paths = (
{
closed = 1;
nodes = (
"536 170 LINE",
"491 225 OFFCURVE",
"469 266 OFFCURVE",
"469 317 CURVE SMOOTH",
"469 380 OFFCURVE",
"499 412 OFFCURVE",
"540 412 CURVE SMOOTH",
"572 412 OFFCURVE",
"589 393 OFFCURVE",
"589 371 CURVE SMOOTH",
"589 341 OFFCURVE",
"570 318 OFFCURVE",
"526 309 CURVE",
"589 228 LINE",
"637 236 OFFCURVE",
"660 275 OFFCURVE",
"660 317 CURVE SMOOTH",
"660 390 OFFCURVE",
"566 498 OFFCURVE",
"489 498 CURVE SMOOTH",
"429 498 OFFCURVE",
"383 451 OFFCURVE",
"383 362 CURVE SMOOTH",
"383 290 OFFCURVE",
"432 238 OFFCURVE",
"519 156 CURVE",
"494 204 LINE",
"399 335 OFFCURVE",
"299 411 OFFCURVE",
"177 411 CURVE SMOOTH",
"131 411 OFFCURVE",
"74 399 OFFCURVE",
"33 380 CURVE",
"113 299 LINE",
"150 314 OFFCURVE",
"189 322 OFFCURVE",
"227 322 CURVE SMOOTH",
"331 322 OFFCURVE",
"408 266 OFFCURVE",
"515 147 CURVE"
);
},
{
closed = 1;
nodes = (
"55 615 OFFCURVE",
"85 580 OFFCURVE",
"257 472 CURVE",
"267 640 LINE",
"216 611 OFFCURVE",
"202 590 OFFCURVE",
"202 558 CURVE SMOOTH",
"202 169 LINE SMOOTH",
"202 132 OFFCURVE",
"192 124 OFFCURVE",
"167 124 CURVE",
"235 36 LINE",
"439 -103 LINE",
"458 -74 LINE",
"170 123 LINE SMOOTH",
"114 161 OFFCURVE",
"87 173 OFFCURVE",
"64 173 CURVE SMOOTH",
"48 173 OFFCURVE",
"38 164 OFFCURVE",
"38 151 CURVE SMOOTH",
"38 134 OFFCURVE",
"49 115 OFFCURVE",
"83 86 CURVE SMOOTH",
"136 42 OFFCURVE",
"176 25 OFFCURVE",
"215 25 CURVE SMOOTH",
"265 25 OFFCURVE",
"292 58 OFFCURVE",
"292 132 CURVE SMOOTH",
"292 501 LINE SMOOTH",
"292 555 OFFCURVE",
"376 557 OFFCURVE",
"416 620 CURVE",
"326 683 LINE",
"306 665 OFFCURVE",
"279 655 OFFCURVE",
"253 655 CURVE SMOOTH",
"217 655 OFFCURVE",
"195 671 OFFCURVE",
"165 671 CURVE SMOOTH",
"141 671 OFFCURVE",
"123 660 OFFCURVE",
"112 642 CURVE",
"96 648 OFFCURVE",
"80 656 OFFCURVE",
"67 664 CURVE",
"60 660 OFFCURVE",
"55 653 OFFCURVE",
"55 643 CURVE SMOOTH"
);
}
);
width = 690;
}
);
rightKerningGroup = jha;
rightMetricsKey = "=30";
unicode = 11586;
script = siddham;
category = Letter;
subCategory = Other;
},
{
glyphname = "rrVocalic-sidd";
production = uni11587;
lastChange = "2019-04-05 14:14:04 +0000";
layers = (
{
anchors = (
{
name = bottom;
position = "{307, 0}";
},
{
name = top;
position = "{307, 680}";
}
);
layerId = "56FF8C95-10BF-4749-91E0-C1649AF59D40";
paths = (
{
closed = 1;
nodes = (
"262 564 LINE",
"262 169 LINE SMOOTH",
"262 132 OFFCURVE",
"252 124 OFFCURVE",
"227 124 CURVE",
"295 36 LINE",
"499 -103 LINE",
"518 -74 LINE",
"230 123 LINE SMOOTH",
"174 161 OFFCURVE",
"147 173 OFFCURVE",
"124 173 CURVE SMOOTH",
"108 173 OFFCURVE",
"98 164 OFFCURVE",
"98 151 CURVE SMOOTH",
"98 134 OFFCURVE",
"109 115 OFFCURVE",
"143 86 CURVE SMOOTH",
"196 42 OFFCURVE",
"236 25 OFFCURVE",
"275 25 CURVE SMOOTH",
"325 25 OFFCURVE",
"352 58 OFFCURVE",
"352 132 CURVE SMOOTH",
"352 501 LINE SMOOTH",
"352 555 OFFCURVE",
"436 557 OFFCURVE",
"476 620 CURVE",
"386 683 LINE",
"332 655 OFFCURVE",
"241 637 OFFCURVE",
"183 637 CURVE",
"183 600 LINE",
"229 600 LINE",
"170 660 OFFCURVE",
"137 683 OFFCURVE",
"96 683 CURVE SMOOTH",
"41 683 OFFCURVE",
"10 652 OFFCURVE",
"10 601 CURVE SMOOTH",
"10 542 OFFCURVE",
"53 502 OFFCURVE",
"131 475 CURVE",
"144 496 LINE",
"118 516 OFFCURVE",
"105 536 OFFCURVE",
"105 560 CURVE SMOOTH",
"105 582 OFFCURVE",
"117 595 OFFCURVE",
"141 595 CURVE SMOOTH",
"176 595 OFFCURVE",
"223 567 OFFCURVE",
"299 490 CURVE"
);
},
{
closed = 1;
nodes = (
"391 322 OFFCURVE",
"468 266 OFFCURVE",
"575 147 CURVE",
"596 170 LINE",
"551 225 OFFCURVE",
"529 266 OFFCURVE",
"529 317 CURVE SMOOTH",
"529 380 OFFCURVE",
"559 412 OFFCURVE",
"600 412 CURVE SMOOTH",
"632 412 OFFCURVE",
"649 393 OFFCURVE",
"649 371 CURVE SMOOTH",
"649 341 OFFCURVE",
"630 318 OFFCURVE",
"586 309 CURVE",
"649 228 LINE",
"697 236 OFFCURVE",
"720 275 OFFCURVE",
"720 317 CURVE SMOOTH",
"720 390 OFFCURVE",
"626 498 OFFCURVE",
"549 498 CURVE SMOOTH",
"489 498 OFFCURVE",
"443 451 OFFCURVE",
"443 362 CURVE SMOOTH",
"443 290 OFFCURVE",
"492 238 OFFCURVE",
"579 156 CURVE",
"554 204 LINE",
"459 335 OFFCURVE",
"359 411 OFFCURVE",
"237 411 CURVE SMOOTH",
"191 411 OFFCURVE",
"134 399 OFFCURVE",
"93 380 CURVE",
"173 299 LINE",
"210 313 OFFCURVE",
"249 322 OFFCURVE",
"287 322 CURVE SMOOTH"
);
}
);
width = 750;
}
);
rightKerningGroup = jha;
rightMetricsKey = "=30";
unicode = 11587;
script = siddham;
category = Letter;
subCategory = Other;
},
{
glyphname = "lVocalic-sidd";
production = uni11588;
lastChange = "2019-04-05 14:14:04 +0000";
layers = (
{
anchors = (
{
name = bottom;
position = "{253, 0}";
},
{
name = top;
position = "{253, 680}";
}
);
layerId = "56FF8C95-10BF-4749-91E0-C1649AF59D40";
paths = (
{
closed = 1;
nodes = (
"425 -64 LINE",
"388 -16 OFFCURVE",
"372 29 OFFCURVE",
"372 80 CURVE SMOOTH",
"372 190 OFFCURVE",
"496 286 OFFCURVE",
"496 426 CURVE SMOOTH",
"496 490 OFFCURVE",
"473 547 OFFCURVE",
"409 609 CURVE SMOOTH",
"356 660 OFFCURVE",
"310 680 OFFCURVE",
"257 680 CURVE SMOOTH",
"132 680 OFFCURVE",
"50 591 OFFCURVE",
"50 462 CURVE SMOOTH",
"50 379 OFFCURVE",
"83 311 OFFCURVE",
"166 228 CURVE",
"192 251 LINE",
"157 290 OFFCURVE",
"140 337 OFFCURVE",
"140 399 CURVE SMOOTH",
"140 518 OFFCURVE",
"208 611 OFFCURVE",
"308 611 CURVE SMOOTH",
"368 611 OFFCURVE",
"406 560 OFFCURVE",
"406 487 CURVE SMOOTH",
"406 357 OFFCURVE",
"282 270 OFFCURVE",
"282 141 CURVE SMOOTH",
"282 63 OFFCURVE",
"310 4 OFFCURVE",
"399 -87 CURVE"
);
}
);
width = 546;
}
);
unicode = 11588;
script = siddham;
category = Letter;
subCategory = Other;
},
{
glyphname = "llVocalic-sidd";
production = uni11589;
lastChange = "2019-04-05 14:14:04 +0000";
layers = (
{
anchors = (
{
name = bottom;
position = "{253, 0}";
},
{
name = top;
position = "{253, 680}";
}
);
layerId = "56FF8C95-10BF-4749-91E0-C1649AF59D40";
paths = (
{
closed = 1;
nodes = (
"643 205 OFFCURVE",
"562 292 OFFCURVE",
"444 292 CURVE SMOOTH",
"424 292 OFFCURVE",
"407 290 OFFCURVE",
"393 285 CURVE",
"415 242 LINE",
"424 245 OFFCURVE",
"434 246 OFFCURVE",
"448 246 CURVE SMOOTH",
"498 246 OFFCURVE",
"534 203 OFFCURVE",
"534 126 CURVE",
"643 84 LINE"
);
},
{
closed = 1;
nodes = (
"425 -64 LINE",
"388 -16 OFFCURVE",
"372 29 OFFCURVE",
"372 80 CURVE SMOOTH",
"372 190 OFFCURVE",
"496 286 OFFCURVE",
"496 426 CURVE SMOOTH",
"496 490 OFFCURVE",
"473 547 OFFCURVE",
"409 609 CURVE SMOOTH",
"356 660 OFFCURVE",
"310 680 OFFCURVE",
"257 680 CURVE SMOOTH",
"132 680 OFFCURVE",
"50 591 OFFCURVE",
"50 462 CURVE SMOOTH",
"50 379 OFFCURVE",
"83 311 OFFCURVE",
"166 228 CURVE",
"192 251 LINE",
"157 290 OFFCURVE",
"140 337 OFFCURVE",
"140 399 CURVE SMOOTH",
"140 518 OFFCURVE",
"208 611 OFFCURVE",
"308 611 CURVE SMOOTH",
"368 611 OFFCURVE",
"406 560 OFFCURVE",
"406 487 CURVE SMOOTH",
"406 357 OFFCURVE",
"282 270 OFFCURVE",
"282 141 CURVE SMOOTH",
"282 63 OFFCURVE",
"310 4 OFFCURVE",
"399 -87 CURVE"
);
}
);
width = 663;
}
);
rightMetricsKey = "uu-sidd";
unicode = 11589;
script = siddham;
category = Letter;
subCategory = Other;
},
{
glyphname = "e-sidd";
production = uni1158A;
lastChange = "2019-04-05 14:14:04 +0000";
layers = (
{
anchors = (
{
name = bottom;
position = "{416, 0}";
},
{
name = top;
position = "{456, 680}";
}
);
layerId = "56FF8C95-10BF-4749-91E0-C1649AF59D40";
paths = (
{
closed = 1;
nodes = (
"444 650 OFFCURVE",
"365 688 OFFCURVE",
"288 688 CURVE SMOOTH",
"213 688 OFFCURVE",
"179 650 OFFCURVE",
"179 594 CURVE SMOOTH",
"179 548 OFFCURVE",
"207 507 OFFCURVE",
"251 479 CURVE",
"276 495 LINE",
"269 506 OFFCURVE",
"265 524 OFFCURVE",
"265 538 CURVE SMOOTH",
"265 583 OFFCURVE",
"288 609 OFFCURVE",
"348 609 CURVE SMOOTH",
"428 609 OFFCURVE",
"515 579 OFFCURVE",
"616 579 CURVE SMOOTH",
"681 579 OFFCURVE",
"747 592 OFFCURVE",
"812 619 CURVE",
"722 680 LINE",
"660 661 OFFCURVE",
"600 650 OFFCURVE",
"536 650 CURVE SMOOTH"
);
},
{
closed = 1;
nodes = (
"432 59 LINE",
"812 619 LINE",
"722 680 LINE",
"342 120 LINE"
);
},
{
closed = 1;
nodes = (
"432 59 LINE",
"47 638 LINE",
"10 614 LINE",
"342 120 LINE"
);
}
);
width = 832;
}
);
rightKerningGroup = e;
unicode = 1158A;
script = siddham;
category = Letter;
subCategory = Other;
},
{
glyphname = "ai-sidd";
production = uni1158B;
lastChange = "2019-04-05 14:14:05 +0000";
layers = (
{
anchors = (
{
name = bottom;
position = "{416, 0}";
},
{
name = top;
position = "{456, 880}";
}
);
layerId = "56FF8C95-10BF-4749-91E0-C1649AF59D40";
paths = (
{
closed = 1;
nodes = (
"487 643 LINE",
"453 672 OFFCURVE",
"432 712 OFFCURVE",
"432 746 CURVE SMOOTH",
"432 778 OFFCURVE",
"449 797 OFFCURVE",
"482 797 CURVE SMOOTH",
"512 797 OFFCURVE",
"535 782 OFFCURVE",
"562 753 CURVE",
"582 771 LINE",
"543 846 OFFCURVE",
"499 889 OFFCURVE",
"437 889 CURVE SMOOTH",
"379 889 OFFCURVE",
"342 853 OFFCURVE",
"342 799 CURVE SMOOTH",
"342 752 OFFCURVE",
"370 707 OFFCURVE",
"468 621 CURVE"
);
},
{
closed = 1;
nodes = (
"444 650 OFFCURVE",
"365 688 OFFCURVE",
"288 688 CURVE SMOOTH",
"213 688 OFFCURVE",
"179 650 OFFCURVE",
"179 594 CURVE SMOOTH",
"179 548 OFFCURVE",
"207 507 OFFCURVE",
"251 479 CURVE",
"276 495 LINE",
"269 506 OFFCURVE",
"265 524 OFFCURVE",
"265 538 CURVE SMOOTH",
"265 583 OFFCURVE",
"288 609 OFFCURVE",
"348 609 CURVE SMOOTH",
"428 609 OFFCURVE",
"515 579 OFFCURVE",
"616 579 CURVE SMOOTH",
"681 579 OFFCURVE",
"747 592 OFFCURVE",
"812 619 CURVE",
"722 680 LINE",
"660 661 OFFCURVE",
"600 650 OFFCURVE",
"536 650 CURVE SMOOTH"
);
},
{
closed = 1;
nodes = (
"432 59 LINE",
"812 619 LINE",
"722 680 LINE",
"342 120 LINE"
);
},
{
closed = 1;
nodes = (
"432 59 LINE",
"47 638 LINE",
"10 614 LINE",
"342 120 LINE"
);
}
);
width = 832;
}
);
leftMetricsKey = "e-sidd";
rightKerningGroup = e;
rightMetricsKey = "e-sidd";
unicode = 1158B;
script = siddham;
category = Letter;
subCategory = Other;
},
{
glyphname = "o-sidd";
production = uni1158C;
lastChange = "2019-04-05 14:14:05 +0000";
layers = (
{
anchors = (
{
name = bottom;
position = "{475, 0}";
},
{
name = top;
position = "{475, 680}";
}
);
layerId = "56FF8C95-10BF-4749-91E0-C1649AF59D40";
paths = (
{
closed = 1;
nodes = (
"644 6 OFFCURVE",
"722 75 OFFCURVE",
"722 173 CURVE SMOOTH",
"722 281 OFFCURVE",
"577 383 OFFCURVE",
"471 383 CURVE",
"512 347 LINE",
"771 620 LINE",
"681 683 LINE",
"622 605 LINE",
"363 332 LINE",
"453 269 LINE",
"480 297 OFFCURVE",
"504 312 OFFCURVE",
"541 312 CURVE SMOOTH",
"587 312 OFFCURVE",
"626 278 OFFCURVE",
"626 216 CURVE SMOOTH",
"626 139 OFFCURVE",
"565 84 OFFCURVE",
"472 84 CURVE SMOOTH",
"382 84 OFFCURVE",
"348 99 OFFCURVE",
"294 232 CURVE SMOOTH",
"233 382 OFFCURVE",
"172 429 OFFCURVE",
"23 499 CURVE",
"10 468 LINE",
"97 418 OFFCURVE",
"132 375 OFFCURVE",
"173 281 CURVE SMOOTH",
"255 91 OFFCURVE",
"388 6 OFFCURVE",
"526 6 CURVE SMOOTH"
);
},
{
closed = 1;
nodes = (
"384 493 LINE",
"365 508 OFFCURVE",
"350 528 OFFCURVE",
"350 549 CURVE SMOOTH",
"350 577 OFFCURVE",
"365 594 OFFCURVE",
"399 594 CURVE SMOOTH",
"445 594 OFFCURVE",
"499 553 OFFCURVE",
"579 553 CURVE SMOOTH",
"600 553 OFFCURVE",
"632 557 OFFCURVE",
"651 562 CURVE",
"681 683 LINE",
"638 658 OFFCURVE",
"577 641 OFFCURVE",
"530 641 CURVE SMOOTH",
"439 641 OFFCURVE",
"396 680 OFFCURVE",
"336 680 CURVE SMOOTH",
"281 680 OFFCURVE",
"250 649 OFFCURVE",
"250 594 CURVE SMOOTH",
"250 539 OFFCURVE",
"283 499 OFFCURVE",
"371 472 CURVE"
);
}
);
width = 801;
}
);
rightKerningGroup = e;
unicode = 1158C;
script = siddham;
category = Letter;
subCategory = Other;
},
{
glyphname = "au-sidd";
production = uni1158D;
lastChange = "2019-04-05 14:14:05 +0000";
layers = (
{
anchors = (
{
name = bottom;
position = "{475, 0}";
},
{
name = top;
position = "{475, 680}";
}
);
layerId = "56FF8C95-10BF-4749-91E0-C1649AF59D40";
paths = (
{
closed = 1;
nodes = (
"893 195 OFFCURVE",
"812 282 OFFCURVE",
"694 282 CURVE SMOOTH",
"674 282 OFFCURVE",
"657 280 OFFCURVE",
"643 275 CURVE",
"665 232 LINE",
"674 235 OFFCURVE",
"684 236 OFFCURVE",
"698 236 CURVE SMOOTH",
"748 236 OFFCURVE",
"784 193 OFFCURVE",
"784 116 CURVE",
"893 74 LINE"
);
},
{
closed = 1;
nodes = (
"644 6 OFFCURVE",
"722 75 OFFCURVE",
"722 173 CURVE SMOOTH",
"722 281 OFFCURVE",
"577 383 OFFCURVE",
"471 383 CURVE",
"512 347 LINE",
"771 620 LINE",
"681 683 LINE",
"622 605 LINE",
"363 332 LINE",
"453 269 LINE",
"480 297 OFFCURVE",
"504 312 OFFCURVE",
"541 312 CURVE SMOOTH",
"587 312 OFFCURVE",
"626 278 OFFCURVE",
"626 216 CURVE SMOOTH",
"626 139 OFFCURVE",
"565 84 OFFCURVE",
"472 84 CURVE SMOOTH",
"382 84 OFFCURVE",
"348 99 OFFCURVE",
"294 232 CURVE SMOOTH",
"233 382 OFFCURVE",
"172 429 OFFCURVE",
"23 499 CURVE",
"10 468 LINE",
"97 418 OFFCURVE",
"132 375 OFFCURVE",
"173 281 CURVE SMOOTH",
"255 91 OFFCURVE",
"388 6 OFFCURVE",
"526 6 CURVE SMOOTH"
);
},
{
closed = 1;
nodes = (
"384 493 LINE",
"365 508 OFFCURVE",
"350 528 OFFCURVE",
"350 549 CURVE SMOOTH",
"350 577 OFFCURVE",
"365 594 OFFCURVE",
"399 594 CURVE SMOOTH",
"445 594 OFFCURVE",
"499 553 OFFCURVE",
"579 553 CURVE SMOOTH",
"600 553 OFFCURVE",
"632 557 OFFCURVE",
"651 562 CURVE",
"681 683 LINE",
"638 658 OFFCURVE",
"577 641 OFFCURVE",
"530 641 CURVE SMOOTH",
"439 641 OFFCURVE",
"396 680 OFFCURVE",
"336 680 CURVE SMOOTH",
"281 680 OFFCURVE",
"250 649 OFFCURVE",
"250 594 CURVE SMOOTH",
"250 539 OFFCURVE",
"283 499 OFFCURVE",
"371 472 CURVE"
);
}
);
width = 913;
}
);
leftMetricsKey = "o-sidd";
rightMetricsKey = "uu-sidd";
unicode = 1158D;
script = siddham;
category = Letter;
subCategory = Other;
},
{
glyphname = "ka-sidd";
production = uni1158E;
lastChange = "2019-04-05 14:14:05 +0000";
layers = (
{
anchors = (
{
name = bottom;
position = "{355, 0}";
},
{
name = top;
position = "{355, 680}";
},
{
name = topleft;
position = "{215, 680}";
}
);
layerId = "56FF8C95-10BF-4749-91E0-C1649AF59D40";
paths = (
{
closed = 1;
nodes = (
"148 610 OFFCURVE",
"178 575 OFFCURVE",
"350 467 CURVE",
"351 610 LINE",
"322 597 OFFCURVE",
"310 574 OFFCURVE",
"310 526 CURVE SMOOTH",
"310 47 LINE",
"337 68 LINE",
"268 94 OFFCURVE",
"169 121 OFFCURVE",
"100 133 CURVE",
"120 96 LINE",
"170 288 OFFCURVE",
"301 379 OFFCURVE",
"443 379 CURVE SMOOTH",
"530 379 OFFCURVE",
"567 333 OFFCURVE",
"567 241 CURVE SMOOTH",
"567 192 OFFCURVE",
"561 141 OFFCURVE",
"561 102 CURVE SMOOTH",
"561 29 OFFCURVE",
"589 -12 OFFCURVE",
"680 -77 CURVE",
"703 -51 LINE",
"664 -16 OFFCURVE",
"651 15 OFFCURVE",
"651 54 CURVE SMOOTH",
"651 92 OFFCURVE",
"657 151 OFFCURVE",
"657 199 CURVE SMOOTH",
"657 275 OFFCURVE",
"641 326 OFFCURVE",
"559 384 CURVE SMOOTH",
"496 428 OFFCURVE",
"443 448 OFFCURVE",
"370 448 CURVE SMOOTH",
"222 448 OFFCURVE",
"94 352 OFFCURVE",
"30 133 CURVE",
"118 91 LINE",
"198 66 OFFCURVE",
"291 26 OFFCURVE",
"375 -21 CURVE",
"400 -14 LINE",
"400 476 LINE SMOOTH",
"400 540 OFFCURVE",
"544 560 OFFCURVE",
"589 620 CURVE",
"499 683 LINE",
"465 658 OFFCURVE",
"420 645 OFFCURVE",
"376 645 CURVE SMOOTH",
"328 645 OFFCURVE",
"298 666 OFFCURVE",
"258 666 CURVE SMOOTH",
"234 666 OFFCURVE",
"216 655 OFFCURVE",
"205 637 CURVE",
"189 643 OFFCURVE",
"173 651 OFFCURVE",
"160 659 CURVE",
"153 655 OFFCURVE",
"148 648 OFFCURVE",
"148 638 CURVE SMOOTH"
);
}
);
width = 739;
}
);
leftKerningGroup = ka;
leftMetricsKey = "=30";
rightKerningGroup = ka;
rightMetricsKey = "=36";
unicode = 1158E;
script = siddham;
category = Letter;
subCategory = Other;
},
{
glyphname = "kha-sidd";
production = uni1158F;
lastChange = "2019-04-05 14:14:05 +0000";
layers = (
{
anchors = (
{
name = bottom;
position = "{412, 0}";
},
{
name = top;
position = "{412, 680}";
},
{
name = topleft;
position = "{160, 680}";
}
);
layerId = "56FF8C95-10BF-4749-91E0-C1649AF59D40";
paths = (
{
closed = 1;
nodes = (
"717 -21 LINE",
"671 16 OFFCURVE",
"655 49 OFFCURVE",
"655 182 CURVE SMOOTH",
"655 577 LINE",
"565 577 LINE",
"565 190 LINE SMOOTH",
"565 64 OFFCURVE",
"595 21 OFFCURVE",
"694 -47 CURVE"
);
},
{
closed = 1;
nodes = (
"661 650 LINE",
"570 561 LINE",
"465 495 OFFCURVE",
"370 444 OFFCURVE",
"370 368 CURVE SMOOTH",
"370 261 OFFCURVE",
"503 178 OFFCURVE",
"639 109 CURVE",
"639 150 LINE",
"504 226 OFFCURVE",
"450 269 OFFCURVE",
"450 325 CURVE SMOOTH",
"450 373 OFFCURVE",
"501 414 OFFCURVE",
"571 459 CURVE",
"633 497 LINE",
"784 606 LINE",
"784 619 LINE",
"706 680 LINE",
"641 640 OFFCURVE",
"571 616 OFFCURVE",
"491 616 CURVE SMOOTH",
"391 616 OFFCURVE",
"325 690 OFFCURVE",
"220 690 CURVE SMOOTH",
"143 690 OFFCURVE",
"107 644 OFFCURVE",
"107 597 CURVE SMOOTH",
"107 546 OFFCURVE",
"140 499 OFFCURVE",
"214 450 CURVE",
"272 438 LINE",
"215 471 OFFCURVE",
"194 500 OFFCURVE",
"194 530 CURVE SMOOTH",
"194 577 OFFCURVE",
"226 607 OFFCURVE",
"280 607 CURVE SMOOTH",
"371 607 OFFCURVE",
"462 523 OFFCURVE",
"560 523 CURVE SMOOTH",
"631 523 OFFCURVE",
"705 549 OFFCURVE",
"774 601 CURVE"
);
},
{
closed = 1;
nodes = (
"180 495 LINE",
"160 444 OFFCURVE",
"111 397 OFFCURVE",
"20 348 CURVE",
"110 285 LINE",
"182 319 OFFCURVE",
"242 378 OFFCURVE",
"272 438 CURVE"
);
},
{
closed = 1;
nodes = (
"132 379 LINE",
"171 337 OFFCURVE",
"186 298 OFFCURVE",
"186 258 CURVE SMOOTH",
"186 203 OFFCURVE",
"157 144 OFFCURVE",
"103 79 CURVE",
"193 16 LINE",
"246 76 OFFCURVE",
"276 133 OFFCURVE",
"276 196 CURVE SMOOTH",
"276 260 OFFCURVE",
"245 323 OFFCURVE",
"158 402 CURVE"
);
}
);
width = 804;
}
);
leftKerningGroup = kha;
leftMetricsKey = "=20";
rightKerningGroup = kha;
rightMetricsKey = "=20";
unicode = 1158F;
script = siddham;
category = Letter;
subCategory = Other;
},
{
glyphname = "ga-sidd";
production = uni11590;
lastChange = "2019-04-05 14:14:05 +0000";
layers = (
{
anchors = (
{
name = bottom;
position = "{382, 0}";
},
{
name = top;
position = "{382, 680}";
},
{
name = topleft;
position = "{160, 680}";
}
);
layerId = "56FF8C95-10BF-4749-91E0-C1649AF59D40";
paths = (
{
closed = 1;
nodes = (
"599 543 OFFCURVE",
"661 562 OFFCURVE",
"724 606 CURVE",
"724 619 LINE",
"646 680 LINE",
"596 653 OFFCURVE",
"537 636 OFFCURVE",
"481 636 CURVE SMOOTH",
"385 636 OFFCURVE",
"311 690 OFFCURVE",
"220 690 CURVE SMOOTH",
"143 690 OFFCURVE",
"107 644 OFFCURVE",
"107 597 CURVE SMOOTH",
"107 546 OFFCURVE",
"140 499 OFFCURVE",
"214 450 CURVE",
"272 438 LINE",
"215 471 OFFCURVE",
"194 500 OFFCURVE",
"194 530 CURVE SMOOTH",
"194 577 OFFCURVE",
"226 607 OFFCURVE",
"280 607 CURVE SMOOTH",
"358 607 OFFCURVE",
"456 543 OFFCURVE",
"550 543 CURVE SMOOTH"
);
},
{
closed = 1;
nodes = (
"132 379 LINE",
"171 337 OFFCURVE",
"186 298 OFFCURVE",
"186 258 CURVE SMOOTH",
"186 203 OFFCURVE",
"157 144 OFFCURVE",
"103 79 CURVE",
"193 16 LINE",
"246 76 OFFCURVE",
"276 133 OFFCURVE",
"276 196 CURVE SMOOTH",
"276 260 OFFCURVE",
"245 323 OFFCURVE",
"158 402 CURVE"
);
},
{
closed = 1;
nodes = (
"595 602 LINE",
"505 602 LINE",
"505 190 LINE SMOOTH",
"505 64 OFFCURVE",
"535 21 OFFCURVE",
"634 -47 CURVE",
"657 -21 LINE",
"611 16 OFFCURVE",
"595 49 OFFCURVE",
"595 182 CURVE SMOOTH"
);
},
{
closed = 1;
nodes = (
"180 495 LINE",
"160 444 OFFCURVE",
"111 397 OFFCURVE",
"20 348 CURVE",
"110 285 LINE",
"182 319 OFFCURVE",
"242 378 OFFCURVE",
"272 438 CURVE"
);
}
);
width = 744;
}
);
leftKerningGroup = kha;
leftMetricsKey = "=20";
rightKerningGroup = kha;
rightMetricsKey = "=20";
unicode = 11590;
script = siddham;
category = Letter;
subCategory = Other;
},
{
glyphname = "gha-sidd";
production = uni11591;
lastChange = "2019-04-05 14:14:05 +0000";
layers = (
{
anchors = (
{
name = bottom;
position = "{437, 76}";
},
{
name = top;
position = "{437, 680}";
},
{
name = topleft;
position = "{77, 680}";
}
);
layerId = "56FF8C95-10BF-4749-91E0-C1649AF59D40";
paths = (
{
closed = 1;
nodes = (
"411 213 OFFCURVE",
"429 215 OFFCURVE",
"445 218 CURVE",
"399 320 LINE",
"371 295 OFFCURVE",
"341 284 OFFCURVE",
"310 284 CURVE SMOOTH",
"263 284 OFFCURVE",
"237 309 OFFCURVE",
"237 362 CURVE SMOOTH",
"237 481 LINE SMOOTH",
"237 535 OFFCURVE",
"321 557 OFFCURVE",
"361 620 CURVE",
"271 683 LINE",
"252 665 OFFCURVE",
"227 655 OFFCURVE",
"203 655 CURVE SMOOTH",
"169 655 OFFCURVE",
"148 671 OFFCURVE",
"120 671 CURVE SMOOTH",
"96 671 OFFCURVE",
"78 660 OFFCURVE",
"67 642 CURVE",
"51 648 OFFCURVE",
"35 656 OFFCURVE",
"22 664 CURVE",
"15 660 OFFCURVE",
"10 653 OFFCURVE",
"10 643 CURVE SMOOTH",
"10 615 OFFCURVE",
"40 580 OFFCURVE",
"212 472 CURVE",
"212 643 LINE",
"161 614 OFFCURVE",
"147 593 OFFCURVE",
"147 561 CURVE SMOOTH",
"147 425 LINE SMOOTH",
"147 308 OFFCURVE",
"258 213 OFFCURVE",
"395 213 CURVE SMOOTH"
);
},
{
closed = 1;
nodes = (
"656 113 OFFCURVE",
"674 115 OFFCURVE",
"690 118 CURVE",
"644 220 LINE",
"616 195 OFFCURVE",
"586 184 OFFCURVE",
"555 184 CURVE SMOOTH",
"508 184 OFFCURVE",
"482 209 OFFCURVE",
"482 262 CURVE SMOOTH",
"482 526 LINE SMOOTH",
"482 569 OFFCURVE",
"489 590 OFFCURVE",
"513 617 CURVE",
"423 680 LINE",
"401 657 OFFCURVE",
"392 634 OFFCURVE",
"392 586 CURVE SMOOTH",
"392 325 LINE SMOOTH",
"392 208 OFFCURVE",
"503 113 OFFCURVE",
"640 113 CURVE SMOOTH"
);
},
{
closed = 1;
nodes = (
"723 43 OFFCURVE",
"727 47 OFFCURVE",
"727 56 CURVE SMOOTH",
"727 526 LINE SMOOTH",
"727 569 OFFCURVE",
"734 590 OFFCURVE",
"758 617 CURVE",
"668 680 LINE",
"646 657 OFFCURVE",
"637 634 OFFCURVE",
"637 586 CURVE SMOOTH",
"637 90 LINE SMOOTH",
"637 72 OFFCURVE",
"694 43 OFFCURVE",
"717 43 CURVE SMOOTH"
);
},
{
closed = 1;
nodes = (
"789 -82 LINE",
"743 -45 OFFCURVE",
"727 -11 OFFCURVE",
"727 73 CURVE SMOOTH",
"727 82 LINE SMOOTH",
"727 97 OFFCURVE",
"680 103 OFFCURVE",
"658 103 CURVE SMOOTH",
"641 103 OFFCURVE",
"637 99 OFFCURVE",
"637 90 CURVE SMOOTH",
"637 81 LINE SMOOTH",
"637 9 OFFCURVE",
"667 -40 OFFCURVE",
"766 -108 CURVE"
);
}
);
width = 829;
}
);
leftKerningGroup = gha;
rightKerningGroup = gha;
rightMetricsKey = "pa-sidd";
unicode = 11591;
script = siddham;
category = Letter;
subCategory = Other;
},
{
glyphname = "nga-sidd";
production = uni11592;
lastChange = "2019-04-05 14:14:06 +0000";
layers = (
{
anchors = (
{
name = bottom;
position = "{344, 0}";
},
{
name = top;
position = "{344, 680}";
},
{
name = topleft;
position = "{162, 680}";
}
);
layerId = "56FF8C95-10BF-4749-91E0-C1649AF59D40";
paths = (
{
closed = 1;
nodes = (
"668 325 LINE",
"568 401 OFFCURVE",
"533 448 OFFCURVE",
"533 500 CURVE SMOOTH",
"533 548 OFFCURVE",
"563 582 OFFCURVE",
"615 616 CURVE",
"524 680 LINE",
"468 641 OFFCURVE",
"442 606 OFFCURVE",
"442 551 CURVE SMOOTH",
"442 461 OFFCURVE",
"511 395 OFFCURVE",
"645 299 CURVE"
);
},
{
closed = 1;
nodes = (
"95 610 OFFCURVE",
"125 575 OFFCURVE",
"297 467 CURVE",
"328 544 LINE",
"229 449 OFFCURVE",
"134 380 OFFCURVE",
"20 313 CURVE",
"20 287 LINE",
"150 207 OFFCURVE",
"295 87 OFFCURVE",
"425 -46 CURVE",
"448 -20 LINE",
"363 90 OFFCURVE",
"228 223 OFFCURVE",
"106 322 CURVE",
"110 250 LINE",
"253 325 OFFCURVE",
"447 498 OFFCURVE",
"536 620 CURVE",
"446 683 LINE",
"412 658 OFFCURVE",
"367 645 OFFCURVE",
"323 645 CURVE SMOOTH",
"275 645 OFFCURVE",
"245 666 OFFCURVE",
"205 666 CURVE SMOOTH",
"181 666 OFFCURVE",
"163 655 OFFCURVE",
"152 637 CURVE",
"136 643 OFFCURVE",
"120 651 OFFCURVE",
"107 659 CURVE",
"100 655 OFFCURVE",
"95 648 OFFCURVE",
"95 638 CURVE SMOOTH"
);
}
);
width = 688;
}
);
leftKerningGroup = nga;
rightKerningGroup = nga;
unicode = 11592;
script = siddham;
category = Letter;
subCategory = Other;
},
{
glyphname = "ca-sidd";
production = uni11593;
lastChange = "2019-04-05 14:14:06 +0000";
layers = (
{
anchors = (
{
name = bottom;
position = "{320, -50}";
},
{
name = top;
position = "{380, 680}";
},
{
name = topleft;
position = "{242, 680}";
}
);
layerId = "56FF8C95-10BF-4749-91E0-C1649AF59D40";
paths = (
{
closed = 1;
nodes = (
"492 658 OFFCURVE",
"447 645 OFFCURVE",
"403 645 CURVE SMOOTH",
"355 645 OFFCURVE",
"325 666 OFFCURVE",
"285 666 CURVE SMOOTH",
"261 666 OFFCURVE",
"243 655 OFFCURVE",
"232 637 CURVE",
"216 643 OFFCURVE",
"200 651 OFFCURVE",
"187 659 CURVE",
"180 655 OFFCURVE",
"175 648 OFFCURVE",
"175 638 CURVE SMOOTH",
"175 610 OFFCURVE",
"205 575 OFFCURVE",
"377 467 CURVE",
"378 544 LINE",
"263 452 OFFCURVE",
"153 385 OFFCURVE",
"20 320 CURVE",
"20 294 LINE",
"107 253 OFFCURVE",
"244 154 OFFCURVE",
"346 56 CURVE",
"346 99 LINE",
"299 161 OFFCURVE",
"196 254 OFFCURVE",
"106 319 CURVE",
"110 257 LINE",
"279 331 OFFCURVE",
"510 500 OFFCURVE",
"616 620 CURVE",
"526 683 LINE"
);
},
{
closed = 1;
nodes = (
"487 -81 LINE",
"441 -44 OFFCURVE",
"425 -11 OFFCURVE",
"425 122 CURVE SMOOTH",
"425 472 LINE",
"335 472 LINE",
"335 130 LINE SMOOTH",
"335 4 OFFCURVE",
"365 -39 OFFCURVE",
"464 -107 CURVE"
);
}
);
width = 636;
}
);
leftKerningGroup = ca;
rightKerningGroup = ca;
unicode = 11593;
script = siddham;
category = Letter;
subCategory = Other;
},
{
glyphname = "cha-sidd";
production = uni11594;
lastChange = "2019-04-05 14:14:06 +0000";
layers = (
{
anchors = (
{
name = bottom;
position = "{394, -100}";
},
{
name = top;
position = "{394, 680}";
},
{
name = topleft;
position = "{254, 680}";
}
);
layerId = "56FF8C95-10BF-4749-91E0-C1649AF59D40";
paths = (
{
closed = 1;
nodes = (
"371 105 OFFCURVE",
"482 393 OFFCURVE",
"625 393 CURVE SMOOTH",
"655 393 OFFCURVE",
"673 378 OFFCURVE",
"673 330 CURVE SMOOTH",
"673 250 OFFCURVE",
"620 186 OFFCURVE",
"544 186 CURVE SMOOTH",
"496 186 OFFCURVE",
"452 213 OFFCURVE",
"404 279 CURVE",
"382 246 LINE",
"461 143 OFFCURVE",
"522 105 OFFCURVE",
"595 105 CURVE SMOOTH",
"695 105 OFFCURVE",
"758 178 OFFCURVE",
"758 262 CURVE SMOOTH",
"758 320 OFFCURVE",
"729 373 OFFCURVE",
"683 415 CURVE SMOOTH",
"645 449 OFFCURVE",
"608 465 OFFCURVE",
"567 465 CURVE SMOOTH",
"417 465 OFFCURVE",
"306 177 OFFCURVE",
"163 177 CURVE SMOOTH",
"133 177 OFFCURVE",
"115 192 OFFCURVE",
"115 240 CURVE SMOOTH",
"115 320 OFFCURVE",
"168 384 OFFCURVE",
"244 384 CURVE SMOOTH",
"292 384 OFFCURVE",
"336 357 OFFCURVE",
"384 291 CURVE",
"406 324 LINE",
"327 427 OFFCURVE",
"266 465 OFFCURVE",
"193 465 CURVE SMOOTH",
"93 465 OFFCURVE",
"30 392 OFFCURVE",
"30 308 CURVE SMOOTH",
"30 250 OFFCURVE",
"59 197 OFFCURVE",
"105 155 CURVE SMOOTH",
"143 121 OFFCURVE",
"180 105 OFFCURVE",
"221 105 CURVE SMOOTH"
);
},
{
closed = 1;
nodes = (
"501 -81 LINE",
"455 -44 OFFCURVE",
"439 -11 OFFCURVE",
"439 122 CURVE SMOOTH",
"439 227 LINE",
"349 227 LINE",
"349 130 LINE SMOOTH",
"349 4 OFFCURVE",
"379 -39 OFFCURVE",
"478 -107 CURVE"
);
},
{
closed = 1;
nodes = (
"187 610 OFFCURVE",
"217 575 OFFCURVE",
"389 467 CURVE",
"390 610 LINE",
"361 597 OFFCURVE",
"349 574 OFFCURVE",
"349 526 CURVE SMOOTH",
"349 342 LINE",
"439 342 LINE",
"439 476 LINE SMOOTH",
"439 540 OFFCURVE",
"583 560 OFFCURVE",
"628 620 CURVE",
"538 683 LINE",
"504 658 OFFCURVE",
"459 645 OFFCURVE",
"415 645 CURVE SMOOTH",
"367 645 OFFCURVE",
"337 666 OFFCURVE",
"297 666 CURVE SMOOTH",
"273 666 OFFCURVE",
"255 655 OFFCURVE",
"244 637 CURVE",
"228 643 OFFCURVE",
"212 651 OFFCURVE",
"199 659 CURVE",
"192 655 OFFCURVE",
"187 648 OFFCURVE",
"187 638 CURVE SMOOTH"
);
}
);
width = 788;
}
);
leftKerningGroup = cha;
rightKerningGroup = cha;
unicode = 11594;
script = siddham;
category = Letter;
subCategory = Other;
},
{
glyphname = "ja-sidd";
production = uni11595;
lastChange = "2019-04-05 14:14:06 +0000";
layers = (
{
anchors = (
{
name = bottom;
position = "{344, 0}";
},
{
name = top;
position = "{344, 680}";
},
{
name = topleft;
position = "{162, 680}";
}
);
layerId = "56FF8C95-10BF-4749-91E0-C1649AF59D40";
paths = (
{
closed = 1;
nodes = (
"258 375 LINE",
"352 306 OFFCURVE",
"436 229 OFFCURVE",
"513 141 CURVE",
"536 167 LINE",
"467 267 OFFCURVE",
"391 357 OFFCURVE",
"305 438 CURVE"
);
},
{
closed = 1;
nodes = (
"668 325 LINE",
"568 401 OFFCURVE",
"533 448 OFFCURVE",
"533 500 CURVE SMOOTH",
"533 548 OFFCURVE",
"563 582 OFFCURVE",
"615 616 CURVE",
"524 680 LINE",
"468 641 OFFCURVE",
"442 606 OFFCURVE",
"442 551 CURVE SMOOTH",
"442 461 OFFCURVE",
"511 395 OFFCURVE",
"645 299 CURVE"
);
},
{
closed = 1;
nodes = (
"95 610 OFFCURVE",
"125 575 OFFCURVE",
"297 467 CURVE",
"328 544 LINE",
"229 449 OFFCURVE",
"134 380 OFFCURVE",
"20 313 CURVE",
"20 287 LINE",
"150 207 OFFCURVE",
"295 87 OFFCURVE",
"425 -46 CURVE",
"448 -20 LINE",
"363 90 OFFCURVE",
"228 223 OFFCURVE",
"106 322 CURVE",
"110 250 LINE",
"253 325 OFFCURVE",
"447 498 OFFCURVE",
"536 620 CURVE",
"446 683 LINE",
"412 658 OFFCURVE",
"367 645 OFFCURVE",
"323 645 CURVE SMOOTH",
"275 645 OFFCURVE",
"245 666 OFFCURVE",
"205 666 CURVE SMOOTH",
"181 666 OFFCURVE",
"163 655 OFFCURVE",
"152 637 CURVE",
"136 643 OFFCURVE",
"120 651 OFFCURVE",
"107 659 CURVE",
"100 655 OFFCURVE",
"95 648 OFFCURVE",
"95 638 CURVE SMOOTH"
);
}
);
width = 688;
}
);
leftKerningGroup = nga;
rightKerningGroup = nga;
unicode = 11595;
script = siddham;
category = Letter;
subCategory = Other;
},
{
glyphname = "jha-sidd";
production = uni11596;
lastChange = "2019-04-05 14:14:06 +0000";
layers = (
{
anchors = (
{
name = bottom;
position = "{239, -51}";
},
{
name = top;
position = "{247, 680}";
},
{
name = topleft;
position = "{122, 680}";
}
);
layerId = "56FF8C95-10BF-4749-91E0-C1649AF59D40";
paths = (
{
closed = 1;
nodes = (
"323 322 OFFCURVE",
"400 266 OFFCURVE",
"507 147 CURVE",
"528 170 LINE",
"483 225 OFFCURVE",
"461 266 OFFCURVE",
"461 317 CURVE SMOOTH",
"461 380 OFFCURVE",
"491 412 OFFCURVE",
"532 412 CURVE SMOOTH",
"564 412 OFFCURVE",
"581 393 OFFCURVE",
"581 371 CURVE SMOOTH",
"581 341 OFFCURVE",
"562 318 OFFCURVE",
"518 309 CURVE",
"581 228 LINE",
"629 236 OFFCURVE",
"652 275 OFFCURVE",
"652 317 CURVE SMOOTH",
"652 390 OFFCURVE",
"558 498 OFFCURVE",
"481 498 CURVE SMOOTH",
"421 498 OFFCURVE",
"375 451 OFFCURVE",
"375 362 CURVE SMOOTH",
"375 290 OFFCURVE",
"424 238 OFFCURVE",
"511 156 CURVE",
"486 204 LINE",
"404 317 OFFCURVE",
"319 389 OFFCURVE",
"219 407 CURVE",
"219 322 LINE"
);
},
{
closed = 1;
nodes = (
"284 501 LINE SMOOTH",
"284 555 OFFCURVE",
"368 557 OFFCURVE",
"408 620 CURVE",
"318 683 LINE",
"298 665 OFFCURVE",
"271 655 OFFCURVE",
"245 655 CURVE SMOOTH",
"209 655 OFFCURVE",
"187 671 OFFCURVE",
"157 671 CURVE SMOOTH",
"133 671 OFFCURVE",
"115 660 OFFCURVE",
"104 642 CURVE",
"88 648 OFFCURVE",
"72 656 OFFCURVE",
"59 664 CURVE",
"52 660 OFFCURVE",
"47 653 OFFCURVE",
"47 643 CURVE SMOOTH",
"47 615 OFFCURVE",
"77 580 OFFCURVE",
"249 472 CURVE",
"259 640 LINE",
"208 611 OFFCURVE",
"194 590 OFFCURVE",
"194 558 CURVE SMOOTH",
"194 219 LINE SMOOTH",
"194 201 OFFCURVE",
"251 172 OFFCURVE",
"274 172 CURVE SMOOTH",
"280 172 OFFCURVE",
"284 176 OFFCURVE",
"284 185 CURVE SMOOTH"
);
},
{
closed = 1;
nodes = (
"440 -72 LINE",
"152 125 LINE SMOOTH",
"96 163 OFFCURVE",
"69 175 OFFCURVE",
"46 175 CURVE SMOOTH",
"30 175 OFFCURVE",
"20 166 OFFCURVE",
"20 153 CURVE SMOOTH",
"20 112 OFFCURVE",
"121 27 OFFCURVE",
"197 27 CURVE SMOOTH",
"254 27 OFFCURVE",
"284 63 OFFCURVE",
"284 144 CURVE SMOOTH",
"284 185 LINE SMOOTH",
"284 203 OFFCURVE",
"227 232 OFFCURVE",
"204 232 CURVE SMOOTH",
"198 232 OFFCURVE",
"194 228 OFFCURVE",
"194 219 CURVE SMOOTH",
"194 161 LINE SMOOTH",
"194 124 OFFCURVE",
"184 116 OFFCURVE",
"159 116 CURVE",
"217 38 LINE",
"421 -101 LINE"
);
}
);
width = 682;
}
);
leftKerningGroup = jha;
leftMetricsKey = "=20";
rightKerningGroup = jha;
rightMetricsKey = "=30";
unicode = 11596;
script = siddham;
category = Letter;
subCategory = Other;
},
{
glyphname = "nya-sidd";
production = uni11597;
lastChange = "2019-04-05 14:14:06 +0000";
layers = (
{
anchors = (
{
name = bottom;
position = "{317, -51}";
},
{
name = top;
position = "{317, 680}";
},
{
name = topleft;
position = "{122, 680}";
}
);
layerId = "56FF8C95-10BF-4749-91E0-C1649AF59D40";
paths = (
{
closed = 1;
nodes = (
"401 322 OFFCURVE",
"478 266 OFFCURVE",
"585 147 CURVE",
"606 170 LINE",
"561 225 OFFCURVE",
"539 266 OFFCURVE",
"539 317 CURVE SMOOTH",
"539 380 OFFCURVE",
"569 412 OFFCURVE",
"610 412 CURVE SMOOTH",
"642 412 OFFCURVE",
"659 393 OFFCURVE",
"659 371 CURVE SMOOTH",
"659 341 OFFCURVE",
"640 318 OFFCURVE",
"596 309 CURVE",
"659 228 LINE",
"707 236 OFFCURVE",
"730 275 OFFCURVE",
"730 317 CURVE SMOOTH",
"730 390 OFFCURVE",
"636 498 OFFCURVE",
"559 498 CURVE SMOOTH",
"499 498 OFFCURVE",
"453 451 OFFCURVE",
"453 362 CURVE SMOOTH",
"453 290 OFFCURVE",
"502 238 OFFCURVE",
"589 156 CURVE",
"564 204 LINE",
"482 317 OFFCURVE",
"397 389 OFFCURVE",
"297 407 CURVE",
"297 322 LINE"
);
},
{
closed = 1;
nodes = (
"272 219 LINE SMOOTH",
"272 201 OFFCURVE",
"329 172 OFFCURVE",
"352 172 CURVE SMOOTH",
"358 172 OFFCURVE",
"362 176 OFFCURVE",
"362 185 CURVE SMOOTH",
"362 501 LINE SMOOTH",
"362 555 OFFCURVE",
"446 557 OFFCURVE",
"486 620 CURVE",
"396 683 LINE",
"342 655 OFFCURVE",
"251 637 OFFCURVE",
"193 637 CURVE",
"193 600 LINE",
"239 600 LINE",
"180 660 OFFCURVE",
"147 683 OFFCURVE",
"106 683 CURVE SMOOTH",
"51 683 OFFCURVE",
"20 652 OFFCURVE",
"20 601 CURVE SMOOTH",
"20 542 OFFCURVE",
"63 502 OFFCURVE",
"141 475 CURVE",
"154 496 LINE",
"128 516 OFFCURVE",
"115 536 OFFCURVE",
"115 560 CURVE SMOOTH",
"115 582 OFFCURVE",
"127 595 OFFCURVE",
"151 595 CURVE SMOOTH",
"186 595 OFFCURVE",
"233 567 OFFCURVE",
"309 490 CURVE",
"272 564 LINE"
);
},
{
closed = 1;
nodes = (
"518 -72 LINE",
"230 125 LINE SMOOTH",
"174 163 OFFCURVE",
"147 175 OFFCURVE",
"124 175 CURVE SMOOTH",
"108 175 OFFCURVE",
"98 166 OFFCURVE",
"98 153 CURVE SMOOTH",
"98 112 OFFCURVE",
"199 27 OFFCURVE",
"275 27 CURVE SMOOTH",
"332 27 OFFCURVE",
"362 63 OFFCURVE",
"362 144 CURVE SMOOTH",
"362 185 LINE SMOOTH",
"362 203 OFFCURVE",
"305 232 OFFCURVE",
"282 232 CURVE SMOOTH",
"276 232 OFFCURVE",
"272 228 OFFCURVE",
"272 219 CURVE SMOOTH",
"272 161 LINE SMOOTH",
"272 124 OFFCURVE",
"262 116 OFFCURVE",
"237 116 CURVE",
"295 38 LINE",
"499 -101 LINE"
);
}
);
width = 760;
}
);
leftKerningGroup = nya;
rightKerningGroup = jha;
rightMetricsKey = "=30";
unicode = 11597;
script = siddham;
category = Letter;
subCategory = Other;
},
{
glyphname = "tta-sidd";
production = uni11598;
lastChange = "2019-04-05 14:14:06 +0000";
layers = (
{
anchors = (
{
name = bottom;
position = "{405, 32}";
},
{
name = top;
position = "{405, 680}";
},
{
name = topleft;
position = "{229, 680}";
}
);
layerId = "56FF8C95-10BF-4749-91E0-C1649AF59D40";
paths = (
{
closed = 1;
nodes = (
"298 541 LINE",
"168 471 OFFCURVE",
"50 407 OFFCURVE",
"50 274 CURVE SMOOTH",
"50 155 OFFCURVE",
"190 32 OFFCURVE",
"378 32 CURVE SMOOTH",
"464 32 OFFCURVE",
"554 60 OFFCURVE",
"620 104 CURVE",
"552 193 LINE",
"478 134 OFFCURVE",
"377 97 OFFCURVE",
"301 97 CURVE SMOOTH",
"201 97 OFFCURVE",
"144 152 OFFCURVE",
"144 234 CURVE SMOOTH",
"144 331 OFFCURVE",
"192 383 OFFCURVE",
"318 443 CURVE SMOOTH",
"419 491 OFFCURVE",
"522 556 OFFCURVE",
"583 620 CURVE",
"493 683 LINE",
"465 665 OFFCURVE",
"427 655 OFFCURVE",
"390 655 CURVE SMOOTH",
"342 655 OFFCURVE",
"312 676 OFFCURVE",
"272 676 CURVE SMOOTH",
"248 676 OFFCURVE",
"230 665 OFFCURVE",
"219 647 CURVE",
"203 653 OFFCURVE",
"187 661 OFFCURVE",
"174 669 CURVE",
"167 665 OFFCURVE",
"162 658 OFFCURVE",
"162 648 CURVE SMOOTH",
"162 623 OFFCURVE",
"187 592 OFFCURVE",
"319 505 CURVE"
);
},
{
closed = 1;
nodes = (
"705 325 LINE",
"605 401 OFFCURVE",
"570 448 OFFCURVE",
"570 500 CURVE SMOOTH",
"570 548 OFFCURVE",
"600 582 OFFCURVE",
"652 616 CURVE",
"561 680 LINE",
"505 641 OFFCURVE",
"479 606 OFFCURVE",
"479 551 CURVE SMOOTH",
"479 461 OFFCURVE",
"548 395 OFFCURVE",
"682 299 CURVE"
);
}
);
width = 725;
}
);
leftKerningGroup = tta;
leftMetricsKey = "=50";
rightKerningGroup = nga;
rightMetricsKey = "=20";
unicode = 11598;
script = siddham;
category = Letter;
subCategory = Other;
},
{
glyphname = "ttha-sidd";
production = uni11599;
lastChange = "2019-04-05 14:14:07 +0000";
layers = (
{
anchors = (
{
name = bottom;
position = "{321, 1}";
},
{
name = top;
position = "{321, 680}";
},
{
name = topleft;
position = "{204, 680}";
}
);
layerId = "56FF8C95-10BF-4749-91E0-C1649AF59D40";
paths = (
{
closed = 1;
nodes = (
"366 434 LINE",
"366 501 LINE SMOOTH",
"366 555 OFFCURVE",
"450 557 OFFCURVE",
"490 620 CURVE",
"400 683 LINE",
"381 665 OFFCURVE",
"355 655 OFFCURVE",
"331 655 CURVE SMOOTH",
"297 655 OFFCURVE",
"276 671 OFFCURVE",
"247 671 CURVE SMOOTH",
"223 671 OFFCURVE",
"205 660 OFFCURVE",
"194 642 CURVE",
"178 648 OFFCURVE",
"162 656 OFFCURVE",
"149 664 CURVE",
"142 660 OFFCURVE",
"137 653 OFFCURVE",
"137 643 CURVE SMOOTH",
"137 615 OFFCURVE",
"167 580 OFFCURVE",
"339 472 CURVE",
"341 641 LINE",
"290 612 OFFCURVE",
"276 591 OFFCURVE",
"276 559 CURVE SMOOTH",
"276 434 LINE"
);
},
{
closed = 1;
nodes = (
"599 359 OFFCURVE",
"455 471 OFFCURVE",
"301 471 CURVE SMOOTH",
"145 471 OFFCURVE",
"50 365 OFFCURVE",
"50 246 CURVE SMOOTH",
"50 108 OFFCURVE",
"198 1 OFFCURVE",
"350 1 CURVE SMOOTH",
"505 1 OFFCURVE",
"599 104 OFFCURVE",
"599 217 CURVE SMOOTH"
);
},
{
closed = 1;
nodes = (
"509 158 OFFCURVE",
"421 68 OFFCURVE",
"298 68 CURVE SMOOTH",
"194 68 OFFCURVE",
"140 122 OFFCURVE",
"140 202 CURVE SMOOTH",
"140 309 OFFCURVE",
"228 404 OFFCURVE",
"351 404 CURVE SMOOTH",
"455 404 OFFCURVE",
"509 346 OFFCURVE",
"509 260 CURVE SMOOTH"
);
}
);
width = 649;
}
);
leftKerningGroup = ttha;
rightKerningGroup = ttha;
unicode = 11599;
script = siddham;
category = Letter;
subCategory = Other;
},
{
glyphname = "dda-sidd";
production = uni1159A;
lastChange = "2019-04-05 14:14:07 +0000";
layers = (
{
anchors = (
{
name = _bottom;
position = "{323, 625}";
},
{
name = bottom;
position = "{323, -40}";
},
{
name = top;
position = "{323, 680}";
},
{
name = topleft;
position = "{183, 680}";
}
);
layerId = "56FF8C95-10BF-4749-91E0-C1649AF59D40";
paths = (
{
closed = 1;
nodes = (
"325 554 LINE",
"227 478 OFFCURVE",
"132 422 OFFCURVE",
"20 368 CURVE",
"110 305 LINE",
"262 369 OFFCURVE",
"468 516 OFFCURVE",
"563 620 CURVE",
"473 683 LINE",
"439 658 OFFCURVE",
"394 645 OFFCURVE",
"350 645 CURVE SMOOTH",
"302 645 OFFCURVE",
"272 666 OFFCURVE",
"232 666 CURVE SMOOTH",
"208 666 OFFCURVE",
"190 655 OFFCURVE",
"179 637 CURVE",
"163 643 OFFCURVE",
"147 651 OFFCURVE",
"134 659 CURVE",
"127 655 OFFCURVE",
"122 648 OFFCURVE",
"122 638 CURVE SMOOTH",
"122 610 OFFCURVE",
"152 575 OFFCURVE",
"324 467 CURVE"
);
},
{
closed = 1;
nodes = (
"368 572 LINE",
"278 572 LINE",
"278 290 LINE SMOOTH",
"278 272 OFFCURVE",
"335 243 OFFCURVE",
"358 243 CURVE SMOOTH",
"364 243 OFFCURVE",
"368 247 OFFCURVE",
"368 256 CURVE SMOOTH"
);
},
{
closed = 1;
nodes = (
"524 -61 LINE",
"236 136 LINE SMOOTH",
"180 174 OFFCURVE",
"153 186 OFFCURVE",
"130 186 CURVE SMOOTH",
"114 186 OFFCURVE",
"104 177 OFFCURVE",
"104 164 CURVE SMOOTH",
"104 123 OFFCURVE",
"205 38 OFFCURVE",
"281 38 CURVE SMOOTH",
"338 38 OFFCURVE",
"368 74 OFFCURVE",
"368 155 CURVE SMOOTH",
"368 256 LINE SMOOTH",
"368 274 OFFCURVE",
"311 303 OFFCURVE",
"288 303 CURVE SMOOTH",
"282 303 OFFCURVE",
"278 299 OFFCURVE",
"278 290 CURVE SMOOTH",
"278 172 LINE SMOOTH",
"278 135 OFFCURVE",
"268 127 OFFCURVE",
"243 127 CURVE",
"301 49 LINE",
"505 -90 LINE"
);
}
);
width = 583;
}
);
leftKerningGroup = dda;
leftMetricsKey = "=20";
rightKerningGroup = ca;
rightMetricsKey = "=20";
unicode = 1159A;
script = siddham;
category = Letter;
subCategory = Other;
},
{
glyphname = "ddha-sidd";
production = uni1159B;
lastChange = "2019-04-05 14:14:07 +0000";
layers = (
{
anchors = (
{
name = bottom;
position = "{334, -11}";
},
{
name = top;
position = "{334, 680}";
},
{
name = topleft;
position = "{184, 680}";
}
);
layerId = "56FF8C95-10BF-4749-91E0-C1649AF59D40";
paths = (
{
closed = 1;
nodes = (
"332 208 LINE",
"286 279 OFFCURVE",
"231 332 OFFCURVE",
"159 332 CURVE",
"99 257 LINE",
"117 265 OFFCURVE",
"137 269 OFFCURVE",
"156 269 CURVE SMOOTH",
"216 269 OFFCURVE",
"278 232 OFFCURVE",
"324 165 CURVE"
);
},
{
closed = 1;
nodes = (
"387 -5 LINE",
"382 31 OFFCURVE",
"379 67 OFFCURVE",
"379 103 CURVE SMOOTH",
"379 251 OFFCURVE",
"442 335 OFFCURVE",
"533 335 CURVE SMOOTH",
"584 335 OFFCURVE",
"608 304 OFFCURVE",
"608 260 CURVE SMOOTH",
"608 199 OFFCURVE",
"559 154 OFFCURVE",
"497 154 CURVE SMOOTH",
"483 154 OFFCURVE",
"467 157 OFFCURVE",
"455 163 CURVE",
"433 140 LINE",
"455 103 OFFCURVE",
"502 71 OFFCURVE",
"557 71 CURVE SMOOTH",
"640 71 OFFCURVE",
"698 126 OFFCURVE",
"698 200 CURVE SMOOTH",
"698 284 OFFCURVE",
"607 397 OFFCURVE",
"473 397 CURVE SMOOTH",
"358 397 OFFCURVE",
"289 309 OFFCURVE",
"289 156 CURVE SMOOTH",
"289 118 OFFCURVE",
"292 80 OFFCURVE",
"297 42 CURVE",
"372 -11 LINE"
);
},
{
closed = 1;
nodes = (
"117 610 OFFCURVE",
"147 575 OFFCURVE",
"319 467 CURVE",
"320 554 LINE",
"224 460 OFFCURVE",
"131 392 OFFCURVE",
"20 327 CURVE",
"20 301 LINE",
"99 257 LINE",
"253 336 OFFCURVE",
"462 502 OFFCURVE",
"558 620 CURVE",
"468 683 LINE",
"434 658 OFFCURVE",
"389 645 OFFCURVE",
"345 645 CURVE SMOOTH",
"297 645 OFFCURVE",
"267 666 OFFCURVE",
"227 666 CURVE SMOOTH",
"203 666 OFFCURVE",
"185 655 OFFCURVE",
"174 637 CURVE",
"158 643 OFFCURVE",
"142 651 OFFCURVE",
"129 659 CURVE",
"122 655 OFFCURVE",
"117 648 OFFCURVE",
"117 638 CURVE SMOOTH"
);
}
);
width = 738;
}
);
leftKerningGroup = da;
rightKerningGroup = ddha;
unicode = 1159B;
script = siddham;
category = Letter;
subCategory = Other;
},
{
glyphname = "nna-sidd";
production = uni1159C;
lastChange = "2019-04-05 14:14:07 +0000";
layers = (
{
anchors = (
{
name = bottom;
position = "{393, -11}";
},
{
name = top;
position = "{393, 680}";
},
{
name = topleft;
position = "{162, 680}";
}
);
layerId = "56FF8C95-10BF-4749-91E0-C1649AF59D40";
paths = (
{
closed = 1;
nodes = (
"438 494 OFFCURVE",
"415 540 OFFCURVE",
"356 590 CURVE SMOOTH",
"310 629 OFFCURVE",
"274 645 OFFCURVE",
"233 645 CURVE SMOOTH",
"128 645 OFFCURVE",
"70 560 OFFCURVE",
"70 416 CURVE SMOOTH",
"70 92 LINE",
"145 39 LINE",
"160 45 LINE",
"160 382 LINE SMOOTH",
"160 501 OFFCURVE",
"210 572 OFFCURVE",
"283 572 CURVE SMOOTH",
"321 572 OFFCURVE",
"348 545 OFFCURVE",
"348 499 CURVE SMOOTH",
"348 42 LINE",
"423 -11 LINE",
"438 -5 LINE",
"438 446 LINE SMOOTH"
);
},
{
closed = 1;
nodes = (
"716 496 LINE SMOOTH",
"716 544 OFFCURVE",
"693 590 OFFCURVE",
"634 640 CURVE SMOOTH",
"588 679 OFFCURVE",
"552 695 OFFCURVE",
"511 695 CURVE SMOOTH",
"406 695 OFFCURVE",
"348 610 OFFCURVE",
"348 466 CURVE",
"438 432 LINE",
"438 551 OFFCURVE",
"488 622 OFFCURVE",
"561 622 CURVE SMOOTH",
"599 622 OFFCURVE",
"626 595 OFFCURVE",
"626 549 CURVE SMOOTH",
"626 221 LINE SMOOTH",
"626 110 OFFCURVE",
"691 20 OFFCURVE",
"819 -88 CURVE",
"842 -62 LINE",
"750 29 OFFCURVE",
"716 102 OFFCURVE",
"716 171 CURVE SMOOTH"
);
}
);
width = 862;
}
);
leftKerningGroup = nna;
rightKerningGroup = nna;
unicode = 1159C;
script = siddham;
category = Letter;
subCategory = Other;
},
{
glyphname = "ta-sidd";
production = uni1159D;
lastChange = "2019-04-05 14:14:07 +0000";
layers = (
{
anchors = (
{
name = bottom;
position = "{294, -80}";
},
{
name = top;
position = "{294, 680}";
},
{
name = topleft;
position = "{183, 680}";
}
);
layerId = "56FF8C95-10BF-4749-91E0-C1649AF59D40";
paths = (
{
closed = 1;
nodes = (
"399 -73 LINE",
"328 -8 OFFCURVE",
"315 10 OFFCURVE",
"315 42 CURVE SMOOTH",
"315 132 OFFCURVE",
"451 226 OFFCURVE",
"451 315 CURVE SMOOTH",
"451 360 OFFCURVE",
"416 413 OFFCURVE",
"328 473 CURVE",
"295 451 LINE",
"341 421 OFFCURVE",
"357 397 OFFCURVE",
"357 372 CURVE SMOOTH",
"357 297 OFFCURVE",
"225 194 OFFCURVE",
"225 93 CURVE SMOOTH",
"225 27 OFFCURVE",
"285 -29 OFFCURVE",
"376 -99 CURVE"
);
},
{
closed = 1;
nodes = (
"116 610 OFFCURVE",
"146 575 OFFCURVE",
"318 467 CURVE",
"319 554 LINE",
"223 478 OFFCURVE",
"130 422 OFFCURVE",
"20 368 CURVE",
"110 305 LINE",
"260 369 OFFCURVE",
"463 516 OFFCURVE",
"557 620 CURVE",
"467 683 LINE",
"433 658 OFFCURVE",
"388 645 OFFCURVE",
"344 645 CURVE SMOOTH",
"296 645 OFFCURVE",
"266 666 OFFCURVE",
"226 666 CURVE SMOOTH",
"202 666 OFFCURVE",
"184 655 OFFCURVE",
"173 637 CURVE",
"157 643 OFFCURVE",
"141 651 OFFCURVE",
"128 659 CURVE",
"121 655 OFFCURVE",
"116 648 OFFCURVE",
"116 638 CURVE SMOOTH"
);
}
);
width = 577;
}
);
leftKerningGroup = dda;
rightKerningGroup = ca;
unicode = 1159D;
script = siddham;
category = Letter;
subCategory = Other;
},
{
glyphname = "tha-sidd";
production = uni1159E;
lastChange = "2019-04-05 14:14:07 +0000";
layers = (
{
anchors = (
{
name = bottom;
position = "{252, -107}";
},
{
name = top;
position = "{252, 680}";
},
{
name = topleft;
position = "{190, 680}";
}
);
layerId = "56FF8C95-10BF-4749-91E0-C1649AF59D40";
paths = (
{
closed = 1;
nodes = (
"365 271 OFFCURVE",
"383 274 OFFCURVE",
"398 279 CURVE",
"351 435 LINE",
"351 375 OFFCURVE",
"296 345 OFFCURVE",
"239 345 CURVE SMOOTH",
"184 345 OFFCURVE",
"156 370 OFFCURVE",
"156 401 CURVE SMOOTH",
"156 475 OFFCURVE",
"234 534 OFFCURVE",
"442 617 CURVE",
"352 680 LINE",
"163 607 OFFCURVE",
"70 536 OFFCURVE",
"70 462 CURVE SMOOTH",
"70 362 OFFCURVE",
"190 271 OFFCURVE",
"349 271 CURVE SMOOTH"
);
},
{
closed = 1;
nodes = (
"355 -19 OFFCURVE",
"373 -16 OFFCURVE",
"388 -11 CURVE",
"351 145 LINE",
"351 85 OFFCURVE",
"296 55 OFFCURVE",
"239 55 CURVE SMOOTH",
"170 55 OFFCURVE",
"136 85 OFFCURVE",
"136 121 CURVE SMOOTH",
"136 169 OFFCURVE",
"187 211 OFFCURVE",
"326 274 CURVE",
"236 337 LINE",
"111 285 OFFCURVE",
"50 234 OFFCURVE",
"50 172 CURVE SMOOTH",
"50 82 OFFCURVE",
"175 -19 OFFCURVE",
"339 -19 CURVE SMOOTH"
);
},
{
closed = 1;
nodes = (
"473 -131 LINE",
"427 -94 OFFCURVE",
"411 -61 OFFCURVE",
"411 12 CURVE SMOOTH",
"411 526 LINE SMOOTH",
"411 569 OFFCURVE",
"418 590 OFFCURVE",
"442 617 CURVE",
"352 680 LINE",
"330 657 OFFCURVE",
"321 634 OFFCURVE",
"321 586 CURVE SMOOTH",
"321 20 LINE SMOOTH",
"321 -46 OFFCURVE",
"351 -89 OFFCURVE",
"450 -157 CURVE"
);
}
);
width = 513;
}
);
leftMetricsKey = "=50";
rightKerningGroup = gha;
rightMetricsKey = "pa-sidd";
unicode = 1159E;
script = siddham;
category = Letter;
subCategory = Other;
},
{
glyphname = "da-sidd";
production = uni1159F;
lastChange = "2019-04-05 14:14:07 +0000";
layers = (
{
anchors = (
{
name = bottom;
position = "{307, 0}";
},
{
name = top;
position = "{307, 680}";
},
{
name = topleft;
position = "{184, 680}";
}
);
layerId = "56FF8C95-10BF-4749-91E0-C1649AF59D40";
paths = (
{
closed = 1;
nodes = (
"373 332 OFFCURVE",
"289 267 OFFCURVE",
"289 176 CURVE SMOOTH",
"289 79 OFFCURVE",
"352 -3 OFFCURVE",
"477 -107 CURVE",
"503 -84 LINE",
"414 -2 OFFCURVE",
"379 56 OFFCURVE",
"379 123 CURVE SMOOTH",
"379 209 OFFCURVE",
"452 263 OFFCURVE",
"593 335 CURVE",
"503 397 LINE"
);
},
{
closed = 1;
nodes = (
"117 610 OFFCURVE",
"147 575 OFFCURVE",
"319 467 CURVE",
"320 554 LINE",
"224 481 OFFCURVE",
"131 428 OFFCURVE",
"20 377 CURVE",
"20 351 LINE",
"104 312 OFFCURVE",
"236 218 OFFCURVE",
"334 125 CURVE",
"334 168 LINE",
"289 227 OFFCURVE",
"191 315 OFFCURVE",
"106 376 CURVE",
"110 314 LINE",
"260 381 OFFCURVE",
"464 521 OFFCURVE",
"558 620 CURVE",
"468 683 LINE",
"434 658 OFFCURVE",
"389 645 OFFCURVE",
"345 645 CURVE SMOOTH",
"297 645 OFFCURVE",
"267 666 OFFCURVE",
"227 666 CURVE SMOOTH",
"203 666 OFFCURVE",
"185 655 OFFCURVE",
"174 637 CURVE",
"158 643 OFFCURVE",
"142 651 OFFCURVE",
"129 659 CURVE",
"122 655 OFFCURVE",
"117 648 OFFCURVE",
"117 638 CURVE SMOOTH"
);
}
);
width = 613;
}
);
leftKerningGroup = da;
leftMetricsKey = "=20";
rightKerningGroup = da;
rightMetricsKey = "=20";
unicode = 1159F;
script = siddham;
category = Letter;
subCategory = Other;
},
{
glyphname = "dha-sidd";
production = uni115A0;
lastChange = "2019-04-05 14:14:08 +0000";
layers = (
{
anchors = (
{
name = bottom;
position = "{317, -110}";
},
{
name = top;
position = "{317, 680}";
},
{
name = topleft;
position = "{225, 650}";
}
);
layerId = "56FF8C95-10BF-4749-91E0-C1649AF59D40";
paths = (
{
closed = 1;
nodes = (
"380 91 OFFCURVE",
"398 94 OFFCURVE",
"413 99 CURVE",
"386 259 LINE",
"386 199 OFFCURVE",
"331 169 OFFCURVE",
"274 169 CURVE SMOOTH",
"179 169 OFFCURVE",
"131 223 OFFCURVE",
"131 291 CURVE SMOOTH",
"131 402 OFFCURVE",
"234 491 OFFCURVE",
"507 617 CURVE",
"417 680 LINE",
"167 571 OFFCURVE",
"45 461 OFFCURVE",
"45 350 CURVE SMOOTH",
"45 221 OFFCURVE",
"189 91 OFFCURVE",
"364 91 CURVE SMOOTH"
);
},
{
closed = 1;
nodes = (
"476 526 LINE SMOOTH",
"476 569 OFFCURVE",
"483 590 OFFCURVE",
"507 617 CURVE",
"417 680 LINE",
"395 657 OFFCURVE",
"386 634 OFFCURVE",
"386 586 CURVE SMOOTH",
"386 88 LINE SMOOTH",
"386 70 OFFCURVE",
"443 41 OFFCURVE",
"466 41 CURVE SMOOTH",
"472 41 OFFCURVE",
"476 45 OFFCURVE",
"476 54 CURVE SMOOTH"
);
},
{
closed = 1;
nodes = (
"538 -84 LINE",
"492 -47 OFFCURVE",
"476 -13 OFFCURVE",
"476 71 CURVE SMOOTH",
"476 80 LINE SMOOTH",
"476 95 OFFCURVE",
"429 101 OFFCURVE",
"407 101 CURVE SMOOTH",
"390 101 OFFCURVE",
"386 97 OFFCURVE",
"386 88 CURVE SMOOTH",
"386 79 LINE SMOOTH",
"386 7 OFFCURVE",
"416 -42 OFFCURVE",
"515 -110 CURVE"
);
}
);
width = 578;
}
);
leftMetricsKey = "=45";
rightKerningGroup = gha;
rightMetricsKey = "pa-sidd";
unicode = 115A0;
script = siddham;
category = Letter;
subCategory = Other;
},
{
glyphname = "na-sidd";
production = uni115A1;
lastChange = "2019-04-05 14:14:08 +0000";
layers = (
{
anchors = (
{
name = bottom;
position = "{390, -108}";
},
{
name = top;
position = "{390, 680}";
},
{
name = topleft;
position = "{250, 680}";
}
);
layerId = "56FF8C95-10BF-4749-91E0-C1649AF59D40";
paths = (
{
closed = 1;
nodes = (
"147 208 OFFCURVE",
"159 257 OFFCURVE",
"159 309 CURVE SMOOTH",
"159 382 OFFCURVE",
"127 448 OFFCURVE",
"72 513 CURVE",
"45 494 LINE",
"59 463 OFFCURVE",
"69 416 OFFCURVE",
"69 370 CURVE SMOOTH",
"69 318 OFFCURVE",
"56 273 OFFCURVE",
"30 225 CURVE",
"120 165 LINE"
);
},
{
closed = 1;
nodes = (
"183 610 OFFCURVE",
"213 575 OFFCURVE",
"385 467 CURVE",
"346 530 LINE",
"315 417 OFFCURVE",
"246 355 OFFCURVE",
"178 355 CURVE SMOOTH",
"159 355 OFFCURVE",
"141 360 OFFCURVE",
"126 369 CURVE",
"100 346 LINE",
"146 303 OFFCURVE",
"185 282 OFFCURVE",
"233 282 CURVE SMOOTH",
"307 282 OFFCURVE",
"368 331 OFFCURVE",
"408 415 CURVE",
"429 474 LINE",
"489 502 OFFCURVE",
"565 554 OFFCURVE",
"630 620 CURVE",
"540 683 LINE",
"504 658 OFFCURVE",
"457 645 OFFCURVE",
"411 645 CURVE SMOOTH",
"363 645 OFFCURVE",
"333 666 OFFCURVE",
"293 666 CURVE SMOOTH",
"269 666 OFFCURVE",
"251 655 OFFCURVE",
"240 637 CURVE",
"224 643 OFFCURVE",
"208 651 OFFCURVE",
"195 659 CURVE",
"188 655 OFFCURVE",
"183 648 OFFCURVE",
"183 638 CURVE SMOOTH"
);
},
{
closed = 1;
nodes = (
"435 502 LINE",
"345 472 LINE",
"345 160 LINE SMOOTH",
"345 142 OFFCURVE",
"402 113 OFFCURVE",
"425 113 CURVE SMOOTH",
"431 113 OFFCURVE",
"435 117 OFFCURVE",
"435 126 CURVE SMOOTH"
);
},
{
closed = 1;
nodes = (
"497 -82 LINE",
"451 -45 OFFCURVE",
"435 -11 OFFCURVE",
"435 122 CURVE SMOOTH",
"435 152 LINE SMOOTH",
"435 167 OFFCURVE",
"388 173 OFFCURVE",
"366 173 CURVE SMOOTH",
"349 173 OFFCURVE",
"345 169 OFFCURVE",
"345 160 CURVE SMOOTH",
"345 130 LINE SMOOTH",
"345 9 OFFCURVE",
"375 -40 OFFCURVE",
"474 -108 CURVE"
);
}
);
width = 650;
}
);
leftKerningGroup = na;
leftMetricsKey = "=30";
rightKerningGroup = ca;
rightMetricsKey = "=20";
unicode = 115A1;
script = siddham;
category = Letter;
subCategory = Other;
},
{
glyphname = "pa-sidd";
production = uni115A2;
lastChange = "2019-04-05 14:14:08 +0000";
layers = (
{
anchors = (
{
name = bottom;
position = "{348, 0}";
},
{
name = top;
position = "{348, 680}";
},
{
name = topleft;
position = "{77, 680}";
}
);
layerId = "56FF8C95-10BF-4749-91E0-C1649AF59D40";
paths = (
{
closed = 1;
nodes = (
"655 -81 LINE",
"609 -44 OFFCURVE",
"593 -11 OFFCURVE",
"593 122 CURVE SMOOTH",
"593 526 LINE SMOOTH",
"593 569 OFFCURVE",
"600 590 OFFCURVE",
"624 617 CURVE",
"534 680 LINE",
"512 657 OFFCURVE",
"503 634 OFFCURVE",
"503 586 CURVE SMOOTH",
"503 130 LINE SMOOTH",
"503 4 OFFCURVE",
"533 -39 OFFCURVE",
"632 -107 CURVE"
);
},
{
closed = 1;
nodes = (
"10 615 OFFCURVE",
"40 580 OFFCURVE",
"212 472 CURVE",
"212 643 LINE",
"161 614 OFFCURVE",
"147 593 OFFCURVE",
"147 561 CURVE SMOOTH",
"147 425 LINE SMOOTH",
"147 291 OFFCURVE",
"271 183 OFFCURVE",
"425 183 CURVE SMOOTH",
"457 183 OFFCURVE",
"493 189 OFFCURVE",
"525 200 CURVE",
"508 316 LINE",
"455 273 OFFCURVE",
"397 254 OFFCURVE",
"343 254 CURVE SMOOTH",
"273 254 OFFCURVE",
"237 287 OFFCURVE",
"237 362 CURVE SMOOTH",
"237 481 LINE SMOOTH",
"237 535 OFFCURVE",
"321 557 OFFCURVE",
"361 620 CURVE",
"271 683 LINE",
"252 665 OFFCURVE",
"227 655 OFFCURVE",
"203 655 CURVE SMOOTH",
"169 655 OFFCURVE",
"148 671 OFFCURVE",
"120 671 CURVE SMOOTH",
"96 671 OFFCURVE",
"78 660 OFFCURVE",
"67 642 CURVE",
"51 648 OFFCURVE",
"35 656 OFFCURVE",
"22 664 CURVE",
"15 660 OFFCURVE",
"10 653 OFFCURVE",
"10 643 CURVE SMOOTH"
);
}
);
width = 695;
}
);
leftKerningGroup = pa;
leftMetricsKey = "=10";
rightKerningGroup = gha;
rightMetricsKey = "=40";
unicode = 115A2;
script = siddham;
category = Letter;
subCategory = Other;
},
{
glyphname = "pha-sidd";
production = uni115A3;
lastChange = "2019-04-05 14:14:08 +0000";
layers = (
{
anchors = (
{
name = bottom;
position = "{295, 15}";
},
{
name = top;
position = "{295, 680}";
},
{
name = topleft;
position = "{155, 680}";
}
);
layerId = "56FF8C95-10BF-4749-91E0-C1649AF59D40";
paths = (
{
closed = 1;
nodes = (
"88 610 OFFCURVE",
"118 575 OFFCURVE",
"290 467 CURVE",
"298 573 LINE",
"153 483 OFFCURVE",
"40 430 OFFCURVE",
"40 341 CURVE SMOOTH",
"40 266 OFFCURVE",
"119 192 OFFCURVE",
"258 107 CURVE",
"278 142 LINE",
"177 204 OFFCURVE",
"130 250 OFFCURVE",
"130 293 CURVE SMOOTH",
"130 409 OFFCURVE",
"482 519 OFFCURVE",
"529 620 CURVE",
"439 683 LINE",
"405 658 OFFCURVE",
"360 645 OFFCURVE",
"316 645 CURVE SMOOTH",
"268 645 OFFCURVE",
"238 666 OFFCURVE",
"198 666 CURVE SMOOTH",
"174 666 OFFCURVE",
"156 655 OFFCURVE",
"145 637 CURVE",
"129 643 OFFCURVE",
"113 651 OFFCURVE",
"100 659 CURVE",
"93 655 OFFCURVE",
"88 648 OFFCURVE",
"88 638 CURVE SMOOTH"
);
},
{
closed = 1;
nodes = (
"250 93 LINE SMOOTH",
"250 75 OFFCURVE",
"307 46 OFFCURVE",
"330 46 CURVE SMOOTH",
"336 46 OFFCURVE",
"340 50 OFFCURVE",
"340 59 CURVE SMOOTH",
"340 125 LINE SMOOTH",
"340 250 OFFCURVE",
"389 322 OFFCURVE",
"484 322 CURVE SMOOTH",
"545 322 OFFCURVE",
"576 284 OFFCURVE",
"576 234 CURVE SMOOTH",
"576 181 OFFCURVE",
"538 144 OFFCURVE",
"482 144 CURVE SMOOTH",
"464 144 OFFCURVE",
"447 148 OFFCURVE",
"433 155 CURVE",
"421 137 LINE",
"453 95 OFFCURVE",
"490 66 OFFCURVE",
"543 66 CURVE SMOOTH",
"613 66 OFFCURVE",
"662 112 OFFCURVE",
"662 180 CURVE SMOOTH",
"662 286 OFFCURVE",
"534 389 OFFCURVE",
"424 389 CURVE SMOOTH",
"318 389 OFFCURVE",
"250 313 OFFCURVE",
"250 196 CURVE SMOOTH"
);
},
{
closed = 1;
nodes = (
"340 34 OFFCURVE",
"340 46 OFFCURVE",
"340 59 CURVE SMOOTH",
"340 77 OFFCURVE",
"283 106 OFFCURVE",
"260 106 CURVE SMOOTH",
"254 106 OFFCURVE",
"250 102 OFFCURVE",
"250 93 CURVE SMOOTH",
"250 85 OFFCURVE",
"250 76 OFFCURVE",
"250 68 CURVE",
"325 15 LINE",
"340 21 LINE"
);
}
);
width = 702;
}
);
leftKerningGroup = pha;
leftMetricsKey = "=40";
rightKerningGroup = pha;
rightMetricsKey = "=40";
unicode = 115A3;
script = siddham;
category = Letter;
subCategory = Other;
},
{
glyphname = "ba-sidd";
production = uni115A4;
lastChange = "2019-04-05 14:14:08 +0000";
layers = (
{
anchors = (
{
name = _bottom;
position = "{344, 635}";
},
{
name = bottom;
position = "{344, -110}";
},
{
name = top;
position = "{344, 680}";
},
{
name = topleft;
position = "{212, 680}";
}
);
layerId = "56FF8C95-10BF-4749-91E0-C1649AF59D40";
paths = (
{
closed = 1;
nodes = (
"145 610 OFFCURVE",
"175 575 OFFCURVE",
"347 467 CURVE",
"343 552 LINE",
"205 466 OFFCURVE",
"40 405 OFFCURVE",
"40 310 CURVE SMOOTH",
"40 201 OFFCURVE",
"200 61 OFFCURVE",
"313 61 CURVE",
"346 89 LINE",
"299 249 LINE",
"299 189 OFFCURVE",
"259 159 OFFCURVE",
"217 159 CURVE SMOOTH",
"159 159 OFFCURVE",
"126 192 OFFCURVE",
"126 241 CURVE SMOOTH",
"126 370 OFFCURVE",
"430 440 OFFCURVE",
"584 620 CURVE",
"494 683 LINE",
"460 658 OFFCURVE",
"415 645 OFFCURVE",
"371 645 CURVE SMOOTH",
"324 645 OFFCURVE",
"294 666 OFFCURVE",
"255 666 CURVE SMOOTH",
"231 666 OFFCURVE",
"213 655 OFFCURVE",
"202 637 CURVE",
"186 643 OFFCURVE",
"170 651 OFFCURVE",
"157 659 CURVE",
"150 655 OFFCURVE",
"145 648 OFFCURVE",
"145 638 CURVE SMOOTH"
);
},
{
closed = 1;
nodes = (
"389 487 LINE",
"299 487 LINE",
"299 58 LINE SMOOTH",
"299 40 OFFCURVE",
"356 11 OFFCURVE",
"379 11 CURVE SMOOTH",
"385 11 OFFCURVE",
"389 15 OFFCURVE",
"389 24 CURVE SMOOTH"
);
},
{
closed = 1;
nodes = (
"451 -84 LINE",
"405 -47 OFFCURVE",
"389 -13 OFFCURVE",
"389 50 CURVE SMOOTH",
"389 50 LINE SMOOTH",
"389 65 OFFCURVE",
"342 71 OFFCURVE",
"320 71 CURVE SMOOTH",
"303 71 OFFCURVE",
"299 67 OFFCURVE",
"299 58 CURVE SMOOTH",
"299 58 LINE SMOOTH",
"299 7 OFFCURVE",
"329 -42 OFFCURVE",
"428 -110 CURVE"
);
}
);
width = 604;
}
);
leftKerningGroup = ba;
leftMetricsKey = "=40";
rightKerningGroup = ca;
rightMetricsKey = "=20";
unicode = 115A4;
script = siddham;
category = Letter;
subCategory = Other;
},
{
glyphname = "bha-sidd";
production = uni115A5;
lastChange = "2019-04-05 14:14:08 +0000";
layers = (
{
anchors = (
{
name = bottom;
position = "{294, 0}";
},
{
name = top;
position = "{294, 680}";
},
{
name = topleft;
position = "{188, 680}";
}
);
layerId = "56FF8C95-10BF-4749-91E0-C1649AF59D40";
paths = (
{
closed = 1;
nodes = (
"121 610 OFFCURVE",
"151 575 OFFCURVE",
"323 467 CURVE",
"327 542 LINE",
"270 472 OFFCURVE",
"205 438 OFFCURVE",
"144 438 CURVE SMOOTH",
"109 438 OFFCURVE",
"82 454 OFFCURVE",
"36 498 CURVE",
"10 475 LINE",
"78 402 OFFCURVE",
"137 365 OFFCURVE",
"209 365 CURVE SMOOTH",
"326 365 OFFCURVE",
"437 461 OFFCURVE",
"552 620 CURVE",
"462 683 LINE",
"431 658 OFFCURVE",
"389 645 OFFCURVE",
"349 645 CURVE SMOOTH",
"301 645 OFFCURVE",
"271 666 OFFCURVE",
"231 666 CURVE SMOOTH",
"207 666 OFFCURVE",
"189 655 OFFCURVE",
"178 637 CURVE",
"162 643 OFFCURVE",
"146 651 OFFCURVE",
"133 659 CURVE",
"126 655 OFFCURVE",
"121 648 OFFCURVE",
"121 638 CURVE SMOOTH"
);
},
{
closed = 1;
nodes = (
"351 40 OFFCURVE",
"419 -22 OFFCURVE",
"522 -99 CURVE",
"545 -73 LINE",
"457 3 OFFCURVE",
"441 24 OFFCURVE",
"441 62 CURVE SMOOTH",
"441 133 OFFCURVE",
"487 210 OFFCURVE",
"487 285 CURVE SMOOTH",
"487 365 OFFCURVE",
"373 460 OFFCURVE",
"281 460 CURVE SMOOTH",
"228 460 OFFCURVE",
"177 397 OFFCURVE",
"147 222 CURVE",
"237 159 LINE",
"266 318 OFFCURVE",
"302 391 OFFCURVE",
"348 391 CURVE SMOOTH",
"379 391 OFFCURVE",
"397 372 OFFCURVE",
"397 342 CURVE SMOOTH",
"397 280 OFFCURVE",
"351 196 OFFCURVE",
"351 113 CURVE SMOOTH"
);
}
);
width = 572;
}
);
leftKerningGroup = bha;
leftMetricsKey = "=10";
rightKerningGroup = ca;
rightMetricsKey = "=20";
unicode = 115A5;
script = siddham;
category = Letter;
subCategory = Other;
},
{
glyphname = "ma-sidd";
production = uni115A6;
lastChange = "2019-04-05 14:14:08 +0000";
layers = (
{
anchors = (
{
name = bottom;
position = "{318, 54}";
},
{
name = top;
position = "{318, 680}";
},
{
name = topleft;
position = "{133, 680}";
}
);
layerId = "56FF8C95-10BF-4749-91E0-C1649AF59D40";
paths = (
{
closed = 1;
nodes = (
"493 206 LINE",
"389 291 OFFCURVE",
"249 361 OFFCURVE",
"117 361 CURVE SMOOTH",
"58 361 OFFCURVE",
"33 351 OFFCURVE",
"33 329 CURVE SMOOTH",
"33 291 OFFCURVE",
"102 228 OFFCURVE",
"160 228 CURVE SMOOTH",
"263 228 OFFCURVE",
"357 316 OFFCURVE",
"357 382 CURVE SMOOTH",
"357 430 OFFCURVE",
"307 465 OFFCURVE",
"307 496 CURVE SMOOTH",
"307 535 OFFCURVE",
"402 580 OFFCURVE",
"427 620 CURVE",
"337 683 LINE",
"314 665 OFFCURVE",
"284 655 OFFCURVE",
"254 655 CURVE SMOOTH",
"214 655 OFFCURVE",
"189 671 OFFCURVE",
"156 671 CURVE SMOOTH",
"124 671 OFFCURVE",
"104 650 OFFCURVE",
"104 621 CURVE SMOOTH",
"104 540 OFFCURVE",
"267 508 OFFCURVE",
"267 434 CURVE SMOOTH",
"267 381 OFFCURVE",
"195 319 OFFCURVE",
"63 319 CURVE",
"197 272 LINE",
"288 272 OFFCURVE",
"397 228 OFFCURVE",
"483 168 CURVE"
);
},
{
closed = 1;
nodes = (
"565 116 OFFCURVE",
"569 120 OFFCURVE",
"569 129 CURVE SMOOTH",
"569 526 LINE SMOOTH",
"569 569 OFFCURVE",
"576 590 OFFCURVE",
"600 617 CURVE",
"510 680 LINE",
"488 657 OFFCURVE",
"479 634 OFFCURVE",
"479 586 CURVE SMOOTH",
"479 163 LINE SMOOTH",
"479 145 OFFCURVE",
"536 116 OFFCURVE",
"559 116 CURVE SMOOTH"
);
},
{
closed = 1;
nodes = (
"631 -39 LINE",
"585 -2 OFFCURVE",
"569 32 OFFCURVE",
"569 137 CURVE SMOOTH",
"569 155 LINE SMOOTH",
"569 170 OFFCURVE",
"522 176 OFFCURVE",
"500 176 CURVE SMOOTH",
"483 176 OFFCURVE",
"479 172 OFFCURVE",
"479 163 CURVE SMOOTH",
"479 145 LINE SMOOTH",
"479 52 OFFCURVE",
"509 3 OFFCURVE",
"608 -65 CURVE"
);
}
);
width = 671;
}
);
leftKerningGroup = ma;
leftMetricsKey = "=33";
rightKerningGroup = gha;
rightMetricsKey = "pa-sidd";
unicode = 115A6;
script = siddham;
category = Letter;
subCategory = Other;
},
{
glyphname = "ya-sidd";
production = uni115A7;
lastChange = "2019-04-05 14:14:09 +0000";
layers = (
{
anchors = (
{
name = bottom;
position = "{327, -52}";
},
{
name = top;
position = "{327, 680}";
},
{
name = topleft;
position = "{119, 680}";
}
);
layerId = "56FF8C95-10BF-4749-91E0-C1649AF59D40";
paths = (
{
closed = 1;
nodes = (
"376 129 OFFCURVE",
"448 144 OFFCURVE",
"509 169 CURVE",
"492 285 LINE",
"415 228 OFFCURVE",
"330 202 OFFCURVE",
"251 202 CURVE SMOOTH",
"164 202 OFFCURVE",
"131 232 OFFCURVE",
"131 276 CURVE SMOOTH",
"131 320 OFFCURVE",
"166 343 OFFCURVE",
"237 343 CURVE SMOOTH",
"252 343 OFFCURVE",
"267 342 OFFCURVE",
"280 339 CURVE",
"280 481 LINE SMOOTH",
"280 535 OFFCURVE",
"364 557 OFFCURVE",
"404 620 CURVE",
"314 683 LINE",
"295 665 OFFCURVE",
"270 655 OFFCURVE",
"246 655 CURVE SMOOTH",
"212 655 OFFCURVE",
"191 671 OFFCURVE",
"163 671 CURVE SMOOTH",
"139 671 OFFCURVE",
"121 660 OFFCURVE",
"110 642 CURVE",
"94 648 OFFCURVE",
"78 656 OFFCURVE",
"65 664 CURVE",
"58 660 OFFCURVE",
"53 653 OFFCURVE",
"53 643 CURVE SMOOTH",
"53 615 OFFCURVE",
"83 580 OFFCURVE",
"255 472 CURVE",
"255 643 LINE",
"204 614 OFFCURVE",
"190 593 OFFCURVE",
"190 561 CURVE SMOOTH",
"190 361 LINE",
"211 412 LINE",
"194 416 OFFCURVE",
"176 418 OFFCURVE",
"156 418 CURVE SMOOTH",
"83 418 OFFCURVE",
"40 392 OFFCURVE",
"40 335 CURVE SMOOTH",
"40 234 OFFCURVE",
"174 129 OFFCURVE",
"313 129 CURVE SMOOTH"
);
},
{
closed = 1;
nodes = (
"552 79 OFFCURVE",
"556 83 OFFCURVE",
"556 92 CURVE SMOOTH",
"556 526 LINE SMOOTH",
"556 569 OFFCURVE",
"563 590 OFFCURVE",
"587 617 CURVE",
"497 680 LINE",
"475 657 OFFCURVE",
"466 634 OFFCURVE",
"466 586 CURVE SMOOTH",
"466 126 LINE SMOOTH",
"466 108 OFFCURVE",
"523 79 OFFCURVE",
"546 79 CURVE SMOOTH"
);
},
{
closed = 1;
nodes = (
"618 -76 LINE",
"572 -39 OFFCURVE",
"556 -5 OFFCURVE",
"556 100 CURVE SMOOTH",
"556 118 LINE SMOOTH",
"556 133 OFFCURVE",
"509 139 OFFCURVE",
"487 139 CURVE SMOOTH",
"470 139 OFFCURVE",
"466 135 OFFCURVE",
"466 126 CURVE SMOOTH",
"466 108 LINE SMOOTH",
"466 15 OFFCURVE",
"496 -34 OFFCURVE",
"595 -102 CURVE"
);
}
);
width = 658;
}
);
leftKerningGroup = ya;
leftMetricsKey = "=40";
rightKerningGroup = gha;
rightMetricsKey = "pa-sidd";
unicode = 115A7;
script = siddham;
category = Letter;
subCategory = Other;
},
{
glyphname = "ra-sidd";
production = uni115A8;
lastChange = "2019-04-05 14:14:09 +0000";
layers = (
{
anchors = (
{
name = bottom;
position = "{257, -53}";
},
{
name = top;
position = "{257, 680}";
},
{
name = topleft;
position = "{107, 680}";
}
);
layerId = "56FF8C95-10BF-4749-91E0-C1649AF59D40";
paths = (
{
closed = 1;
nodes = (
"40 615 OFFCURVE",
"70 580 OFFCURVE",
"242 472 CURVE",
"253 600 LINE",
"224 587 OFFCURVE",
"212 564 OFFCURVE",
"212 516 CURVE SMOOTH",
"212 159 LINE SMOOTH",
"212 122 OFFCURVE",
"202 114 OFFCURVE",
"177 114 CURVE",
"235 36 LINE",
"439 -103 LINE",
"458 -74 LINE",
"170 123 LINE SMOOTH",
"114 161 OFFCURVE",
"87 173 OFFCURVE",
"64 173 CURVE SMOOTH",
"48 173 OFFCURVE",
"38 164 OFFCURVE",
"38 151 CURVE SMOOTH",
"38 134 OFFCURVE",
"49 115 OFFCURVE",
"83 86 CURVE SMOOTH",
"136 42 OFFCURVE",
"176 25 OFFCURVE",
"215 25 CURVE SMOOTH",
"272 25 OFFCURVE",
"302 61 OFFCURVE",
"302 142 CURVE SMOOTH",
"302 476 LINE SMOOTH",
"302 550 OFFCURVE",
"438 560 OFFCURVE",
"481 620 CURVE",
"391 683 LINE",
"357 661 OFFCURVE",
"312 650 OFFCURVE",
"268 650 CURVE SMOOTH",
"220 650 OFFCURVE",
"190 671 OFFCURVE",
"150 671 CURVE SMOOTH",
"126 671 OFFCURVE",
"108 660 OFFCURVE",
"97 642 CURVE",
"81 648 OFFCURVE",
"65 656 OFFCURVE",
"52 664 CURVE",
"45 660 OFFCURVE",
"40 653 OFFCURVE",
"40 643 CURVE SMOOTH"
);
}
);
width = 501;
}
);
leftKerningGroup = ra;
rightKerningGroup = ca;
unicode = 115A8;
script = siddham;
category = Letter;
subCategory = Other;
},
{
glyphname = "la-sidd";
production = uni115A9;
lastChange = "2019-04-05 14:14:09 +0000";
layers = (
{
anchors = (
{
name = bottom;
position = "{406, 0}";
},
{
name = top;
position = "{501, 680}";
},
{
name = topleft;
position = "{352, 680}";
}
);
layerId = "56FF8C95-10BF-4749-91E0-C1649AF59D40";
paths = (
{
closed = 1;
nodes = (
"285 615 OFFCURVE",
"315 580 OFFCURVE",
"487 472 CURVE",
"497 613 LINE",
"468 600 OFFCURVE",
"456 577 OFFCURVE",
"456 529 CURVE SMOOTH",
"456 207 LINE",
"512 223 LINE",
"452 240 OFFCURVE",
"388 249 OFFCURVE",
"309 253 CURVE",
"334 227 LINE",
"371 259 OFFCURVE",
"385 283 OFFCURVE",
"385 318 CURVE SMOOTH",
"385 414 OFFCURVE",
"281 515 OFFCURVE",
"181 515 CURVE SMOOTH",
"104 515 OFFCURVE",
"50 455 OFFCURVE",
"50 346 CURVE SMOOTH",
"50 157 OFFCURVE",
"220 -7 OFFCURVE",
"508 -7 CURVE SMOOTH",
"625 -7 OFFCURVE",
"687 -26 OFFCURVE",
"784 -99 CURVE",
"804 -70 LINE",
"667 53 OFFCURVE",
"581 93 OFFCURVE",
"406 93 CURVE SMOOTH",
"186 93 OFFCURVE",
"140 152 OFFCURVE",
"140 290 CURVE SMOOTH",
"140 400 OFFCURVE",
"184 440 OFFCURVE",
"239 440 CURVE SMOOTH",
"281 440 OFFCURVE",
"300 417 OFFCURVE",
"300 375 CURVE SMOOTH",
"300 334 OFFCURVE",
"278 302 OFFCURVE",
"238 273 CURVE",
"325 212 LINE",
"385 206 OFFCURVE",
"458 189 OFFCURVE",
"521 159 CURVE",
"546 169 LINE",
"546 491 LINE SMOOTH",
"546 544 OFFCURVE",
"637 557 OFFCURVE",
"680 620 CURVE",
"590 683 LINE",
"565 661 OFFCURVE",
"532 650 OFFCURVE",
"500 650 CURVE SMOOTH",
"458 650 OFFCURVE",
"431 671 OFFCURVE",
"395 671 CURVE SMOOTH",
"371 671 OFFCURVE",
"353 660 OFFCURVE",
"342 642 CURVE",
"326 648 OFFCURVE",
"310 656 OFFCURVE",
"297 664 CURVE",
"290 660 OFFCURVE",
"285 653 OFFCURVE",
"285 643 CURVE SMOOTH"
);
}
);
width = 794;
}
);
leftKerningGroup = la;
leftMetricsKey = "=50";
rightMetricsKey = "=-10";
unicode = 115A9;
script = siddham;
category = Letter;
subCategory = Other;
},
{
glyphname = "va-sidd";
production = uni115AA;
lastChange = "2019-04-05 14:14:09 +0000";
layers = (
{
anchors = (
{
name = _bottom;
position = "{340, 635}";
},
{
name = bottom;
position = "{340, -110}";
},
{
name = top;
position = "{334, 680}";
},
{
name = topleft;
position = "{206, 680}";
}
);
layerId = "56FF8C95-10BF-4749-91E0-C1649AF59D40";
paths = (
{
closed = 1;
nodes = (
"309 92 LINE",
"181 165 OFFCURVE",
"130 204 OFFCURVE",
"130 257 CURVE SMOOTH",
"130 367 OFFCURVE",
"425 442 OFFCURVE",
"580 620 CURVE",
"490 683 LINE",
"456 658 OFFCURVE",
"411 645 OFFCURVE",
"367 645 CURVE SMOOTH",
"321 645 OFFCURVE",
"293 666 OFFCURVE",
"255 666 CURVE SMOOTH",
"231 666 OFFCURVE",
"213 655 OFFCURVE",
"202 637 CURVE",
"186 643 OFFCURVE",
"170 651 OFFCURVE",
"157 659 CURVE",
"150 655 OFFCURVE",
"145 648 OFFCURVE",
"145 638 CURVE SMOOTH",
"145 610 OFFCURVE",
"175 575 OFFCURVE",
"347 467 CURVE",
"349 562 LINE",
"207 462 OFFCURVE",
"40 409 OFFCURVE",
"40 318 CURVE SMOOTH",
"40 203 OFFCURVE",
"173 120 OFFCURVE",
"309 51 CURVE"
);
},
{
closed = 1;
nodes = (
"381 11 OFFCURVE",
"385 15 OFFCURVE",
"385 24 CURVE SMOOTH",
"385 497 LINE",
"295 497 LINE",
"295 58 LINE SMOOTH",
"295 40 OFFCURVE",
"352 11 OFFCURVE",
"375 11 CURVE SMOOTH"
);
},
{
closed = 1;
nodes = (
"447 -84 LINE",
"401 -47 OFFCURVE",
"385 -13 OFFCURVE",
"385 50 CURVE SMOOTH",
"385 50 LINE SMOOTH",
"385 65 OFFCURVE",
"338 71 OFFCURVE",
"316 71 CURVE SMOOTH",
"299 71 OFFCURVE",
"295 67 OFFCURVE",
"295 58 CURVE SMOOTH",
"295 58 LINE SMOOTH",
"295 7 OFFCURVE",
"325 -42 OFFCURVE",
"424 -110 CURVE"
);
}
);
width = 600;
}
);
leftKerningGroup = va;
leftMetricsKey = "=40";
rightKerningGroup = ca;
rightMetricsKey = "=20";
unicode = 115AA;
script = siddham;
category = Letter;
subCategory = Other;
},
{
glyphname = "sha-sidd";
production = uni115AB;
lastChange = "2019-04-05 14:14:09 +0000";
layers = (
{
anchors = (
{
name = bottom;
position = "{389, 3}";
},
{
name = top;
position = "{389, 680}";
},
{
name = topleft;
position = "{120, 680}";
}
);
layerId = "56FF8C95-10BF-4749-91E0-C1649AF59D40";
paths = (
{
closed = 1;
nodes = (
"535 393 OFFCURVE",
"678 513 OFFCURVE",
"774 606 CURVE",
"774 619 LINE",
"696 680 LINE",
"591 580 OFFCURVE",
"464 473 OFFCURVE",
"335 374 CURVE",
"425 311 LINE"
);
},
{
closed = 1;
nodes = (
"266 69 OFFCURVE",
"296 120 OFFCURVE",
"296 176 CURVE SMOOTH",
"296 234 OFFCURVE",
"265 291 OFFCURVE",
"178 362 CURVE",
"152 339 LINE",
"191 304 OFFCURVE",
"206 271 OFFCURVE",
"206 238 CURVE SMOOTH",
"206 189 OFFCURVE",
"177 137 OFFCURVE",
"123 79 CURVE",
"213 16 LINE"
);
},
{
closed = 1;
nodes = (
"211 284 OFFCURVE",
"278 353 OFFCURVE",
"312 433 CURVE",
"220 490 LINE",
"197 420 OFFCURVE",
"142 365 OFFCURVE",
"40 308 CURVE",
"130 245 LINE"
);
},
{
closed = 1;
nodes = (
"457 365 OFFCURVE",
"478 396 OFFCURVE",
"478 445 CURVE SMOOTH",
"478 558 OFFCURVE",
"344 690 OFFCURVE",
"210 690 CURVE SMOOTH",
"117 690 OFFCURVE",
"67 617 OFFCURVE",
"67 542 CURVE SMOOTH",
"67 479 OFFCURVE",
"106 421 OFFCURVE",
"194 360 CURVE",
"232 368 LINE",
"175 413 OFFCURVE",
"154 453 OFFCURVE",
"154 495 CURVE SMOOTH",
"154 567 OFFCURVE",
"197 614 OFFCURVE",
"275 614 CURVE SMOOTH",
"355 614 OFFCURVE",
"398 567 OFFCURVE",
"398 496 CURVE SMOOTH",
"398 451 OFFCURVE",
"379 414 OFFCURVE",
"335 374 CURVE",
"425 334 LINE"
);
},
{
closed = 1;
nodes = (
"707 -21 LINE",
"661 16 OFFCURVE",
"645 49 OFFCURVE",
"645 182 CURVE SMOOTH",
"645 527 LINE",
"555 527 LINE",
"555 190 LINE SMOOTH",
"555 64 OFFCURVE",
"585 21 OFFCURVE",
"684 -47 CURVE"
);
}
);
width = 794;
}
);
leftKerningGroup = sha;
leftMetricsKey = "=40";
rightKerningGroup = kha;
rightMetricsKey = "=20";
unicode = 115AB;
script = siddham;
category = Letter;
subCategory = Other;
},
{
glyphname = "ssa-sidd";
production = uni115AC;
lastChange = "2019-04-05 14:14:09 +0000";
layers = (
{
anchors = (
{
name = bottom;
position = "{348, 0}";
},
{
name = top;
position = "{348, 680}";
},
{
name = topleft;
position = "{77, 680}";
}
);
layerId = "56FF8C95-10BF-4749-91E0-C1649AF59D40";
paths = (
{
closed = 1;
nodes = (
"655 -81 LINE",
"609 -44 OFFCURVE",
"593 -11 OFFCURVE",
"593 122 CURVE SMOOTH",
"593 526 LINE SMOOTH",
"593 569 OFFCURVE",
"600 590 OFFCURVE",
"624 617 CURVE",
"534 680 LINE",
"512 657 OFFCURVE",
"503 634 OFFCURVE",
"503 586 CURVE SMOOTH",
"503 130 LINE SMOOTH",
"503 4 OFFCURVE",
"533 -39 OFFCURVE",
"632 -107 CURVE"
);
},
{
closed = 1;
nodes = (
"10 615 OFFCURVE",
"40 580 OFFCURVE",
"212 472 CURVE",
"212 643 LINE",
"161 614 OFFCURVE",
"147 593 OFFCURVE",
"147 561 CURVE SMOOTH",
"147 425 LINE SMOOTH",
"147 291 OFFCURVE",
"268 183 OFFCURVE",
"395 183 CURVE SMOOTH",
"434 183 OFFCURVE",
"478 195 OFFCURVE",
"517 227 CURVE",
"517 321 LINE",
"460 388 OFFCURVE",
"400 441 OFFCURVE",
"331 489 CURVE",
"306 461 LINE",
"359 413 OFFCURVE",
"407 357 OFFCURVE",
"450 291 CURVE",
"448 316 LINE",
"408 273 OFFCURVE",
"364 254 OFFCURVE",
"323 254 CURVE SMOOTH",
"266 254 OFFCURVE",
"237 287 OFFCURVE",
"237 362 CURVE SMOOTH",
"237 481 LINE SMOOTH",
"237 535 OFFCURVE",
"321 557 OFFCURVE",
"361 620 CURVE",
"271 683 LINE",
"252 665 OFFCURVE",
"227 655 OFFCURVE",
"203 655 CURVE SMOOTH",
"169 655 OFFCURVE",
"148 671 OFFCURVE",
"120 671 CURVE SMOOTH",
"96 671 OFFCURVE",
"78 660 OFFCURVE",
"67 642 CURVE",
"51 648 OFFCURVE",
"35 656 OFFCURVE",
"22 664 CURVE",
"15 660 OFFCURVE",
"10 653 OFFCURVE",
"10 643 CURVE SMOOTH"
);
}
);
width = 695;
}
);
leftKerningGroup = pa;
leftMetricsKey = "pa-sidd";
rightKerningGroup = gha;
rightMetricsKey = "pa-sidd";
unicode = 115AC;
script = siddham;
category = Letter;
subCategory = Other;
},
{
glyphname = "sa-sidd";
production = uni115AD;
lastChange = "2019-04-05 14:14:09 +0000";
layers = (
{
anchors = (
{
name = bottom;
position = "{370, 0}";
},
{
name = top;
position = "{370, 680}";
},
{
name = topleft;
position = "{185, 680}";
}
);
layerId = "56FF8C95-10BF-4749-91E0-C1649AF59D40";
paths = (
{
closed = 1;
nodes = (
"396 46 LINE",
"316 106 OFFCURVE",
"294 144 OFFCURVE",
"294 197 CURVE SMOOTH",
"294 266 OFFCURVE",
"337 311 OFFCURVE",
"408 311 CURVE SMOOTH",
"461 311 OFFCURVE",
"508 282 OFFCURVE",
"559 233 CURVE",
"559 285 LINE",
"507 347 OFFCURVE",
"427 386 OFFCURVE",
"354 386 CURVE SMOOTH",
"260 386 OFFCURVE",
"200 324 OFFCURVE",
"200 245 CURVE SMOOTH",
"200 139 OFFCURVE",
"264 94 OFFCURVE",
"373 20 CURVE"
);
},
{
closed = 1;
nodes = (
"684 -81 LINE",
"638 -44 OFFCURVE",
"622 -11 OFFCURVE",
"622 122 CURVE SMOOTH",
"622 526 LINE SMOOTH",
"622 569 OFFCURVE",
"629 590 OFFCURVE",
"653 617 CURVE",
"563 680 LINE",
"541 657 OFFCURVE",
"532 634 OFFCURVE",
"532 586 CURVE SMOOTH",
"532 130 LINE SMOOTH",
"532 4 OFFCURVE",
"562 -39 OFFCURVE",
"661 -107 CURVE"
);
},
{
closed = 1;
nodes = (
"118 615 OFFCURVE",
"148 580 OFFCURVE",
"320 472 CURVE",
"330 598 LINE",
"272 457 OFFCURVE",
"222 355 OFFCURVE",
"144 355 CURVE SMOOTH",
"109 355 OFFCURVE",
"82 371 OFFCURVE",
"36 415 CURVE",
"10 392 LINE",
"75 324 OFFCURVE",
"131 289 OFFCURVE",
"199 289 CURVE SMOOTH",
"274 289 OFFCURVE",
"328 350 OFFCURVE",
"469 620 CURVE",
"379 683 LINE",
"360 665 OFFCURVE",
"335 655 OFFCURVE",
"311 655 CURVE SMOOTH",
"277 655 OFFCURVE",
"256 671 OFFCURVE",
"228 671 CURVE SMOOTH",
"204 671 OFFCURVE",
"186 660 OFFCURVE",
"175 642 CURVE",
"159 648 OFFCURVE",
"143 656 OFFCURVE",
"130 664 CURVE",
"123 660 OFFCURVE",
"118 653 OFFCURVE",
"118 643 CURVE SMOOTH"
);
}
);
width = 724;
}
);
leftKerningGroup = sa;
leftMetricsKey = "=10";
rightKerningGroup = gha;
rightMetricsKey = "pa-sidd";
unicode = 115AD;
script = siddham;
category = Letter;
subCategory = Other;
},
{
glyphname = "ha-sidd";
production = uni115AE;
lastChange = "2019-04-05 14:14:09 +0000";
layers = (
{
anchors = (
{
name = bottom;
position = "{343, 0}";
},
{
name = top;
position = "{324, 680}";
},
{
name = topleft;
position = "{184, 680}";
}
);
layerId = "56FF8C95-10BF-4749-91E0-C1649AF59D40";
paths = (
{
closed = 1;
nodes = (
"665 -77 LINE",
"614 -35 OFFCURVE",
"595 -14 OFFCURVE",
"595 17 CURVE SMOOTH",
"595 89 OFFCURVE",
"655 130 OFFCURVE",
"655 202 CURVE SMOOTH",
"655 293 OFFCURVE",
"536 379 OFFCURVE",
"444 379 CURVE SMOOTH",
"344 379 OFFCURVE",
"280 287 OFFCURVE",
"280 146 CURVE SMOOTH",
"280 79 LINE",
"356 25 LINE",
"370 31 LINE",
"370 75 LINE SMOOTH",
"370 226 OFFCURVE",
"416 312 OFFCURVE",
"504 312 CURVE SMOOTH",
"545 312 OFFCURVE",
"569 286 OFFCURVE",
"569 253 CURVE SMOOTH",
"569 190 OFFCURVE",
"505 149 OFFCURVE",
"505 70 CURVE SMOOTH",
"505 31 OFFCURVE",
"522 -1 OFFCURVE",
"565 -39 CURVE SMOOTH",
"585 -57 OFFCURVE",
"617 -82 OFFCURVE",
"642 -103 CURVE"
);
},
{
closed = 1;
nodes = (
"117 610 OFFCURVE",
"147 575 OFFCURVE",
"319 467 CURVE",
"310 554 LINE",
"217 473 OFFCURVE",
"127 414 OFFCURVE",
"20 357 CURVE",
"20 331 LINE",
"104 289 OFFCURVE",
"236 186 OFFCURVE",
"334 85 CURVE",
"334 128 LINE",
"289 193 OFFCURVE",
"191 289 OFFCURVE",
"106 356 CURVE",
"120 294 LINE",
"267 365 OFFCURVE",
"466 515 OFFCURVE",
"558 620 CURVE",
"468 683 LINE",
"434 658 OFFCURVE",
"389 645 OFFCURVE",
"345 645 CURVE SMOOTH",
"297 645 OFFCURVE",
"267 666 OFFCURVE",
"227 666 CURVE SMOOTH",
"203 666 OFFCURVE",
"185 655 OFFCURVE",
"174 637 CURVE",
"158 643 OFFCURVE",
"142 651 OFFCURVE",
"129 659 CURVE",
"122 655 OFFCURVE",
"117 648 OFFCURVE",
"117 638 CURVE SMOOTH"
);
}
);
width = 705;
}
);
leftKerningGroup = da;
rightKerningGroup = ha;
unicode = 115AE;
script = siddham;
category = Letter;
subCategory = Other;
},
{
glyphname = "aaMatra-sidd";
production = uni115AF;
lastChange = "2019-04-05 14:14:10 +0000";
layers = (
{
layerId = "56FF8C95-10BF-4749-91E0-C1649AF59D40";
paths = (
{
closed = 1;
nodes = (
"76 325 LINE",
"-24 401 OFFCURVE",
"-59 448 OFFCURVE",
"-59 500 CURVE SMOOTH",
"-59 548 OFFCURVE",
"-29 582 OFFCURVE",
"23 616 CURVE",
"-68 680 LINE",
"-124 641 OFFCURVE",
"-150 606 OFFCURVE",
"-150 551 CURVE SMOOTH",
"-150 461 OFFCURVE",
"-81 395 OFFCURVE",
"53 299 CURVE"
);
}
);
width = 96;
}
);
leftKerningGroup = aaMatra;
rightKerningGroup = aaMatra;
unicode = 115AF;
script = siddham;
category = Letter;
subCategory = Matra;
},
{
glyphname = "iMatra-sidd";
production = uni115B0;
lastChange = "2019-04-05 14:14:10 +0000";
layers = (
{
layerId = "56FF8C95-10BF-4749-91E0-C1649AF59D40";
paths = (
{
closed = 1;
nodes = (
"337 -97 LINE",
"193 69 OFFCURVE",
"130 223 OFFCURVE",
"130 397 CURVE SMOOTH",
"130 563 OFFCURVE",
"186 671 OFFCURVE",
"279 671 CURVE SMOOTH",
"303 671 OFFCURVE",
"329 662 OFFCURVE",
"363 630 CURVE",
"368 625 OFFCURVE",
"374 622 OFFCURVE",
"379 622 CURVE SMOOTH",
"388 622 OFFCURVE",
"396 628 OFFCURVE",
"396 636 CURVE SMOOTH",
"396 641 OFFCURVE",
"394 646 OFFCURVE",
"389 653 CURVE",
"332 744 OFFCURVE",
"282 778 OFFCURVE",
"232 778 CURVE SMOOTH",
"126 778 OFFCURVE",
"40 659 OFFCURVE",
"40 466 CURVE SMOOTH",
"40 220 OFFCURVE",
"130 54 OFFCURVE",
"311 -120 CURVE"
);
}
);
width = 214;
}
);
rightKerningGroup = iMatra;
unicode = 115B0;
script = siddham;
category = Letter;
subCategory = Matra;
},
{
glyphname = "iiMatra-sidd";
production = uni115B1;
lastChange = "2019-04-05 14:14:10 +0000";
layers = (
{
layerId = "56FF8C95-10BF-4749-91E0-C1649AF59D40";
paths = (
{
closed = 1;
nodes = (
"181 -119 LINE",
"148 -83 OFFCURVE",
"136 -43 OFFCURVE",
"136 120 CURVE SMOOTH",
"136 455 LINE SMOOTH",
"136 555 OFFCURVE",
"115 617 OFFCURVE",
"27 704 CURVE SMOOTH",
"-32 762 OFFCURVE",
"-75 787 OFFCURVE",
"-122 787 CURVE SMOOTH",
"-190 787 OFFCURVE",
"-220 749 OFFCURVE",
"-220 703 CURVE SMOOTH",
"-220 682 OFFCURVE",
"-213 665 OFFCURVE",
"-193 647 CURVE",
"-110 620 LINE",
"-125 631 OFFCURVE",
"-134 647 OFFCURVE",
"-134 665 CURVE SMOOTH",
"-134 690 OFFCURVE",
"-115 709 OFFCURVE",
"-81 709 CURVE SMOOTH",
"-24 709 OFFCURVE",
"36 650 OFFCURVE",
"36 551 CURVE SMOOTH",
"36 158 LINE SMOOTH",
"36 -8 OFFCURVE",
"65 -57 OFFCURVE",
"158 -142 CURVE"
);
}
);
width = 211;
}
);
leftKerningGroup = iiMatra;
rightKerningGroup = iiMatra;
unicode = 115B1;
script = siddham;
category = Letter;
subCategory = Matra;
},
{
glyphname = "eMatra-sidd";
production = uni115B8;
lastChange = "2019-04-05 14:14:10 +0000";
layers = (
{
layerId = "56FF8C95-10BF-4749-91E0-C1649AF59D40";
paths = (
{
closed = 1;
nodes = (
"51 737 OFFCURVE",
"20 706 OFFCURVE",
"20 655 CURVE SMOOTH",
"20 596 OFFCURVE",
"63 556 OFFCURVE",
"141 529 CURVE",
"154 550 LINE",
"128 569 OFFCURVE",
"115 595 OFFCURVE",
"115 621 CURVE SMOOTH",
"115 650 OFFCURVE",
"129 669 OFFCURVE",
"157 669 CURVE SMOOTH",
"181 669 OFFCURVE",
"205 655 OFFCURVE",
"239 620 CURVE",
"242 618 OFFCURVE",
"244 617 OFFCURVE",
"247 617 CURVE SMOOTH",
"255 617 OFFCURVE",
"262 624 OFFCURVE",
"262 633 CURVE SMOOTH",
"262 637 OFFCURVE",
"259 641 OFFCURVE",
"256 644 CURVE",
"204 703 OFFCURVE",
"169 737 OFFCURVE",
"108 737 CURVE SMOOTH"
);
}
);
width = 80;
}
);
leftKerningGroup = eMatra;
rightKerningGroup = eMatra;
unicode = 115B8;
script = siddham;
category = Letter;
subCategory = Matra;
},
{
glyphname = "aiMatra-sidd";
production = uni115B9;
lastChange = "2019-04-05 14:14:10 +0000";
layers = (
{
layerId = "56FF8C95-10BF-4749-91E0-C1649AF59D40";
paths = (
{
closed = 1;
nodes = (
"51 737 OFFCURVE",
"20 706 OFFCURVE",
"20 655 CURVE SMOOTH",
"20 596 OFFCURVE",
"63 556 OFFCURVE",
"141 529 CURVE",
"154 550 LINE",
"128 569 OFFCURVE",
"115 595 OFFCURVE",
"115 621 CURVE SMOOTH",
"115 650 OFFCURVE",
"129 669 OFFCURVE",
"157 669 CURVE SMOOTH",
"181 669 OFFCURVE",
"205 655 OFFCURVE",
"239 620 CURVE",
"242 618 OFFCURVE",
"244 617 OFFCURVE",
"247 617 CURVE SMOOTH",
"255 617 OFFCURVE",
"262 624 OFFCURVE",
"262 633 CURVE SMOOTH",
"262 637 OFFCURVE",
"259 641 OFFCURVE",
"256 644 CURVE",
"204 703 OFFCURVE",
"169 737 OFFCURVE",
"108 737 CURVE SMOOTH"
);
},
{
closed = 1;
nodes = (
"333 623 OFFCURVE",
"335 621 OFFCURVE",
"339 621 CURVE SMOOTH",
"346 621 OFFCURVE",
"352 626 OFFCURVE",
"352 633 CURVE SMOOTH",
"352 637 OFFCURVE",
"350 640 OFFCURVE",
"347 643 CURVE",
"314 681 OFFCURVE",
"294 713 OFFCURVE",
"294 742 CURVE SMOOTH",
"294 768 OFFCURVE",
"310 783 OFFCURVE",
"337 783 CURVE SMOOTH",
"362 783 OFFCURVE",
"384 770 OFFCURVE",
"402 748 CURVE",
"422 766 LINE",
"391 829 OFFCURVE",
"358 864 OFFCURVE",
"307 864 CURVE SMOOTH",
"262 864 OFFCURVE",
"232 838 OFFCURVE",
"232 789 CURVE SMOOTH",
"232 749 OFFCURVE",
"252 705 OFFCURVE",
"330 626 CURVE"
);
}
);
width = 80;
}
);
rightKerningGroup = eMatra;
unicode = 115B9;
script = siddham;
category = Letter;
subCategory = Matra;
},
{
glyphname = "oMatra-sidd";
production = uni115BA;
lastChange = "2019-04-05 14:14:10 +0000";
layers = (
{
anchors = (
{
name = top;
position = "{417, 680}";
},
{
name = topleft;
position = "{299, 680}";
}
);
layerId = "56FF8C95-10BF-4749-91E0-C1649AF59D40";
paths = (
{
closed = 1;
nodes = (
"51 737 OFFCURVE",
"20 706 OFFCURVE",
"20 655 CURVE SMOOTH",
"20 596 OFFCURVE",
"63 556 OFFCURVE",
"141 529 CURVE",
"154 550 LINE",
"128 569 OFFCURVE",
"115 595 OFFCURVE",
"115 621 CURVE SMOOTH",
"115 650 OFFCURVE",
"129 669 OFFCURVE",
"157 669 CURVE SMOOTH",
"181 669 OFFCURVE",
"205 655 OFFCURVE",
"239 620 CURVE",
"242 618 OFFCURVE",
"244 617 OFFCURVE",
"247 617 CURVE SMOOTH",
"255 617 OFFCURVE",
"262 624 OFFCURVE",
"262 633 CURVE SMOOTH",
"262 637 OFFCURVE",
"259 641 OFFCURVE",
"256 644 CURVE",
"204 703 OFFCURVE",
"169 737 OFFCURVE",
"108 737 CURVE SMOOTH"
);
},
{
closed = 1;
nodes = (
"640 349 OFFCURVE",
"649 358 OFFCURVE",
"649 376 CURVE SMOOTH",
"649 393 OFFCURVE",
"640 402 OFFCURVE",
"623 402 CURVE SMOOTH",
"605 402 OFFCURVE",
"596 393 OFFCURVE",
"596 376 CURVE SMOOTH",
"596 358 OFFCURVE",
"605 349 OFFCURVE",
"622 349 CURVE SMOOTH"
);
},
{
closed = 1;
nodes = (
"278 107 OFFCURVE",
"287 116 OFFCURVE",
"287 133 CURVE SMOOTH",
"287 151 OFFCURVE",
"278 160 OFFCURVE",
"260 160 CURVE SMOOTH",
"243 160 OFFCURVE",
"234 151 OFFCURVE",
"234 133 CURVE SMOOTH",
"234 116 OFFCURVE",
"243 107 OFFCURVE",
"260 107 CURVE SMOOTH"
);
},
{
closed = 1;
nodes = (
"229 180 OFFCURVE",
"238 189 OFFCURVE",
"238 206 CURVE SMOOTH",
"238 224 OFFCURVE",
"229 233 OFFCURVE",
"212 233 CURVE SMOOTH",
"194 233 OFFCURVE",
"185 224 OFFCURVE",
"185 206 CURVE SMOOTH",
"185 189 OFFCURVE",
"194 180 OFFCURVE",
"212 180 CURVE SMOOTH"
);
},
{
closed = 1;
nodes = (
"350 60 OFFCURVE",
"359 69 OFFCURVE",
"359 87 CURVE SMOOTH",
"359 104 OFFCURVE",
"350 112 OFFCURVE",
"332 112 CURVE SMOOTH",
"315 112 OFFCURVE",
"306 103 OFFCURVE",
"306 85 CURVE SMOOTH",
"306 68 OFFCURVE",
"315 60 OFFCURVE",
"332 60 CURVE SMOOTH"
);
},
{
closed = 1;
nodes = (
"212 265 OFFCURVE",
"221 274 OFFCURVE",
"221 291 CURVE SMOOTH",
"221 308 OFFCURVE",
"212 317 OFFCURVE",
"195 317 CURVE SMOOTH",
"177 317 OFFCURVE",
"168 308 OFFCURVE",
"168 291 CURVE SMOOTH",
"168 274 OFFCURVE",
"177 265 OFFCURVE",
"195 265 CURVE SMOOTH"
);
},
{
closed = 1;
nodes = (
"434 42 OFFCURVE",
"443 51 OFFCURVE",
"443 69 CURVE SMOOTH",
"443 86 OFFCURVE",
"434 95 OFFCURVE",
"417 95 CURVE SMOOTH",
"400 95 OFFCURVE",
"391 86 OFFCURVE",
"391 69 CURVE SMOOTH",
"391 51 OFFCURVE",
"400 42 OFFCURVE",
"417 42 CURVE SMOOTH"
);
},
{
closed = 1;
nodes = (
"230 349 OFFCURVE",
"238 358 OFFCURVE",
"238 376 CURVE SMOOTH",
"238 393 OFFCURVE",
"229 402 OFFCURVE",
"212 402 CURVE SMOOTH",
"194 402 OFFCURVE",
"185 393 OFFCURVE",
"185 376 CURVE SMOOTH",
"185 358 OFFCURVE",
"194 349 OFFCURVE",
"213 349 CURVE SMOOTH"
);
},
{
closed = 1;
nodes = (
"520 60 OFFCURVE",
"528 68 OFFCURVE",
"528 85 CURVE SMOOTH",
"528 103 OFFCURVE",
"520 112 OFFCURVE",
"503 112 CURVE SMOOTH",
"484 112 OFFCURVE",
"475 103 OFFCURVE",
"475 85 CURVE SMOOTH",
"475 68 OFFCURVE",
"484 60 OFFCURVE",
"503 60 CURVE SMOOTH"
);
},
{
closed = 1;
nodes = (
"592 107 OFFCURVE",
"600 116 OFFCURVE",
"600 133 CURVE SMOOTH",
"600 151 OFFCURVE",
"592 160 OFFCURVE",
"575 160 CURVE SMOOTH",
"557 160 OFFCURVE",
"548 151 OFFCURVE",
"548 133 CURVE SMOOTH",
"548 116 OFFCURVE",
"557 107 OFFCURVE",
"575 107 CURVE SMOOTH"
);
},
{
closed = 1;
nodes = (
"278 422 OFFCURVE",
"287 431 OFFCURVE",
"287 448 CURVE SMOOTH",
"287 466 OFFCURVE",
"278 475 OFFCURVE",
"260 475 CURVE SMOOTH",
"243 475 OFFCURVE",
"234 466 OFFCURVE",
"234 447 CURVE SMOOTH",
"234 430 OFFCURVE",
"243 422 OFFCURVE",
"260 422 CURVE SMOOTH"
);
},
{
closed = 1;
nodes = (
"350 470 OFFCURVE",
"359 479 OFFCURVE",
"359 496 CURVE SMOOTH",
"359 514 OFFCURVE",
"350 523 OFFCURVE",
"332 523 CURVE SMOOTH",
"315 523 OFFCURVE",
"306 514 OFFCURVE",
"306 496 CURVE SMOOTH",
"306 479 OFFCURVE",
"315 470 OFFCURVE",
"332 470 CURVE SMOOTH"
);
},
{
closed = 1;
nodes = (
"640 180 OFFCURVE",
"649 189 OFFCURVE",
"649 206 CURVE SMOOTH",
"649 224 OFFCURVE",
"640 233 OFFCURVE",
"622 233 CURVE SMOOTH",
"605 233 OFFCURVE",
"596 224 OFFCURVE",
"596 206 CURVE SMOOTH",
"596 189 OFFCURVE",
"605 180 OFFCURVE",
"622 180 CURVE SMOOTH"
);
},
{
closed = 1;
nodes = (
"434 487 OFFCURVE",
"443 496 OFFCURVE",
"443 514 CURVE SMOOTH",
"443 531 OFFCURVE",
"434 540 OFFCURVE",
"417 540 CURVE SMOOTH",
"400 540 OFFCURVE",
"391 531 OFFCURVE",
"391 514 CURVE SMOOTH",
"391 496 OFFCURVE",
"400 487 OFFCURVE",
"417 487 CURVE SMOOTH"
);
},
{
closed = 1;
nodes = (
"658 265 OFFCURVE",
"666 274 OFFCURVE",
"666 291 CURVE SMOOTH",
"666 308 OFFCURVE",
"658 317 OFFCURVE",
"641 317 CURVE SMOOTH",
"623 317 OFFCURVE",
"614 308 OFFCURVE",
"614 291 CURVE SMOOTH",
"614 274 OFFCURVE",
"623 265 OFFCURVE",
"641 265 CURVE SMOOTH"
);
},
{
closed = 1;
nodes = (
"520 470 OFFCURVE",
"528 479 OFFCURVE",
"528 496 CURVE SMOOTH",
"528 514 OFFCURVE",
"520 523 OFFCURVE",
"503 523 CURVE SMOOTH",
"484 523 OFFCURVE",
"475 514 OFFCURVE",
"475 496 CURVE SMOOTH",
"475 479 OFFCURVE",
"484 470 OFFCURVE",
"503 470 CURVE SMOOTH"
);
},
{
closed = 1;
nodes = (
"592 422 OFFCURVE",
"600 431 OFFCURVE",
"600 448 CURVE SMOOTH",
"600 466 OFFCURVE",
"592 475 OFFCURVE",
"575 475 CURVE SMOOTH",
"557 475 OFFCURVE",
"548 466 OFFCURVE",
"548 448 CURVE SMOOTH",
"548 431 OFFCURVE",
"557 422 OFFCURVE",
"575 422 CURVE SMOOTH"
);
},
{
closed = 1;
nodes = (
"860 325 LINE",
"760 401 OFFCURVE",
"725 448 OFFCURVE",
"725 500 CURVE SMOOTH",
"725 548 OFFCURVE",
"755 582 OFFCURVE",
"807 616 CURVE",
"716 680 LINE",
"660 641 OFFCURVE",
"634 606 OFFCURVE",
"634 551 CURVE SMOOTH",
"634 461 OFFCURVE",
"703 395 OFFCURVE",
"837 299 CURVE"
);
}
);
width = 880;
}
);
leftMetricsKey = "eMatra-sidd";
rightMetricsKey = "aaMatra-sidd";
unicode = 115BA;
script = siddham;
category = Letter;
subCategory = Matra;
},
{
glyphname = "auMatra-sidd";
production = uni115BB;
lastChange = "2019-04-05 14:14:10 +0000";
layers = (
{
anchors = (
{
name = top;
position = "{417, 680}";
},
{
name = topleft;
position = "{299, 680}";
}
);
layerId = "56FF8C95-10BF-4749-91E0-C1649AF59D40";
paths = (
{
closed = 1;
nodes = (
"51 737 OFFCURVE",
"20 706 OFFCURVE",
"20 655 CURVE SMOOTH",
"20 596 OFFCURVE",
"63 556 OFFCURVE",
"141 529 CURVE",
"154 550 LINE",
"128 569 OFFCURVE",
"115 595 OFFCURVE",
"115 621 CURVE SMOOTH",
"115 650 OFFCURVE",
"129 669 OFFCURVE",
"157 669 CURVE SMOOTH",
"181 669 OFFCURVE",
"205 655 OFFCURVE",
"239 620 CURVE",
"242 618 OFFCURVE",
"244 617 OFFCURVE",
"247 617 CURVE SMOOTH",
"255 617 OFFCURVE",
"262 624 OFFCURVE",
"262 633 CURVE SMOOTH",
"262 637 OFFCURVE",
"259 641 OFFCURVE",
"256 644 CURVE",
"204 703 OFFCURVE",
"169 737 OFFCURVE",
"108 737 CURVE SMOOTH"
);
},
{
closed = 1;
nodes = (
"333 623 OFFCURVE",
"335 621 OFFCURVE",
"339 621 CURVE SMOOTH",
"346 621 OFFCURVE",
"352 626 OFFCURVE",
"352 633 CURVE SMOOTH",
"352 637 OFFCURVE",
"350 640 OFFCURVE",
"347 643 CURVE",
"314 681 OFFCURVE",
"294 713 OFFCURVE",
"294 742 CURVE SMOOTH",
"294 768 OFFCURVE",
"310 783 OFFCURVE",
"337 783 CURVE SMOOTH",
"362 783 OFFCURVE",
"384 770 OFFCURVE",
"402 748 CURVE",
"422 766 LINE",
"391 829 OFFCURVE",
"358 864 OFFCURVE",
"307 864 CURVE SMOOTH",
"262 864 OFFCURVE",
"232 838 OFFCURVE",
"232 789 CURVE SMOOTH",
"232 749 OFFCURVE",
"252 705 OFFCURVE",
"330 626 CURVE"
);
},
{
closed = 1;
nodes = (
"640 349 OFFCURVE",
"649 358 OFFCURVE",
"649 376 CURVE SMOOTH",
"649 393 OFFCURVE",
"640 402 OFFCURVE",
"623 402 CURVE SMOOTH",
"605 402 OFFCURVE",
"596 393 OFFCURVE",
"596 376 CURVE SMOOTH",
"596 358 OFFCURVE",
"605 349 OFFCURVE",
"622 349 CURVE SMOOTH"
);
},
{
closed = 1;
nodes = (
"278 107 OFFCURVE",
"287 116 OFFCURVE",
"287 133 CURVE SMOOTH",
"287 151 OFFCURVE",
"278 160 OFFCURVE",
"260 160 CURVE SMOOTH",
"243 160 OFFCURVE",
"234 151 OFFCURVE",
"234 133 CURVE SMOOTH",
"234 116 OFFCURVE",
"243 107 OFFCURVE",
"260 107 CURVE SMOOTH"
);
},
{
closed = 1;
nodes = (
"229 180 OFFCURVE",
"238 189 OFFCURVE",
"238 206 CURVE SMOOTH",
"238 224 OFFCURVE",
"229 233 OFFCURVE",
"212 233 CURVE SMOOTH",
"194 233 OFFCURVE",
"185 224 OFFCURVE",
"185 206 CURVE SMOOTH",
"185 189 OFFCURVE",
"194 180 OFFCURVE",
"212 180 CURVE SMOOTH"
);
},
{
closed = 1;
nodes = (
"350 60 OFFCURVE",
"359 69 OFFCURVE",
"359 87 CURVE SMOOTH",
"359 104 OFFCURVE",
"350 112 OFFCURVE",
"332 112 CURVE SMOOTH",
"315 112 OFFCURVE",
"306 103 OFFCURVE",
"306 85 CURVE SMOOTH",
"306 68 OFFCURVE",
"315 60 OFFCURVE",
"332 60 CURVE SMOOTH"
);
},
{
closed = 1;
nodes = (
"212 265 OFFCURVE",
"221 274 OFFCURVE",
"221 291 CURVE SMOOTH",
"221 308 OFFCURVE",
"212 317 OFFCURVE",
"195 317 CURVE SMOOTH",
"177 317 OFFCURVE",
"168 308 OFFCURVE",
"168 291 CURVE SMOOTH",
"168 274 OFFCURVE",
"177 265 OFFCURVE",
"195 265 CURVE SMOOTH"
);
},
{
closed = 1;
nodes = (
"434 42 OFFCURVE",
"443 51 OFFCURVE",
"443 69 CURVE SMOOTH",
"443 86 OFFCURVE",
"434 95 OFFCURVE",
"417 95 CURVE SMOOTH",
"400 95 OFFCURVE",
"391 86 OFFCURVE",
"391 69 CURVE SMOOTH",
"391 51 OFFCURVE",
"400 42 OFFCURVE",
"417 42 CURVE SMOOTH"
);
},
{
closed = 1;
nodes = (
"230 349 OFFCURVE",
"238 358 OFFCURVE",
"238 376 CURVE SMOOTH",
"238 393 OFFCURVE",
"229 402 OFFCURVE",
"212 402 CURVE SMOOTH",
"194 402 OFFCURVE",
"185 393 OFFCURVE",
"185 376 CURVE SMOOTH",
"185 358 OFFCURVE",
"194 349 OFFCURVE",
"213 349 CURVE SMOOTH"
);
},
{
closed = 1;
nodes = (
"520 60 OFFCURVE",
"528 68 OFFCURVE",
"528 85 CURVE SMOOTH",
"528 103 OFFCURVE",
"520 112 OFFCURVE",
"503 112 CURVE SMOOTH",
"484 112 OFFCURVE",
"475 103 OFFCURVE",
"475 85 CURVE SMOOTH",
"475 68 OFFCURVE",
"484 60 OFFCURVE",
"503 60 CURVE SMOOTH"
);
},
{
closed = 1;
nodes = (
"592 107 OFFCURVE",
"600 116 OFFCURVE",
"600 133 CURVE SMOOTH",
"600 151 OFFCURVE",
"592 160 OFFCURVE",
"575 160 CURVE SMOOTH",
"557 160 OFFCURVE",
"548 151 OFFCURVE",
"548 133 CURVE SMOOTH",
"548 116 OFFCURVE",
"557 107 OFFCURVE",
"575 107 CURVE SMOOTH"
);
},
{
closed = 1;
nodes = (
"278 422 OFFCURVE",
"287 431 OFFCURVE",
"287 448 CURVE SMOOTH",
"287 466 OFFCURVE",
"278 475 OFFCURVE",
"260 475 CURVE SMOOTH",
"243 475 OFFCURVE",
"234 466 OFFCURVE",
"234 447 CURVE SMOOTH",
"234 430 OFFCURVE",
"243 422 OFFCURVE",
"260 422 CURVE SMOOTH"
);
},
{
closed = 1;
nodes = (
"350 470 OFFCURVE",
"359 479 OFFCURVE",
"359 496 CURVE SMOOTH",
"359 514 OFFCURVE",
"350 523 OFFCURVE",
"332 523 CURVE SMOOTH",
"315 523 OFFCURVE",
"306 514 OFFCURVE",
"306 496 CURVE SMOOTH",
"306 479 OFFCURVE",
"315 470 OFFCURVE",
"332 470 CURVE SMOOTH"
);
},
{
closed = 1;
nodes = (
"640 180 OFFCURVE",
"649 189 OFFCURVE",
"649 206 CURVE SMOOTH",
"649 224 OFFCURVE",
"640 233 OFFCURVE",
"622 233 CURVE SMOOTH",
"605 233 OFFCURVE",
"596 224 OFFCURVE",
"596 206 CURVE SMOOTH",
"596 189 OFFCURVE",
"605 180 OFFCURVE",
"622 180 CURVE SMOOTH"
);
},
{
closed = 1;
nodes = (
"434 487 OFFCURVE",
"443 496 OFFCURVE",
"443 514 CURVE SMOOTH",
"443 531 OFFCURVE",
"434 540 OFFCURVE",
"417 540 CURVE SMOOTH",
"400 540 OFFCURVE",
"391 531 OFFCURVE",
"391 514 CURVE SMOOTH",
"391 496 OFFCURVE",
"400 487 OFFCURVE",
"417 487 CURVE SMOOTH"
);
},
{
closed = 1;
nodes = (
"658 265 OFFCURVE",
"666 274 OFFCURVE",
"666 291 CURVE SMOOTH",
"666 308 OFFCURVE",
"658 317 OFFCURVE",
"641 317 CURVE SMOOTH",
"623 317 OFFCURVE",
"614 308 OFFCURVE",
"614 291 CURVE SMOOTH",
"614 274 OFFCURVE",
"623 265 OFFCURVE",
"641 265 CURVE SMOOTH"
);
},
{
closed = 1;
nodes = (
"520 470 OFFCURVE",
"528 479 OFFCURVE",
"528 496 CURVE SMOOTH",
"528 514 OFFCURVE",
"520 523 OFFCURVE",
"503 523 CURVE SMOOTH",
"484 523 OFFCURVE",
"475 514 OFFCURVE",
"475 496 CURVE SMOOTH",
"475 479 OFFCURVE",
"484 470 OFFCURVE",
"503 470 CURVE SMOOTH"
);
},
{
closed = 1;
nodes = (
"592 422 OFFCURVE",
"600 431 OFFCURVE",
"600 448 CURVE SMOOTH",
"600 466 OFFCURVE",
"592 475 OFFCURVE",
"575 475 CURVE SMOOTH",
"557 475 OFFCURVE",
"548 466 OFFCURVE",
"548 448 CURVE SMOOTH",
"548 431 OFFCURVE",
"557 422 OFFCURVE",
"575 422 CURVE SMOOTH"
);
},
{
closed = 1;
nodes = (
"860 325 LINE",
"760 401 OFFCURVE",
"725 448 OFFCURVE",
"725 500 CURVE SMOOTH",
"725 548 OFFCURVE",
"755 582 OFFCURVE",
"807 616 CURVE",
"716 680 LINE",
"660 641 OFFCURVE",
"634 606 OFFCURVE",
"634 551 CURVE SMOOTH",
"634 461 OFFCURVE",
"703 395 OFFCURVE",
"837 299 CURVE"
);
}
);
width = 880;
}
);
leftMetricsKey = "eMatra-sidd";
rightMetricsKey = "aaMatra-sidd";
unicode = 115BB;
script = siddham;
category = Letter;
subCategory = Matra;
},
{
glyphname = "visarga-sidd";
production = uni115BE;
lastChange = "2019-04-05 14:14:11 +0000";
layers = (
{
layerId = "56FF8C95-10BF-4749-91E0-C1649AF59D40";
paths = (
{
closed = 1;
nodes = (
"214 476 LINE",
"124 539 LINE",
"30 465 LINE",
"121 403 LINE"
);
},
{
closed = 1;
nodes = (
"214 156 LINE",
"124 219 LINE",
"30 145 LINE",
"121 83 LINE"
);
}
);
width = 244;
}
);
unicode = 115BE;
script = siddham;
category = Letter;
subCategory = Matra;
},
{
glyphname = "jha-sidd.ini.aaMatra";
production = uni11596.ini.aaMatra;
lastChange = "2019-04-05 14:14:11 +0000";
layers = (
{
anchors = (
{
name = _bottom;
position = "{239, 645}";
},
{
name = bottom;
position = "{239, 225}";
},
{
name = top;
position = "{220, 680}";
},
{
name = topleft;
position = "{95, 680}";
}
);
layerId = "56FF8C95-10BF-4749-91E0-C1649AF59D40";
paths = (
{
closed = 1;
nodes = (
"323 366 OFFCURVE",
"400 323 OFFCURVE",
"507 231 CURVE",
"528 254 LINE",
"483 301 OFFCURVE",
"461 336 OFFCURVE",
"461 379 CURVE SMOOTH",
"461 412 OFFCURVE",
"483 430 OFFCURVE",
"513 430 CURVE SMOOTH",
"528 430 OFFCURVE",
"539 424 OFFCURVE",
"548 415 CURVE",
"559 405 OFFCURVE",
"580 427 OFFCURVE",
"571 440 CURVE SMOOTH",
"542 479 OFFCURVE",
"502 510 OFFCURVE",
"461 510 CURVE SMOOTH",
"412 510 OFFCURVE",
"375 479 OFFCURVE",
"375 422 CURVE SMOOTH",
"375 358 OFFCURVE",
"424 312 OFFCURVE",
"511 240 CURVE",
"486 280 LINE",
"404 373 OFFCURVE",
"319 432 OFFCURVE",
"219 447 CURVE",
"219 366 LINE"
);
},
{
closed = 1;
nodes = (
"284 501 LINE SMOOTH",
"284 555 OFFCURVE",
"368 557 OFFCURVE",
"408 620 CURVE",
"318 683 LINE",
"298 665 OFFCURVE",
"271 655 OFFCURVE",
"245 655 CURVE SMOOTH",
"209 655 OFFCURVE",
"187 671 OFFCURVE",
"157 671 CURVE SMOOTH",
"133 671 OFFCURVE",
"115 660 OFFCURVE",
"104 642 CURVE",
"88 648 OFFCURVE",
"72 656 OFFCURVE",
"59 664 CURVE",
"52 660 OFFCURVE",
"47 653 OFFCURVE",
"47 643 CURVE SMOOTH",
"47 615 OFFCURVE",
"77 580 OFFCURVE",
"249 472 CURVE",
"259 640 LINE",
"208 611 OFFCURVE",
"194 590 OFFCURVE",
"194 558 CURVE SMOOTH",
"194 299 LINE SMOOTH",
"194 281 OFFCURVE",
"251 252 OFFCURVE",
"274 252 CURVE SMOOTH",
"280 252 OFFCURVE",
"284 256 OFFCURVE",
"284 265 CURVE SMOOTH"
);
},
{
closed = 1;
nodes = (
"260 275 LINE",
"22 389 LINE",
"6 357 LINE",
"260 235 LINE"
);
},
{
closed = 1;
nodes = (
"198 312 OFFCURVE",
"194 308 OFFCURVE",
"194 299 CURVE SMOOTH",
"194 242 LINE SMOOTH",
"194 224 OFFCURVE",
"251 195 OFFCURVE",
"274 195 CURVE SMOOTH",
"280 195 OFFCURVE",
"284 199 OFFCURVE",
"284 208 CURVE SMOOTH",
"284 265 LINE SMOOTH",
"284 283 OFFCURVE",
"227 312 OFFCURVE",
"204 312 CURVE SMOOTH"
);
}
);
width = 600;
}
);
leftKerningGroup = jha;
rightKerningGroup = jha;
rightMetricsKey = "=30";
script = siddham;
category = Letter;
subCategory = Other;
},
{
glyphname = "nya-sidd.ini.aaMatra";
production = uni11597.ini.aaMatra;
lastChange = "2019-04-05 14:14:11 +0000";
layers = (
{
anchors = (
{
name = _bottom;
position = "{317, 624}";
},
{
name = bottom;
position = "{317, 225}";
},
{
name = top;
position = "{317, 680}";
},
{
name = topleft;
position = "{122, 680}";
}
);
layerId = "56FF8C95-10BF-4749-91E0-C1649AF59D40";
paths = (
{
closed = 1;
nodes = (
"272 299 LINE SMOOTH",
"272 281 OFFCURVE",
"329 252 OFFCURVE",
"352 252 CURVE SMOOTH",
"358 252 OFFCURVE",
"362 256 OFFCURVE",
"362 265 CURVE SMOOTH",
"362 501 LINE SMOOTH",
"362 555 OFFCURVE",
"446 557 OFFCURVE",
"486 620 CURVE",
"396 683 LINE",
"342 655 OFFCURVE",
"251 637 OFFCURVE",
"193 637 CURVE",
"193 600 LINE",
"239 600 LINE",
"180 660 OFFCURVE",
"147 683 OFFCURVE",
"106 683 CURVE SMOOTH",
"51 683 OFFCURVE",
"20 652 OFFCURVE",
"20 601 CURVE SMOOTH",
"20 542 OFFCURVE",
"63 502 OFFCURVE",
"141 475 CURVE",
"154 496 LINE",
"128 516 OFFCURVE",
"115 536 OFFCURVE",
"115 560 CURVE SMOOTH",
"115 582 OFFCURVE",
"127 595 OFFCURVE",
"151 595 CURVE SMOOTH",
"186 595 OFFCURVE",
"233 567 OFFCURVE",
"309 490 CURVE",
"272 564 LINE"
);
},
{
closed = 1;
nodes = (
"401 366 OFFCURVE",
"478 323 OFFCURVE",
"585 231 CURVE",
"606 254 LINE",
"561 301 OFFCURVE",
"539 336 OFFCURVE",
"539 379 CURVE SMOOTH",
"539 412 OFFCURVE",
"561 430 OFFCURVE",
"591 430 CURVE SMOOTH",
"606 430 OFFCURVE",
"617 424 OFFCURVE",
"626 415 CURVE",
"637 405 OFFCURVE",
"658 427 OFFCURVE",
"649 440 CURVE SMOOTH",
"619 478 OFFCURVE",
"580 510 OFFCURVE",
"539 510 CURVE SMOOTH",
"490 510 OFFCURVE",
"453 479 OFFCURVE",
"453 422 CURVE SMOOTH",
"453 358 OFFCURVE",
"502 312 OFFCURVE",
"589 240 CURVE",
"564 280 LINE",
"482 373 OFFCURVE",
"397 432 OFFCURVE",
"297 447 CURVE",
"297 366 LINE"
);
},
{
closed = 1;
nodes = (
"338 275 LINE",
"100 389 LINE",
"84 357 LINE",
"338 235 LINE"
);
},
{
closed = 1;
nodes = (
"276 312 OFFCURVE",
"272 308 OFFCURVE",
"272 299 CURVE SMOOTH",
"272 242 LINE SMOOTH",
"272 224 OFFCURVE",
"329 195 OFFCURVE",
"352 195 CURVE SMOOTH",
"358 195 OFFCURVE",
"362 199 OFFCURVE",
"362 208 CURVE SMOOTH",
"362 265 LINE SMOOTH",
"362 283 OFFCURVE",
"305 312 OFFCURVE",
"282 312 CURVE SMOOTH"
);
}
);
width = 678;
}
);
leftKerningGroup = nya;
rightKerningGroup = jha;
script = siddham;
category = Letter;
subCategory = Other;
},
{
glyphname = "jha-sidd.iniThird.aaMatra";
production = uni11596.iniThird.aaMatra;
lastChange = "2019-04-05 14:14:11 +0000";
layers = (
{
anchors = (
{
name = _bottom;
position = "{239, 645}";
},
{
name = bottom;
position = "{239, 295}";
},
{
name = top;
position = "{220, 680}";
},
{
name = topleft;
position = "{95, 680}";
}
);
layerId = "56FF8C95-10BF-4749-91E0-C1649AF59D40";
paths = (
{
closed = 1;
nodes = (
"323 405 OFFCURVE",
"400 373 OFFCURVE",
"507 305 CURVE",
"528 328 LINE",
"483 368 OFFCURVE",
"461 397 OFFCURVE",
"461 433 CURVE SMOOTH",
"461 458 OFFCURVE",
"479 471 OFFCURVE",
"502 471 CURVE SMOOTH",
"515 471 OFFCURVE",
"525 465 OFFCURVE",
"535 455 CURVE",
"548 444 OFFCURVE",
"570 460 OFFCURVE",
"559 476 CURVE SMOOTH",
"531 515 OFFCURVE",
"492 546 OFFCURVE",
"450 546 CURVE SMOOTH",
"408 546 OFFCURVE",
"375 521 OFFCURVE",
"375 475 CURVE SMOOTH",
"375 418 OFFCURVE",
"424 378 OFFCURVE",
"511 314 CURVE",
"486 347 LINE",
"404 422 OFFCURVE",
"319 470 OFFCURVE",
"219 482 CURVE",
"219 405 LINE"
);
},
{
closed = 1;
nodes = (
"284 501 LINE SMOOTH",
"284 555 OFFCURVE",
"368 557 OFFCURVE",
"408 620 CURVE",
"318 683 LINE",
"298 665 OFFCURVE",
"271 655 OFFCURVE",
"245 655 CURVE SMOOTH",
"209 655 OFFCURVE",
"187 671 OFFCURVE",
"157 671 CURVE SMOOTH",
"133 671 OFFCURVE",
"115 660 OFFCURVE",
"104 642 CURVE",
"88 648 OFFCURVE",
"72 656 OFFCURVE",
"59 664 CURVE",
"52 660 OFFCURVE",
"47 653 OFFCURVE",
"47 643 CURVE SMOOTH",
"47 615 OFFCURVE",
"77 580 OFFCURVE",
"249 472 CURVE",
"259 640 LINE",
"208 611 OFFCURVE",
"194 590 OFFCURVE",
"194 558 CURVE SMOOTH",
"194 369 LINE SMOOTH",
"194 351 OFFCURVE",
"251 322 OFFCURVE",
"274 322 CURVE SMOOTH",
"280 322 OFFCURVE",
"284 326 OFFCURVE",
"284 335 CURVE SMOOTH"
);
},
{
closed = 1;
nodes = (
"260 345 LINE",
"22 459 LINE",
"6 427 LINE",
"260 305 LINE"
);
},
{
closed = 1;
nodes = (
"198 382 OFFCURVE",
"194 378 OFFCURVE",
"194 369 CURVE SMOOTH",
"194 312 LINE SMOOTH",
"194 294 OFFCURVE",
"251 265 OFFCURVE",
"274 265 CURVE SMOOTH",
"280 265 OFFCURVE",
"284 269 OFFCURVE",
"284 278 CURVE SMOOTH",
"284 335 LINE SMOOTH",
"284 353 OFFCURVE",
"227 382 OFFCURVE",
"204 382 CURVE SMOOTH"
);
}
);
width = 600;
}
);
leftKerningGroup = jha;
rightKerningGroup = jha;
script = siddham;
category = Letter;
subCategory = Other;
},
{
glyphname = "nya-sidd.iniThird.aaMatra";
production = uni11597.iniThird.aaMatra;
lastChange = "2019-04-05 14:14:11 +0000";
layers = (
{
anchors = (
{
name = _bottom;
position = "{317, 624}";
},
{
name = bottom;
position = "{317.3, 295}";
},
{
name = top;
position = "{317, 680}";
},
{
name = topleft;
position = "{122, 680}";
}
);
layerId = "56FF8C95-10BF-4749-91E0-C1649AF59D40";
paths = (
{
closed = 1;
nodes = (
"272 369 LINE SMOOTH",
"272 351 OFFCURVE",
"329 322 OFFCURVE",
"352 322 CURVE SMOOTH",
"358 322 OFFCURVE",
"362 326 OFFCURVE",
"362 335 CURVE SMOOTH",
"362 501 LINE SMOOTH",
"362 555 OFFCURVE",
"446 557 OFFCURVE",
"486 620 CURVE",
"396 683 LINE",
"342 655 OFFCURVE",
"251 637 OFFCURVE",
"193 637 CURVE",
"193 600 LINE",
"239 600 LINE",
"180 660 OFFCURVE",
"147 683 OFFCURVE",
"106 683 CURVE SMOOTH",
"51 683 OFFCURVE",
"20 652 OFFCURVE",
"20 601 CURVE SMOOTH",
"20 542 OFFCURVE",
"63 502 OFFCURVE",
"141 475 CURVE",
"154 496 LINE",
"128 516 OFFCURVE",
"115 536 OFFCURVE",
"115 560 CURVE SMOOTH",
"115 582 OFFCURVE",
"127 595 OFFCURVE",
"151 595 CURVE SMOOTH",
"186 595 OFFCURVE",
"233 567 OFFCURVE",
"309 490 CURVE",
"272 564 LINE"
);
},
{
closed = 1;
nodes = (
"401 405 OFFCURVE",
"478 373 OFFCURVE",
"585 305 CURVE",
"606 328 LINE",
"561 368 OFFCURVE",
"539 397 OFFCURVE",
"539 433 CURVE SMOOTH",
"539 458 OFFCURVE",
"557 471 OFFCURVE",
"580 471 CURVE SMOOTH",
"593 471 OFFCURVE",
"603 465 OFFCURVE",
"613 455 CURVE",
"626 444 OFFCURVE",
"648 460 OFFCURVE",
"637 476 CURVE SMOOTH",
"608 514 OFFCURVE",
"570 546 OFFCURVE",
"528 546 CURVE SMOOTH",
"486 546 OFFCURVE",
"453 521 OFFCURVE",
"453 475 CURVE SMOOTH",
"453 418 OFFCURVE",
"502 378 OFFCURVE",
"589 314 CURVE",
"564 347 LINE",
"482 422 OFFCURVE",
"397 470 OFFCURVE",
"297 482 CURVE",
"297 405 LINE"
);
},
{
closed = 1;
nodes = (
"338 343 LINE",
"100 440 LINE",
"87 408 LINE",
"338 305 LINE"
);
},
{
closed = 1;
nodes = (
"276 382 OFFCURVE",
"272 378 OFFCURVE",
"272 369 CURVE SMOOTH",
"272 312 LINE SMOOTH",
"272 294 OFFCURVE",
"329 265 OFFCURVE",
"352 265 CURVE SMOOTH",
"358 265 OFFCURVE",
"362 269 OFFCURVE",
"362 278 CURVE SMOOTH",
"362 335 LINE SMOOTH",
"362 353 OFFCURVE",
"305 382 OFFCURVE",
"282 382 CURVE SMOOTH"
);
}
);
width = 679;
}
);
leftKerningGroup = nya;
rightKerningGroup = jha;
script = siddham;
category = Letter;
subCategory = Other;
},
{
glyphname = "jha-sidd.aaMatra";
production = uni11596.aaMatra;
lastChange = "2019-04-05 14:14:11 +0000";
layers = (
{
anchors = (
{
name = bottom;
position = "{239, -51}";
},
{
name = top;
position = "{247, 680}";
},
{
name = topleft;
position = "{122, 680}";
}
);
layerId = "56FF8C95-10BF-4749-91E0-C1649AF59D40";
paths = (
{
closed = 1;
nodes = (
"323 322 OFFCURVE",
"400 266 OFFCURVE",
"507 147 CURVE",
"528 170 LINE",
"483 225 OFFCURVE",
"461 266 OFFCURVE",
"461 317 CURVE SMOOTH",
"461 360 OFFCURVE",
"488 382 OFFCURVE",
"526 382 CURVE SMOOTH",
"542 382 OFFCURVE",
"555 377 OFFCURVE",
"563 369 CURVE",
"573 360 OFFCURVE",
"592 390 OFFCURVE",
"585 399 CURVE SMOOTH",
"554 438 OFFCURVE",
"513 468 OFFCURVE",
"475 468 CURVE SMOOTH",
"418 468 OFFCURVE",
"375 431 OFFCURVE",
"375 362 CURVE SMOOTH",
"375 290 OFFCURVE",
"424 238 OFFCURVE",
"511 156 CURVE",
"486 204 LINE",
"404 317 OFFCURVE",
"319 389 OFFCURVE",
"219 407 CURVE",
"219 322 LINE"
);
},
{
closed = 1;
nodes = (
"284 501 LINE SMOOTH",
"284 555 OFFCURVE",
"368 557 OFFCURVE",
"408 620 CURVE",
"318 683 LINE",
"298 665 OFFCURVE",
"271 655 OFFCURVE",
"245 655 CURVE SMOOTH",
"209 655 OFFCURVE",
"187 671 OFFCURVE",
"157 671 CURVE SMOOTH",
"133 671 OFFCURVE",
"115 660 OFFCURVE",
"104 642 CURVE",
"88 648 OFFCURVE",
"72 656 OFFCURVE",
"59 664 CURVE",
"52 660 OFFCURVE",
"47 653 OFFCURVE",
"47 643 CURVE SMOOTH",
"47 615 OFFCURVE",
"77 580 OFFCURVE",
"249 472 CURVE",
"259 640 LINE",
"208 611 OFFCURVE",
"194 590 OFFCURVE",
"194 558 CURVE SMOOTH",
"194 219 LINE SMOOTH",
"194 201 OFFCURVE",
"251 172 OFFCURVE",
"274 172 CURVE SMOOTH",
"280 172 OFFCURVE",
"284 176 OFFCURVE",
"284 185 CURVE SMOOTH"
);
},
{
closed = 1;
nodes = (
"440 -72 LINE",
"152 125 LINE SMOOTH",
"96 163 OFFCURVE",
"69 175 OFFCURVE",
"46 175 CURVE SMOOTH",
"30 175 OFFCURVE",
"20 166 OFFCURVE",
"20 153 CURVE SMOOTH",
"20 112 OFFCURVE",
"121 27 OFFCURVE",
"197 27 CURVE SMOOTH",
"254 27 OFFCURVE",
"284 63 OFFCURVE",
"284 144 CURVE SMOOTH",
"284 185 LINE SMOOTH",
"284 203 OFFCURVE",
"227 232 OFFCURVE",
"204 232 CURVE SMOOTH",
"198 232 OFFCURVE",
"194 228 OFFCURVE",
"194 219 CURVE SMOOTH",
"194 161 LINE SMOOTH",
"194 124 OFFCURVE",
"184 116 OFFCURVE",
"159 116 CURVE",
"217 38 LINE",
"421 -101 LINE"
);
}
);
width = 600;
}
);
leftKerningGroup = jha;
leftMetricsKey = "=20";
rightKerningGroup = jha;
script = siddham;
category = Letter;
subCategory = Other;
},
{
glyphname = "nya-sidd.aaMatra";
production = uni11597.aaMatra;
lastChange = "2019-04-05 14:14:11 +0000";
layers = (
{
anchors = (
{
name = bottom;
position = "{317, -51}";
},
{
name = top;
position = "{317, 680}";
},
{
name = topleft;
position = "{122, 680}";
}
);
layerId = "56FF8C95-10BF-4749-91E0-C1649AF59D40";
paths = (
{
closed = 1;
nodes = (
"272 219 LINE SMOOTH",
"272 201 OFFCURVE",
"329 172 OFFCURVE",
"352 172 CURVE SMOOTH",
"358 172 OFFCURVE",
"362 176 OFFCURVE",
"362 185 CURVE SMOOTH",
"362 501 LINE SMOOTH",
"362 555 OFFCURVE",
"446 557 OFFCURVE",
"486 620 CURVE",
"396 683 LINE",
"342 655 OFFCURVE",
"251 637 OFFCURVE",
"193 637 CURVE",
"193 600 LINE",
"239 600 LINE",
"180 660 OFFCURVE",
"147 683 OFFCURVE",
"106 683 CURVE SMOOTH",
"51 683 OFFCURVE",
"20 652 OFFCURVE",
"20 601 CURVE SMOOTH",
"20 542 OFFCURVE",
"63 502 OFFCURVE",
"141 475 CURVE",
"154 496 LINE",
"128 516 OFFCURVE",
"115 536 OFFCURVE",
"115 560 CURVE SMOOTH",
"115 582 OFFCURVE",
"127 595 OFFCURVE",
"151 595 CURVE SMOOTH",
"186 595 OFFCURVE",
"233 567 OFFCURVE",
"309 490 CURVE",
"272 564 LINE"
);
},
{
closed = 1;
nodes = (
"401 322 OFFCURVE",
"478 266 OFFCURVE",
"585 147 CURVE",
"606 170 LINE",
"561 225 OFFCURVE",
"539 266 OFFCURVE",
"539 317 CURVE SMOOTH",
"539 360 OFFCURVE",
"566 382 OFFCURVE",
"604 382 CURVE SMOOTH",
"620 382 OFFCURVE",
"633 377 OFFCURVE",
"641 369 CURVE",
"651 360 OFFCURVE",
"670 390 OFFCURVE",
"663 399 CURVE SMOOTH",
"632 438 OFFCURVE",
"591 468 OFFCURVE",
"553 468 CURVE SMOOTH",
"496 468 OFFCURVE",
"453 431 OFFCURVE",
"453 362 CURVE SMOOTH",
"453 290 OFFCURVE",
"502 238 OFFCURVE",
"589 156 CURVE",
"564 204 LINE",
"482 317 OFFCURVE",
"397 389 OFFCURVE",
"297 407 CURVE",
"297 322 LINE"
);
},
{
closed = 1;
nodes = (
"518 -72 LINE",
"230 125 LINE SMOOTH",
"174 163 OFFCURVE",
"147 175 OFFCURVE",
"124 175 CURVE SMOOTH",
"108 175 OFFCURVE",
"98 166 OFFCURVE",
"98 153 CURVE SMOOTH",
"98 112 OFFCURVE",
"199 27 OFFCURVE",
"275 27 CURVE SMOOTH",
"332 27 OFFCURVE",
"362 63 OFFCURVE",
"362 144 CURVE SMOOTH",
"362 185 LINE SMOOTH",
"362 203 OFFCURVE",
"305 232 OFFCURVE",
"282 232 CURVE SMOOTH",
"276 232 OFFCURVE",
"272 228 OFFCURVE",
"272 219 CURVE SMOOTH",
"272 161 LINE SMOOTH",
"272 124 OFFCURVE",
"262 116 OFFCURVE",
"237 116 CURVE",
"295 38 LINE",
"499 -101 LINE"
);
}
);
width = 678;
}
);
leftKerningGroup = nya;
rightKerningGroup = jha;
script = siddham;
category = Letter;
subCategory = Other;
},
{
glyphname = "ka-sidd.ini.centre";
production = uni1158E.ini.centre;
lastChange = "2019-04-05 14:14:12 +0000";
layers = (
{
anchors = (
{
name = _bottom;
position = "{365, 635}";
},
{
name = bottom;
position = "{365, 320}";
},
{
name = top;
position = "{356, 680}";
},
{
name = topleft;
position = "{216, 680}";
}
);
layerId = "56FF8C95-10BF-4749-91E0-C1649AF59D40";
paths = (
{
closed = 1;
nodes = (
"377 497 LINE",
"410 489 LINE",
"470 536 OFFCURVE",
"554 560 OFFCURVE",
"599 620 CURVE",
"509 683 LINE",
"475 658 OFFCURVE",
"430 645 OFFCURVE",
"386 645 CURVE SMOOTH",
"338 645 OFFCURVE",
"308 666 OFFCURVE",
"268 666 CURVE SMOOTH",
"244 666 OFFCURVE",
"226 655 OFFCURVE",
"215 637 CURVE",
"199 643 OFFCURVE",
"183 651 OFFCURVE",
"170 659 CURVE",
"163 655 OFFCURVE",
"158 648 OFFCURVE",
"158 638 CURVE SMOOTH",
"158 596 OFFCURVE",
"251 536 OFFCURVE",
"349 474 CURVE"
);
},
{
closed = 1;
nodes = (
"194 356 OFFCURVE",
"306 437 OFFCURVE",
"410 499 CURVE",
"320 533 LINE",
"192 459 OFFCURVE",
"105 394 OFFCURVE",
"20 313 CURVE",
"110 279 LINE"
);
},
{
closed = 1;
nodes = (
"719 277 LINE",
"618 375 OFFCURVE",
"507 462 OFFCURVE",
"369 550 CURVE",
"333 491 LINE",
"439 439 OFFCURVE",
"586 340 OFFCURVE",
"692 248 CURVE"
);
}
);
width = 739;
}
);
leftKerningGroup = ka;
rightKerningGroup = ka;
script = siddham;
category = Letter;
subCategory = Other;
},
{
glyphname = "tta-sidd.ini.centre";
production = uni11598.ini.centre;
lastChange = "2019-04-05 14:14:12 +0000";
layers = (
{
anchors = (
{
name = _bottom;
position = "{405, 645}";
},
{
name = bottom;
position = "{405, 122}";
},
{
name = top;
position = "{395, 680}";
},
{
name = topleft;
position = "{219, 680}";
}
);
layerId = "56FF8C95-10BF-4749-91E0-C1649AF59D40";
paths = (
{
closed = 1;
nodes = (
"460 122 OFFCURVE",
"545 139 OFFCURVE",
"608 167 CURVE",
"540 253 LINE",
"469 213 OFFCURVE",
"373 187 OFFCURVE",
"301 187 CURVE SMOOTH",
"201 187 OFFCURVE",
"144 228 OFFCURVE",
"144 289 CURVE SMOOTH",
"144 367 OFFCURVE",
"192 408 OFFCURVE",
"317 459 CURVE SMOOTH",
"419 500 OFFCURVE",
"522 561 OFFCURVE",
"583 620 CURVE",
"493 683 LINE",
"465 665 OFFCURVE",
"427 655 OFFCURVE",
"390 655 CURVE SMOOTH",
"342 655 OFFCURVE",
"312 676 OFFCURVE",
"272 676 CURVE SMOOTH",
"248 676 OFFCURVE",
"230 665 OFFCURVE",
"219 647 CURVE",
"203 653 OFFCURVE",
"187 661 OFFCURVE",
"174 669 CURVE",
"167 665 OFFCURVE",
"162 658 OFFCURVE",
"162 648 CURVE SMOOTH",
"162 623 OFFCURVE",
"187 592 OFFCURVE",
"319 505 CURVE",
"298 554 LINE",
"168 495 OFFCURVE",
"50 441 OFFCURVE",
"50 329 CURVE SMOOTH",
"50 228 OFFCURVE",
"190 122 OFFCURVE",
"378 122 CURVE SMOOTH"
);
},
{
closed = 1;
nodes = (
"705 325 LINE",
"605 401 OFFCURVE",
"570 448 OFFCURVE",
"570 500 CURVE SMOOTH",
"570 548 OFFCURVE",
"600 582 OFFCURVE",
"652 616 CURVE",
"561 680 LINE",
"505 641 OFFCURVE",
"479 606 OFFCURVE",
"479 551 CURVE SMOOTH",
"479 461 OFFCURVE",
"548 395 OFFCURVE",
"682 299 CURVE"
);
}
);
width = 725;
}
);
leftKerningGroup = tta;
rightKerningGroup = nga;
script = siddham;
category = Letter;
subCategory = Other;
},
{
glyphname = "ttha-sidd.ini.centre";
production = uni11599.ini.centre;
lastChange = "2019-04-05 14:14:12 +0000";
layers = (
{
anchors = (
{
name = _bottom;
position = "{321, 635}";
},
{
name = bottom;
position = "{323, 90}";
},
{
name = top;
position = "{319, 680}";
},
{
name = topleft;
position = "{202, 680}";
}
);
layerId = "56FF8C95-10BF-4749-91E0-C1649AF59D40";
paths = (
{
closed = 1;
nodes = (
"366 442 LINE",
"366 500 LINE SMOOTH",
"366 554 OFFCURVE",
"450 556 OFFCURVE",
"490 619 CURVE",
"400 682 LINE",
"381 664 OFFCURVE",
"355 654 OFFCURVE",
"331 654 CURVE SMOOTH",
"297 654 OFFCURVE",
"276 670 OFFCURVE",
"247 670 CURVE SMOOTH",
"223 670 OFFCURVE",
"205 659 OFFCURVE",
"194 641 CURVE",
"178 647 OFFCURVE",
"162 655 OFFCURVE",
"149 663 CURVE",
"142 659 OFFCURVE",
"137 652 OFFCURVE",
"137 642 CURVE SMOOTH",
"137 614 OFFCURVE",
"167 579 OFFCURVE",
"339 471 CURVE",
"341 640 LINE",
"290 611 OFFCURVE",
"276 590 OFFCURVE",
"276 558 CURVE SMOOTH",
"276 442 LINE"
);
},
{
closed = 1;
nodes = (
"599 386 OFFCURVE",
"452 482 OFFCURVE",
"301 482 CURVE SMOOTH",
"145 482 OFFCURVE",
"50 399 OFFCURVE",
"50 307 CURVE SMOOTH",
"50 185 OFFCURVE",
"201 90 OFFCURVE",
"350 90 CURVE SMOOTH",
"505 90 OFFCURVE",
"599 173 OFFCURVE",
"599 265 CURVE SMOOTH"
);
},
{
closed = 1;
nodes = (
"509 227 OFFCURVE",
"421 157 OFFCURVE",
"298 157 CURVE SMOOTH",
"194 157 OFFCURVE",
"140 201 OFFCURVE",
"140 266 CURVE SMOOTH",
"140 345 OFFCURVE",
"228 415 OFFCURVE",
"351 415 CURVE SMOOTH",
"455 415 OFFCURVE",
"509 371 OFFCURVE",
"509 305 CURVE SMOOTH"
);
}
);
width = 649;
}
);
leftKerningGroup = ttha;
rightKerningGroup = ttha;
script = siddham;
category = Letter;
subCategory = Other;
},
{
glyphname = "ka-sidd.iniThird.centre";
production = uni1158E.iniThird.centre;
lastChange = "2019-04-05 14:14:12 +0000";
layers = (
{
anchors = (
{
name = _bottom;
position = "{365, 635}";
},
{
name = bottom;
position = "{365, 400}";
},
{
name = top;
position = "{356, 680}";
},
{
name = topleft;
position = "{216, 680}";
}
);
layerId = "56FF8C95-10BF-4749-91E0-C1649AF59D40";
paths = (
{
closed = 1;
nodes = (
"377 504 LINE",
"410 489 LINE",
"470 536 OFFCURVE",
"554 560 OFFCURVE",
"599 620 CURVE",
"509 683 LINE",
"475 658 OFFCURVE",
"430 645 OFFCURVE",
"386 645 CURVE SMOOTH",
"338 645 OFFCURVE",
"308 666 OFFCURVE",
"268 666 CURVE SMOOTH",
"244 666 OFFCURVE",
"226 655 OFFCURVE",
"215 637 CURVE",
"199 643 OFFCURVE",
"183 651 OFFCURVE",
"170 659 CURVE",
"163 655 OFFCURVE",
"158 648 OFFCURVE",
"158 638 CURVE SMOOTH",
"158 598 OFFCURVE",
"241 543 OFFCURVE",
"333 484 CURVE"
);
},
{
closed = 1;
nodes = (
"194 418 OFFCURVE",
"306 466 OFFCURVE",
"410 504 CURVE",
"320 544 LINE",
"192 500 OFFCURVE",
"105 461 OFFCURVE",
"20 413 CURVE",
"110 372 LINE"
);
},
{
closed = 1;
nodes = (
"719 377 LINE",
"618 439 OFFCURVE",
"507 494 OFFCURVE",
"369 550 CURVE",
"333 491 LINE",
"439 460 OFFCURVE",
"586 402 OFFCURVE",
"692 348 CURVE"
);
}
);
width = 739;
}
);
leftKerningGroup = ka;
rightKerningGroup = ka;
script = siddham;
category = Letter;
subCategory = Other;
},
{
glyphname = "tta-sidd.iniThird.centre";
production = uni11598.iniThird.centre;
lastChange = "2019-04-05 14:14:12 +0000";
layers = (
{
anchors = (
{
name = _bottom;
position = "{405, 645}";
},
{
name = bottom;
position = "{405, 222}";
},
{
name = top;
position = "{395, 680}";
},
{
name = topleft;
position = "{219, 680}";
}
);
layerId = "56FF8C95-10BF-4749-91E0-C1649AF59D40";
paths = (
{
closed = 1;
nodes = (
"451 222 OFFCURVE",
"527 233 OFFCURVE",
"583 252 CURVE",
"515 333 LINE",
"452 305 OFFCURVE",
"366 287 OFFCURVE",
"301 287 CURVE SMOOTH",
"201 287 OFFCURVE",
"144 316 OFFCURVE",
"144 359 CURVE SMOOTH",
"144 416 OFFCURVE",
"192 447 OFFCURVE",
"316 486 CURVE SMOOTH",
"419 519 OFFCURVE",
"522 570 OFFCURVE",
"583 620 CURVE",
"493 683 LINE",
"465 665 OFFCURVE",
"427 655 OFFCURVE",
"390 655 CURVE SMOOTH",
"342 655 OFFCURVE",
"312 676 OFFCURVE",
"272 676 CURVE SMOOTH",
"248 676 OFFCURVE",
"230 665 OFFCURVE",
"219 647 CURVE",
"203 653 OFFCURVE",
"187 661 OFFCURVE",
"174 669 CURVE",
"167 665 OFFCURVE",
"162 658 OFFCURVE",
"162 648 CURVE SMOOTH",
"162 623 OFFCURVE",
"187 592 OFFCURVE",
"319 505 CURVE",
"298 579 LINE",
"168 532 OFFCURVE",
"50 488 OFFCURVE",
"50 399 CURVE SMOOTH",
"50 313 OFFCURVE",
"190 222 OFFCURVE",
"378 222 CURVE SMOOTH"
);
},
{
closed = 1;
nodes = (
"705 325 LINE",
"605 401 OFFCURVE",
"570 448 OFFCURVE",
"570 500 CURVE SMOOTH",
"570 548 OFFCURVE",
"600 582 OFFCURVE",
"652 616 CURVE",
"561 680 LINE",
"505 641 OFFCURVE",
"479 606 OFFCURVE",
"479 551 CURVE SMOOTH",
"479 461 OFFCURVE",
"548 395 OFFCURVE",
"682 299 CURVE"
);
}
);
width = 725;
}
);
leftKerningGroup = tta;
rightKerningGroup = nga;
script = siddham;
category = Letter;
subCategory = Other;
},
{
glyphname = "ttha-sidd.iniThird.centre";
production = uni11599.iniThird.centre;
lastChange = "2019-04-05 14:14:12 +0000";
layers = (
{
anchors = (
{
name = _bottom;
position = "{321, 635}";
},
{
name = bottom;
position = "{320, 161}";
},
{
name = top;
position = "{319, 680}";
},
{
name = topleft;
position = "{202, 680}";
}
);
layerId = "56FF8C95-10BF-4749-91E0-C1649AF59D40";
paths = (
{
closed = 1;
nodes = (
"366 454 LINE",
"366 500 LINE SMOOTH",
"366 554 OFFCURVE",
"450 556 OFFCURVE",
"490 619 CURVE",
"400 682 LINE",
"381 664 OFFCURVE",
"355 654 OFFCURVE",
"331 654 CURVE SMOOTH",
"297 654 OFFCURVE",
"276 670 OFFCURVE",
"247 670 CURVE SMOOTH",
"223 670 OFFCURVE",
"205 659 OFFCURVE",
"194 641 CURVE",
"178 647 OFFCURVE",
"162 655 OFFCURVE",
"149 663 CURVE",
"142 659 OFFCURVE",
"137 652 OFFCURVE",
"137 642 CURVE SMOOTH",
"137 614 OFFCURVE",
"167 579 OFFCURVE",
"339 471 CURVE",
"341 640 LINE",
"290 611 OFFCURVE",
"276 590 OFFCURVE",
"276 558 CURVE SMOOTH",
"276 454 LINE"
);
},
{
closed = 1;
nodes = (
"599 414 OFFCURVE",
"448 498 OFFCURVE",
"301 498 CURVE SMOOTH",
"145 498 OFFCURVE",
"50 430 OFFCURVE",
"50 353 CURVE SMOOTH",
"50 245 OFFCURVE",
"205 160 OFFCURVE",
"350 160 CURVE SMOOTH",
"505 160 OFFCURVE",
"599 230 OFFCURVE",
"599 307 CURVE SMOOTH"
);
},
{
closed = 1;
nodes = (
"509 281 OFFCURVE",
"421 227 OFFCURVE",
"298 227 CURVE SMOOTH",
"194 227 OFFCURVE",
"140 263 OFFCURVE",
"140 316 CURVE SMOOTH",
"140 377 OFFCURVE",
"228 431 OFFCURVE",
"351 431 CURVE SMOOTH",
"455 431 OFFCURVE",
"509 395 OFFCURVE",
"509 343 CURVE SMOOTH"
);
}
);
width = 649;
}
);
leftKerningGroup = ttha;
rightKerningGroup = ttha;
script = siddham;
category = Letter;
subCategory = Other;
},
{
glyphname = "da-sidd.ini.diaB";
production = uni1159F.ini.diaB;
lastChange = "2019-04-05 14:14:12 +0000";
layers = (
{
anchors = (
{
name = _bottom;
position = "{334, 635}";
},
{
name = bottom;
position = "{334, 274}";
},
{
name = top;
position = "{334, 680}";
},
{
name = topleft;
position = "{184, 680}";
}
);
layerId = "56FF8C95-10BF-4749-91E0-C1649AF59D40";
paths = (
{
closed = 1;
nodes = (
"334 268 LINE",
"289 310 OFFCURVE",
"191 373 OFFCURVE",
"106 416 CURVE",
"123 359 LINE",
"269 416 OFFCURVE",
"467 536 OFFCURVE",
"558 620 CURVE",
"468 683 LINE",
"434 658 OFFCURVE",
"389 645 OFFCURVE",
"345 645 CURVE SMOOTH",
"297 645 OFFCURVE",
"267 666 OFFCURVE",
"227 666 CURVE SMOOTH",
"203 666 OFFCURVE",
"185 655 OFFCURVE",
"174 637 CURVE",
"158 643 OFFCURVE",
"142 651 OFFCURVE",
"129 659 CURVE",
"122 655 OFFCURVE",
"117 648 OFFCURVE",
"117 638 CURVE SMOOTH",
"117 611 OFFCURVE",
"146 578 OFFCURVE",
"310 478 CURVE",
"320 569 LINE",
"224 507 OFFCURVE",
"131 461 OFFCURVE",
"20 417 CURVE",
"20 391 LINE",
"104 363 OFFCURVE",
"236 297 OFFCURVE",
"334 230 CURVE"
);
},
{
closed = 1;
nodes = (
"286 298 OFFCURVE",
"284 294 OFFCURVE",
"284 291 CURVE",
"284 270 OFFCURVE",
"330 241 OFFCURVE",
"361 241 CURVE",
"368 241 OFFCURVE",
"374 243 OFFCURVE",
"379 247 CURVE",
"444 300 OFFCURVE",
"512 349 OFFCURVE",
"593 400 CURVE",
"503 462 LINE",
"433 417 OFFCURVE",
"352 359 OFFCURVE",
"289 301 CURVE"
);
}
);
width = 613;
}
);
leftKerningGroup = da;
rightKerningGroup = da;
script = siddham;
category = Letter;
subCategory = Other;
},
{
glyphname = "da-sidd.iniThird.diaB";
production = uni1159F.iniThird.diaB;
lastChange = "2019-04-05 14:14:13 +0000";
layers = (
{
anchors = (
{
name = _bottom;
position = "{334, 635}";
},
{
name = bottom;
position = "{334, 311}";
},
{
name = top;
position = "{334, 680}";
},
{
name = topleft;
position = "{184, 680}";
}
);
layerId = "56FF8C95-10BF-4749-91E0-C1649AF59D40";
paths = (
{
closed = 1;
nodes = (
"334 308 LINE",
"289 344 OFFCURVE",
"191 398 OFFCURVE",
"106 436 CURVE",
"129 381 LINE",
"273 434 OFFCURVE",
"468 543 OFFCURVE",
"558 620 CURVE",
"468 683 LINE",
"434 658 OFFCURVE",
"389 645 OFFCURVE",
"345 645 CURVE SMOOTH",
"297 645 OFFCURVE",
"267 666 OFFCURVE",
"227 666 CURVE SMOOTH",
"203 666 OFFCURVE",
"185 655 OFFCURVE",
"174 637 CURVE",
"158 643 OFFCURVE",
"142 651 OFFCURVE",
"129 659 CURVE",
"122 655 OFFCURVE",
"117 648 OFFCURVE",
"117 638 CURVE SMOOTH",
"117 612 OFFCURVE",
"145 579 OFFCURVE",
"305 484 CURVE",
"320 577 LINE",
"224 519 OFFCURVE",
"131 478 OFFCURVE",
"20 437 CURVE",
"20 411 LINE",
"104 387 OFFCURVE",
"236 330 OFFCURVE",
"334 273 CURVE"
);
},
{
closed = 1;
nodes = (
"286 335 OFFCURVE",
"284 331 OFFCURVE",
"284 328 CURVE",
"284 307 OFFCURVE",
"330 278 OFFCURVE",
"361 278 CURVE",
"368 278 OFFCURVE",
"374 280 OFFCURVE",
"379 284 CURVE",
"446 338 OFFCURVE",
"512 384 OFFCURVE",
"593 432 CURVE",
"503 494 LINE",
"433 451 OFFCURVE",
"353 397 OFFCURVE",
"289 338 CURVE"
);
}
);
width = 613;
}
);
leftKerningGroup = da;
rightKerningGroup = da_Third;
script = siddham;
category = Letter;
subCategory = Other;
},
{
glyphname = "a-sidd.ini";
production = uni11580.ini;
lastChange = "2019-04-05 14:14:13 +0000";
layers = (
{
anchors = (
{
name = bottom;
position = "{603, 110}";
},
{
name = top;
position = "{353, 680}";
},
{
name = topleft;
position = "{178, 680}";
}
);
layerId = "56FF8C95-10BF-4749-91E0-C1649AF59D40";
paths = (
{
closed = 1;
nodes = (
"574 345 LINE",
"488 421 OFFCURVE",
"376 473 OFFCURVE",
"276 473 CURVE",
"267 421 LINE",
"342 376 LINE",
"422 376 OFFCURVE",
"504 353 OFFCURVE",
"562 315 CURVE"
);
},
{
closed = 1;
nodes = (
"558 109 OFFCURVE",
"615 80 OFFCURVE",
"638 80 CURVE SMOOTH",
"644 80 OFFCURVE",
"648 84 OFFCURVE",
"648 93 CURVE SMOOTH",
"648 525 LINE SMOOTH",
"648 568 OFFCURVE",
"655 589 OFFCURVE",
"679 616 CURVE",
"589 680 LINE",
"567 657 OFFCURVE",
"558 634 OFFCURVE",
"558 586 CURVE SMOOTH",
"558 127 LINE SMOOTH"
);
},
{
closed = 1;
nodes = (
"111 610 OFFCURVE",
"141 575 OFFCURVE",
"313 467 CURVE",
"365 648 LINE",
"126 423 LINE",
"216 359 LINE",
"239 381 OFFCURVE",
"263 391 OFFCURVE",
"286 391 CURVE SMOOTH",
"322 391 OFFCURVE",
"349 367 OFFCURVE",
"349 321 CURVE SMOOTH",
"349 256 OFFCURVE",
"285 176 OFFCURVE",
"189 176 CURVE SMOOTH",
"145 176 OFFCURVE",
"123 194 OFFCURVE",
"123 230 CURVE SMOOTH",
"123 257 OFFCURVE",
"134 283 OFFCURVE",
"165 313 CURVE",
"75 377 LINE",
"44 352 OFFCURVE",
"30 323 OFFCURVE",
"30 290 CURVE SMOOTH",
"30 248 OFFCURVE",
"53 200 OFFCURVE",
"111 154 CURVE SMOOTH",
"160 115 OFFCURVE",
"202 100 OFFCURVE",
"249 100 CURVE SMOOTH",
"362 100 OFFCURVE",
"439 174 OFFCURVE",
"439 262 CURVE SMOOTH",
"439 347 OFFCURVE",
"372 403 OFFCURVE",
"271 439 CURVE",
"245 394 LINE",
"484 619 LINE",
"394 683 LINE",
"372 658 OFFCURVE",
"343 645 OFFCURVE",
"315 645 CURVE SMOOTH",
"277 645 OFFCURVE",
"253 666 OFFCURVE",
"221 666 CURVE SMOOTH",
"197 666 OFFCURVE",
"179 655 OFFCURVE",
"168 637 CURVE",
"152 643 OFFCURVE",
"136 651 OFFCURVE",
"123 659 CURVE",
"116 655 OFFCURVE",
"111 648 OFFCURVE",
"111 638 CURVE SMOOTH"
);
}
);
width = 750;
}
);
rightKerningGroup = gha;
script = siddham;
category = Letter;
subCategory = Other;
},
{
glyphname = "aa-sidd.ini";
production = uni11581.ini;
lastChange = "2019-04-05 14:14:13 +0000";
layers = (
{
anchors = (
{
name = bottom;
position = "{603, 110}";
},
{
name = top;
position = "{353, 680}";
},
{
name = topleft;
position = "{178, 680}";
}
);
layerId = "56FF8C95-10BF-4749-91E0-C1649AF59D40";
paths = (
{
closed = 1;
nodes = (
"574 345 LINE",
"488 421 OFFCURVE",
"376 473 OFFCURVE",
"276 473 CURVE",
"267 421 LINE",
"342 376 LINE",
"422 376 OFFCURVE",
"504 353 OFFCURVE",
"562 315 CURVE"
);
},
{
closed = 1;
nodes = (
"558 109 OFFCURVE",
"615 80 OFFCURVE",
"638 80 CURVE SMOOTH",
"644 80 OFFCURVE",
"648 84 OFFCURVE",
"648 93 CURVE SMOOTH",
"648 525 LINE SMOOTH",
"648 568 OFFCURVE",
"655 589 OFFCURVE",
"679 616 CURVE",
"589 680 LINE",
"567 657 OFFCURVE",
"558 634 OFFCURVE",
"558 586 CURVE SMOOTH",
"558 127 LINE SMOOTH"
);
},
{
closed = 1;
nodes = (
"111 610 OFFCURVE",
"141 575 OFFCURVE",
"313 467 CURVE",
"365 648 LINE",
"126 423 LINE",
"216 359 LINE",
"239 381 OFFCURVE",
"263 391 OFFCURVE",
"286 391 CURVE SMOOTH",
"322 391 OFFCURVE",
"349 367 OFFCURVE",
"349 321 CURVE SMOOTH",
"349 256 OFFCURVE",
"285 176 OFFCURVE",
"189 176 CURVE SMOOTH",
"145 176 OFFCURVE",
"123 194 OFFCURVE",
"123 230 CURVE SMOOTH",
"123 257 OFFCURVE",
"134 283 OFFCURVE",
"165 313 CURVE",
"75 377 LINE",
"44 352 OFFCURVE",
"30 323 OFFCURVE",
"30 290 CURVE SMOOTH",
"30 248 OFFCURVE",
"53 200 OFFCURVE",
"111 154 CURVE SMOOTH",
"160 115 OFFCURVE",
"202 100 OFFCURVE",
"249 100 CURVE SMOOTH",
"362 100 OFFCURVE",
"439 174 OFFCURVE",
"439 262 CURVE SMOOTH",
"439 347 OFFCURVE",
"372 403 OFFCURVE",
"271 439 CURVE",
"245 394 LINE",
"484 619 LINE",
"394 683 LINE",
"372 658 OFFCURVE",
"343 645 OFFCURVE",
"315 645 CURVE SMOOTH",
"277 645 OFFCURVE",
"253 666 OFFCURVE",
"221 666 CURVE SMOOTH",
"197 666 OFFCURVE",
"179 655 OFFCURVE",
"168 637 CURVE",
"152 643 OFFCURVE",
"136 651 OFFCURVE",
"123 659 CURVE",
"116 655 OFFCURVE",
"111 648 OFFCURVE",
"111 638 CURVE SMOOTH"
);
},
{
closed = 1;
nodes = (
"826 325 LINE",
"726 401 OFFCURVE",
"691 448 OFFCURVE",
"691 500 CURVE SMOOTH",
"691 548 OFFCURVE",
"721 582 OFFCURVE",
"773 616 CURVE",
"682 680 LINE",
"626 641 OFFCURVE",
"600 606 OFFCURVE",
"600 551 CURVE SMOOTH",
"600 461 OFFCURVE",
"669 395 OFFCURVE",
"803 299 CURVE"
);
}
);
width = 846;
}
);
rightKerningGroup = nga;
script = siddham;
category = Letter;
subCategory = Other;
},
{
glyphname = "ka-sidd.ini";
production = uni1158E.ini;
lastChange = "2019-04-05 14:14:13 +0000";
layers = (
{
anchors = (
{
name = _bottom;
position = "{361, 635}";
},
{
name = bottom;
position = "{361, 260}";
},
{
name = top;
position = "{356, 680}";
},
{
name = topleft;
position = "{216, 680}";
}
);
layerId = "56FF8C95-10BF-4749-91E0-C1649AF59D40";
paths = (
{
closed = 1;
nodes = (
"190 459 OFFCURVE",
"104 394 OFFCURVE",
"20 313 CURVE",
"110 279 LINE",
"193 356 OFFCURVE",
"303 437 OFFCURVE",
"406 499 CURVE",
"316 533 LINE"
);
},
{
closed = 1;
nodes = (
"329 491 LINE",
"434 439 OFFCURVE",
"579 340 OFFCURVE",
"684 248 CURVE",
"711 277 LINE",
"611 375 OFFCURVE",
"501 462 OFFCURVE",
"365 550 CURVE"
);
},
{
closed = 1;
nodes = (
"471 658 OFFCURVE",
"426 645 OFFCURVE",
"382 645 CURVE SMOOTH",
"334 645 OFFCURVE",
"304 666 OFFCURVE",
"264 666 CURVE SMOOTH",
"240 666 OFFCURVE",
"222 655 OFFCURVE",
"211 637 CURVE",
"195 643 OFFCURVE",
"179 651 OFFCURVE",
"166 659 CURVE",
"159 655 OFFCURVE",
"154 648 OFFCURVE",
"154 638 CURVE SMOOTH",
"154 621 OFFCURVE",
"165 605 OFFCURVE",
"191 582 CURVE SMOOTH",
"221 555 OFFCURVE",
"272 520 OFFCURVE",
"356 467 CURVE",
"357 610 LINE",
"328 597 OFFCURVE",
"316 574 OFFCURVE",
"316 526 CURVE SMOOTH",
"316 277 LINE SMOOTH",
"316 259 OFFCURVE",
"373 230 OFFCURVE",
"396 230 CURVE SMOOTH",
"402 230 OFFCURVE",
"406 234 OFFCURVE",
"406 243 CURVE SMOOTH",
"406 489 LINE",
"466 536 OFFCURVE",
"550 560 OFFCURVE",
"595 620 CURVE",
"505 683 LINE"
);
}
);
width = 731;
}
);
leftKerningGroup = ka;
rightKerningGroup = ka;
script = siddham;
category = Letter;
subCategory = Other;
},
{
glyphname = "kha-sidd.ini";
production = uni1158F.ini;
lastChange = "2019-04-05 14:14:13 +0000";
layers = (
{
anchors = (
{
name = _bottom;
position = "{397, 625}";
},
{
name = bottom;
position = "{610, 199}";
},
{
name = top;
position = "{387, 680}";
},
{
name = topleft;
position = "{150, 680}";
}
);
layerId = "56FF8C95-10BF-4749-91E0-C1649AF59D40";
paths = (
{
closed = 1;
nodes = (
"639 255 LINE",
"504 312 OFFCURVE",
"450 343 OFFCURVE",
"450 385 CURVE SMOOTH",
"450 422 OFFCURVE",
"501 454 OFFCURVE",
"571 489 CURVE",
"622 515 LINE",
"677 538 OFFCURVE",
"730 567 OFFCURVE",
"784 606 CURVE",
"784 619 LINE",
"706 680 LINE",
"641 643 OFFCURVE",
"571 621 OFFCURVE",
"491 621 CURVE SMOOTH",
"388 621 OFFCURVE",
"319 690 OFFCURVE",
"210 690 CURVE SMOOTH",
"140 690 OFFCURVE",
"107 652 OFFCURVE",
"107 612 CURVE SMOOTH",
"107 566 OFFCURVE",
"140 524 OFFCURVE",
"214 480 CURVE",
"272 468 LINE",
"214 502 OFFCURVE",
"194 527 OFFCURVE",
"194 555 CURVE SMOOTH",
"194 587 OFFCURVE",
"223 607 OFFCURVE",
"270 607 CURVE SMOOTH",
"365 607 OFFCURVE",
"459 528 OFFCURVE",
"560 528 CURVE",
"570 581 LINE",
"465 524 OFFCURVE",
"370 479 OFFCURVE",
"370 413 CURVE SMOOTH",
"370 332 OFFCURVE",
"503 268 OFFCURVE",
"639 214 CURVE"
);
},
{
closed = 1;
nodes = (
"246 236 OFFCURVE",
"276 274 OFFCURVE",
"276 316 CURVE SMOOTH",
"276 361 OFFCURVE",
"245 406 OFFCURVE",
"158 462 CURVE",
"132 439 LINE",
"171 413 OFFCURVE",
"186 389 OFFCURVE",
"186 363 CURVE SMOOTH",
"186 332 OFFCURVE",
"157 297 OFFCURVE",
"103 259 CURVE",
"193 196 LINE"
);
},
{
closed = 1;
nodes = (
"174 382 OFFCURVE",
"234 424 OFFCURVE",
"272 468 CURVE",
"180 525 LINE",
"152 488 OFFCURVE",
"103 455 OFFCURVE",
"20 423 CURVE",
"110 360 LINE"
);
},
{
closed = 1;
nodes = (
"651 169 OFFCURVE",
"655 173 OFFCURVE",
"655 182 CURVE SMOOTH",
"655 582 LINE",
"565 582 LINE",
"565 216 LINE SMOOTH",
"565 198 OFFCURVE",
"622 169 OFFCURVE",
"645 169 CURVE SMOOTH"
);
}
);
width = 804;
}
);
leftKerningGroup = kha;
rightKerningGroup = kha;
script = siddham;
category = Letter;
subCategory = Other;
},
{
glyphname = "ga-sidd.ini";
production = uni11590.ini;
lastChange = "2019-04-05 14:14:13 +0000";
layers = (
{
anchors = (
{
name = bottom;
position = "{550, 199}";
},
{
name = top;
position = "{372, 680}";
},
{
name = topleft;
position = "{150, 680}";
}
);
layerId = "56FF8C95-10BF-4749-91E0-C1649AF59D40";
paths = (
{
closed = 1;
nodes = (
"599 543 OFFCURVE",
"661 562 OFFCURVE",
"724 606 CURVE",
"724 619 LINE",
"646 680 LINE",
"596 653 OFFCURVE",
"537 636 OFFCURVE",
"481 636 CURVE SMOOTH",
"380 636 OFFCURVE",
"301 690 OFFCURVE",
"205 690 CURVE SMOOTH",
"138 690 OFFCURVE",
"107 652 OFFCURVE",
"107 612 CURVE SMOOTH",
"107 566 OFFCURVE",
"140 524 OFFCURVE",
"214 480 CURVE",
"272 468 LINE",
"214 502 OFFCURVE",
"194 527 OFFCURVE",
"194 555 CURVE SMOOTH",
"194 587 OFFCURVE",
"221 607 OFFCURVE",
"265 607 CURVE SMOOTH",
"348 607 OFFCURVE",
"451 543 OFFCURVE",
"550 543 CURVE SMOOTH"
);
},
{
closed = 1;
nodes = (
"132 439 LINE",
"171 413 OFFCURVE",
"186 389 OFFCURVE",
"186 363 CURVE SMOOTH",
"186 332 OFFCURVE",
"157 297 OFFCURVE",
"103 259 CURVE",
"193 196 LINE",
"246 236 OFFCURVE",
"276 274 OFFCURVE",
"276 316 CURVE SMOOTH",
"276 361 OFFCURVE",
"245 406 OFFCURVE",
"158 462 CURVE"
);
},
{
closed = 1;
nodes = (
"595 602 LINE",
"505 602 LINE",
"505 216 LINE SMOOTH",
"505 198 OFFCURVE",
"562 169 OFFCURVE",
"585 169 CURVE SMOOTH",
"591 169 OFFCURVE",
"595 173 OFFCURVE",
"595 182 CURVE SMOOTH"
);
},
{
closed = 1;
nodes = (
"180 525 LINE",
"152 488 OFFCURVE",
"103 455 OFFCURVE",
"20 423 CURVE",
"110 360 LINE",
"174 382 OFFCURVE",
"234 424 OFFCURVE",
"272 468 CURVE"
);
}
);
width = 744;
}
);
leftKerningGroup = kha;
rightKerningGroup = kha;
script = siddham;
category = Letter;
subCategory = Other;
},
{
glyphname = "gha-sidd.ini";
production = uni11591.ini;
lastChange = "2019-04-05 14:14:13 +0000";
layers = (
{
anchors = (
{
name = _bottom;
position = "{192, 635}";
},
{
name = bottom;
position = "{682, 193}";
},
{
name = top;
position = "{437, 680}";
},
{
name = topleft;
position = "{77, 680}";
}
);
layerId = "56FF8C95-10BF-4749-91E0-C1649AF59D40";
paths = (
{
closed = 1;
nodes = (
"418 295 OFFCURVE",
"443 300 OFFCURVE",
"465 306 CURVE",
"402 405 LINE",
"373 378 OFFCURVE",
"342 366 OFFCURVE",
"310 366 CURVE SMOOTH",
"263 366 OFFCURVE",
"237 388 OFFCURVE",
"237 433 CURVE SMOOTH",
"237 492 LINE SMOOTH",
"237 546 OFFCURVE",
"321 557 OFFCURVE",
"361 620 CURVE",
"271 683 LINE",
"252 665 OFFCURVE",
"227 655 OFFCURVE",
"203 655 CURVE SMOOTH",
"169 655 OFFCURVE",
"148 671 OFFCURVE",
"120 671 CURVE SMOOTH",
"96 671 OFFCURVE",
"78 660 OFFCURVE",
"67 642 CURVE",
"51 648 OFFCURVE",
"35 656 OFFCURVE",
"22 664 CURVE",
"15 660 OFFCURVE",
"10 653 OFFCURVE",
"10 643 CURVE SMOOTH",
"10 615 OFFCURVE",
"40 580 OFFCURVE",
"212 477 CURVE",
"212 643 LINE",
"161 614 OFFCURVE",
"147 593 OFFCURVE",
"147 561 CURVE SMOOTH",
"147 496 LINE SMOOTH",
"147 385 OFFCURVE",
"258 295 OFFCURVE",
"395 295 CURVE SMOOTH"
);
},
{
closed = 1;
nodes = (
"656 228 OFFCURVE",
"674 230 OFFCURVE",
"690 233 CURVE",
"644 335 LINE",
"616 310 OFFCURVE",
"586 299 OFFCURVE",
"555 299 CURVE SMOOTH",
"508 299 OFFCURVE",
"482 320 OFFCURVE",
"482 366 CURVE SMOOTH",
"482 526 LINE SMOOTH",
"482 569 OFFCURVE",
"489 590 OFFCURVE",
"513 617 CURVE",
"423 680 LINE",
"401 657 OFFCURVE",
"392 634 OFFCURVE",
"392 586 CURVE SMOOTH",
"392 429 LINE SMOOTH",
"392 318 OFFCURVE",
"503 228 OFFCURVE",
"640 228 CURVE SMOOTH"
);
},
{
closed = 1;
nodes = (
"723 163 OFFCURVE",
"727 167 OFFCURVE",
"727 176 CURVE SMOOTH",
"727 526 LINE SMOOTH",
"727 569 OFFCURVE",
"734 590 OFFCURVE",
"758 617 CURVE",
"668 680 LINE",
"646 657 OFFCURVE",
"637 634 OFFCURVE",
"637 586 CURVE SMOOTH",
"637 210 LINE SMOOTH",
"637 192 OFFCURVE",
"694 163 OFFCURVE",
"717 163 CURVE SMOOTH"
);
}
);
width = 829;
}
);
leftKerningGroup = gha;
rightKerningGroup = gha;
script = siddham;
category = Letter;
subCategory = Other;
},
{
glyphname = "nga-sidd.ini";
production = uni11592.ini;
lastChange = "2019-04-05 14:14:14 +0000";
layers = (
{
anchors = (
{
name = _bottom;
position = "{343, 635}";
},
{
name = bottom;
position = "{343, 190}";
},
{
name = top;
position = "{324, 680}";
},
{
name = topleft;
position = "{162, 680}";
}
);
layerId = "56FF8C95-10BF-4749-91E0-C1649AF59D40";
paths = (
{
closed = 1;
nodes = (
"668 325 LINE",
"568 401 OFFCURVE",
"533 448 OFFCURVE",
"533 500 CURVE SMOOTH",
"533 548 OFFCURVE",
"563 582 OFFCURVE",
"615 616 CURVE",
"524 680 LINE",
"468 641 OFFCURVE",
"442 606 OFFCURVE",
"442 551 CURVE SMOOTH",
"442 461 OFFCURVE",
"511 395 OFFCURVE",
"645 299 CURVE"
);
},
{
closed = 1;
nodes = (
"298 207 LINE SMOOTH",
"298 189 OFFCURVE",
"355 160 OFFCURVE",
"378 160 CURVE SMOOTH",
"384 160 OFFCURVE",
"388 164 OFFCURVE",
"388 173 CURVE",
"388 193 LINE",
"306 262 OFFCURVE",
"202 336 OFFCURVE",
"106 394 CURVE",
"119 329 LINE",
"259 389 OFFCURVE",
"449 524 OFFCURVE",
"536 620 CURVE",
"446 683 LINE",
"412 658 OFFCURVE",
"367 645 OFFCURVE",
"323 645 CURVE SMOOTH",
"275 645 OFFCURVE",
"245 666 OFFCURVE",
"205 666 CURVE SMOOTH",
"181 666 OFFCURVE",
"163 655 OFFCURVE",
"152 637 CURVE",
"136 643 OFFCURVE",
"120 651 OFFCURVE",
"107 659 CURVE",
"100 655 OFFCURVE",
"95 648 OFFCURVE",
"95 638 CURVE SMOOTH",
"95 611 OFFCURVE",
"124 576 OFFCURVE",
"289 472 CURVE",
"328 562 LINE",
"229 489 OFFCURVE",
"134 436 OFFCURVE",
"20 385 CURVE",
"20 359 LINE",
"113 320 OFFCURVE",
"213 266 OFFCURVE",
"310 205 CURVE",
"298 236 LINE"
);
}
);
width = 688;
}
);
leftKerningGroup = nga;
leftMetricsKey = "nga-sidd";
rightKerningGroup = nga;
rightMetricsKey = "nga-sidd";
script = siddham;
category = Letter;
subCategory = Other;
},
{
glyphname = "ca-sidd.ini";
production = uni11593.ini;
lastChange = "2019-04-05 14:14:14 +0000";
layers = (
{
anchors = (
{
name = _bottom;
position = "{380, 632.333}";
},
{
name = bottom;
position = "{380, 146}";
},
{
name = top;
position = "{370, 680}";
},
{
name = topleft;
position = "{232, 680}";
}
);
layerId = "56FF8C95-10BF-4749-91E0-C1649AF59D40";
paths = (
{
closed = 1;
nodes = (
"421 116 OFFCURVE",
"425 120 OFFCURVE",
"425 129 CURVE SMOOTH",
"425 499 LINE",
"335 499 LINE",
"335 163 LINE SMOOTH",
"335 145 OFFCURVE",
"392 116 OFFCURVE",
"415 116 CURVE SMOOTH"
);
},
{
closed = 1;
nodes = (
"175 613 OFFCURVE",
"205 578 OFFCURVE",
"377 470 CURVE",
"378 557 LINE",
"263 482 OFFCURVE",
"153 427 OFFCURVE",
"20 373 CURVE",
"20 347 LINE",
"107 314 OFFCURVE",
"244 235 OFFCURVE",
"346 156 CURVE",
"346 196 LINE",
"302 244 OFFCURVE",
"205 316 OFFCURVE",
"121 366 CURVE",
"124 319 LINE",
"292 382 OFFCURVE",
"516 521 OFFCURVE",
"620 620 CURVE",
"530 683 LINE",
"496 660 OFFCURVE",
"451 648 OFFCURVE",
"407 648 CURVE SMOOTH",
"357 648 OFFCURVE",
"326 669 OFFCURVE",
"285 669 CURVE SMOOTH",
"261 669 OFFCURVE",
"243 658 OFFCURVE",
"232 640 CURVE",
"216 646 OFFCURVE",
"200 654 OFFCURVE",
"187 662 CURVE",
"180 658 OFFCURVE",
"175 651 OFFCURVE",
"175 641 CURVE SMOOTH"
);
}
);
width = 640;
}
);
leftKerningGroup = ca;
rightKerningGroup = ca;
script = siddham;
category = Letter;
subCategory = Other;
},
{
glyphname = "cha-sidd.ini";
production = uni11594.ini;
lastChange = "2019-04-05 14:14:14 +0000";
layers = (
{
anchors = (
{
name = _bottom;
position = "{394, 635}";
},
{
name = bottom;
position = "{394, 125}";
},
{
name = top;
position = "{394, 680}";
},
{
name = topleft;
position = "{254, 680}";
}
);
layerId = "56FF8C95-10BF-4749-91E0-C1649AF59D40";
paths = (
{
closed = 1;
nodes = (
"264 165 OFFCURVE",
"306 178 OFFCURVE",
"374 227 CURVE",
"374 366 LINE",
"284 453 OFFCURVE",
"234 485 OFFCURVE",
"173 485 CURVE SMOOTH",
"85 485 OFFCURVE",
"30 426 OFFCURVE",
"30 358 CURVE SMOOTH",
"30 265 OFFCURVE",
"120 165 OFFCURVE",
"221 165 CURVE SMOOTH"
);
},
{
closed = 1;
nodes = (
"133 237 OFFCURVE",
"115 250 OFFCURVE",
"115 290 CURVE SMOOTH",
"115 362 OFFCURVE",
"162 404 OFFCURVE",
"224 404 CURVE SMOOTH",
"267 404 OFFCURVE",
"305 375 OFFCURVE",
"382 301 CURVE",
"382 359 LINE",
"282 275 OFFCURVE",
"210 237 OFFCURVE",
"163 237 CURVE SMOOTH"
);
},
{
closed = 1;
nodes = (
"521 246 OFFCURVE",
"482 267 OFFCURVE",
"403 322 CURVE",
"408 268 LINE",
"507 366 OFFCURVE",
"578 413 OFFCURVE",
"625 413 CURVE SMOOTH",
"655 413 OFFCURVE",
"673 400 OFFCURVE",
"673 360 CURVE SMOOTH",
"673 299 OFFCURVE",
"626 246 OFFCURVE",
"564 246 CURVE SMOOTH"
);
},
{
closed = 1;
nodes = (
"703 165 OFFCURVE",
"758 224 OFFCURVE",
"758 292 CURVE SMOOTH",
"758 387 OFFCURVE",
"670 485 OFFCURVE",
"567 485 CURVE SMOOTH",
"524 485 OFFCURVE",
"482 468 OFFCURVE",
"414 403 CURVE",
"414 264 LINE",
"504 192 OFFCURVE",
"554 165 OFFCURVE",
"615 165 CURVE SMOOTH"
);
},
{
closed = 1;
nodes = (
"439 540 OFFCURVE",
"583 560 OFFCURVE",
"628 620 CURVE",
"538 683 LINE",
"504 658 OFFCURVE",
"459 645 OFFCURVE",
"415 645 CURVE SMOOTH",
"367 645 OFFCURVE",
"337 666 OFFCURVE",
"297 666 CURVE SMOOTH",
"273 666 OFFCURVE",
"255 655 OFFCURVE",
"244 637 CURVE",
"228 643 OFFCURVE",
"212 651 OFFCURVE",
"199 659 CURVE",
"192 655 OFFCURVE",
"187 648 OFFCURVE",
"187 638 CURVE SMOOTH",
"187 621 OFFCURVE",
"198 605 OFFCURVE",
"224 582 CURVE SMOOTH",
"254 555 OFFCURVE",
"305 520 OFFCURVE",
"389 467 CURVE",
"390 610 LINE",
"361 597 OFFCURVE",
"349 574 OFFCURVE",
"349 526 CURVE SMOOTH",
"349 142 LINE SMOOTH",
"349 124 OFFCURVE",
"406 95 OFFCURVE",
"429 95 CURVE SMOOTH",
"435 95 OFFCURVE",
"439 99 OFFCURVE",
"439 108 CURVE SMOOTH",
"439 476 LINE SMOOTH"
);
}
);
width = 788;
}
);
leftKerningGroup = cha;
rightKerningGroup = cha;
script = siddham;
category = Letter;
subCategory = Other;
},
{
glyphname = "ja-sidd.ini";
production = uni11595.ini;
lastChange = "2019-04-05 14:14:14 +0000";
layers = (
{
anchors = (
{
name = bottom;
position = "{343, 190}";
},
{
name = top;
position = "{324, 680}";
},
{
name = topleft;
position = "{162, 680}";
}
);
layerId = "56FF8C95-10BF-4749-91E0-C1649AF59D40";
paths = (
{
closed = 1;
nodes = (
"254 407 LINE",
"350 352 OFFCURVE",
"435 290 OFFCURVE",
"513 219 CURVE",
"536 245 LINE",
"467 326 OFFCURVE",
"391 400 OFFCURVE",
"305 466 CURVE"
);
},
{
closed = 1;
nodes = (
"668 325 LINE",
"568 401 OFFCURVE",
"533 448 OFFCURVE",
"533 500 CURVE SMOOTH",
"533 548 OFFCURVE",
"563 582 OFFCURVE",
"615 616 CURVE",
"524 680 LINE",
"468 641 OFFCURVE",
"442 606 OFFCURVE",
"442 551 CURVE SMOOTH",
"442 461 OFFCURVE",
"511 395 OFFCURVE",
"645 299 CURVE"
);
},
{
closed = 1;
nodes = (
"298 207 LINE SMOOTH",
"298 189 OFFCURVE",
"355 160 OFFCURVE",
"378 160 CURVE SMOOTH",
"384 160 OFFCURVE",
"388 164 OFFCURVE",
"388 173 CURVE",
"388 193 LINE",
"306 262 OFFCURVE",
"202 336 OFFCURVE",
"106 394 CURVE",
"119 329 LINE",
"259 389 OFFCURVE",
"449 524 OFFCURVE",
"536 620 CURVE",
"446 683 LINE",
"412 658 OFFCURVE",
"367 645 OFFCURVE",
"323 645 CURVE SMOOTH",
"275 645 OFFCURVE",
"245 666 OFFCURVE",
"205 666 CURVE SMOOTH",
"181 666 OFFCURVE",
"163 655 OFFCURVE",
"152 637 CURVE",
"136 643 OFFCURVE",
"120 651 OFFCURVE",
"107 659 CURVE",
"100 655 OFFCURVE",
"95 648 OFFCURVE",
"95 638 CURVE SMOOTH",
"95 611 OFFCURVE",
"124 576 OFFCURVE",
"289 472 CURVE",
"328 562 LINE",
"229 489 OFFCURVE",
"134 436 OFFCURVE",
"20 385 CURVE",
"20 359 LINE",
"113 320 OFFCURVE",
"213 266 OFFCURVE",
"310 205 CURVE",
"298 236 LINE"
);
}
);
width = 688;
}
);
leftKerningGroup = nga;
rightKerningGroup = nga;
script = siddham;
category = Letter;
subCategory = Other;
},
{
glyphname = "jha-sidd.ini";
production = uni11596.ini;
lastChange = "2019-04-05 14:14:14 +0000";
layers = (
{
anchors = (
{
name = bottom;
position = "{239, 225}";
},
{
name = top;
position = "{220, 680}";
},
{
name = topleft;
position = "{95, 680}";
}
);
layerId = "56FF8C95-10BF-4749-91E0-C1649AF59D40";
paths = (
{
closed = 1;
nodes = (
"323 366 OFFCURVE",
"400 323 OFFCURVE",
"507 231 CURVE",
"528 254 LINE",
"483 301 OFFCURVE",
"461 336 OFFCURVE",
"461 379 CURVE SMOOTH",
"461 431 OFFCURVE",
"490 458 OFFCURVE",
"530 458 CURVE SMOOTH",
"563 458 OFFCURVE",
"581 441 OFFCURVE",
"581 421 CURVE SMOOTH",
"581 396 OFFCURVE",
"562 377 OFFCURVE",
"518 369 CURVE",
"577 292 LINE",
"628 299 OFFCURVE",
"652 335 OFFCURVE",
"652 373 CURVE SMOOTH",
"652 442 OFFCURVE",
"559 538 OFFCURVE",
"481 538 CURVE SMOOTH",
"421 538 OFFCURVE",
"375 498 OFFCURVE",
"375 422 CURVE SMOOTH",
"375 358 OFFCURVE",
"424 312 OFFCURVE",
"511 240 CURVE",
"486 280 LINE",
"404 373 OFFCURVE",
"319 432 OFFCURVE",
"219 447 CURVE",
"219 366 LINE"
);
},
{
closed = 1;
nodes = (
"284 501 LINE SMOOTH",
"284 555 OFFCURVE",
"368 557 OFFCURVE",
"408 620 CURVE",
"318 683 LINE",
"298 665 OFFCURVE",
"271 655 OFFCURVE",
"245 655 CURVE SMOOTH",
"209 655 OFFCURVE",
"187 671 OFFCURVE",
"157 671 CURVE SMOOTH",
"133 671 OFFCURVE",
"115 660 OFFCURVE",
"104 642 CURVE",
"88 648 OFFCURVE",
"72 656 OFFCURVE",
"59 664 CURVE",
"52 660 OFFCURVE",
"47 653 OFFCURVE",
"47 643 CURVE SMOOTH",
"47 615 OFFCURVE",
"77 580 OFFCURVE",
"249 472 CURVE",
"259 640 LINE",
"208 611 OFFCURVE",
"194 590 OFFCURVE",
"194 558 CURVE SMOOTH",
"194 299 LINE SMOOTH",
"194 281 OFFCURVE",
"251 252 OFFCURVE",
"274 252 CURVE SMOOTH",
"280 252 OFFCURVE",
"284 256 OFFCURVE",
"284 265 CURVE SMOOTH"
);
},
{
closed = 1;
nodes = (
"260 275 LINE",
"22 389 LINE",
"6 357 LINE",
"260 235 LINE"
);
},
{
closed = 1;
nodes = (
"198 312 OFFCURVE",
"194 308 OFFCURVE",
"194 299 CURVE SMOOTH",
"194 242 LINE SMOOTH",
"194 224 OFFCURVE",
"251 195 OFFCURVE",
"274 195 CURVE SMOOTH",
"280 195 OFFCURVE",
"284 199 OFFCURVE",
"284 208 CURVE SMOOTH",
"284 265 LINE SMOOTH",
"284 283 OFFCURVE",
"227 312 OFFCURVE",
"204 312 CURVE SMOOTH"
);
}
);
width = 682;
}
);
leftKerningGroup = jha;
rightKerningGroup = jha;
rightMetricsKey = "=30";
script = siddham;
category = Letter;
subCategory = Other;
},
{
glyphname = "nya-sidd.ini";
production = uni11597.ini;
lastChange = "2019-04-05 14:14:14 +0000";
layers = (
{
anchors = (
{
name = bottom;
position = "{317, 225}";
},
{
name = top;
position = "{317, 680}";
},
{
name = topleft;
position = "{122, 680}";
}
);
layerId = "56FF8C95-10BF-4749-91E0-C1649AF59D40";
paths = (
{
closed = 1;
nodes = (
"401 366 OFFCURVE",
"478 323 OFFCURVE",
"585 231 CURVE",
"606 254 LINE",
"561 301 OFFCURVE",
"539 336 OFFCURVE",
"539 379 CURVE SMOOTH",
"539 431 OFFCURVE",
"568 458 OFFCURVE",
"608 458 CURVE SMOOTH",
"641 458 OFFCURVE",
"659 441 OFFCURVE",
"659 421 CURVE SMOOTH",
"659 396 OFFCURVE",
"640 377 OFFCURVE",
"596 369 CURVE",
"655 292 LINE",
"706 299 OFFCURVE",
"730 335 OFFCURVE",
"730 373 CURVE SMOOTH",
"730 442 OFFCURVE",
"637 538 OFFCURVE",
"559 538 CURVE SMOOTH",
"499 538 OFFCURVE",
"453 498 OFFCURVE",
"453 422 CURVE SMOOTH",
"453 358 OFFCURVE",
"502 312 OFFCURVE",
"589 240 CURVE",
"564 280 LINE",
"482 373 OFFCURVE",
"397 432 OFFCURVE",
"297 447 CURVE",
"297 366 LINE"
);
},
{
closed = 1;
nodes = (
"272 299 LINE SMOOTH",
"272 281 OFFCURVE",
"329 252 OFFCURVE",
"352 252 CURVE SMOOTH",
"358 252 OFFCURVE",
"362 256 OFFCURVE",
"362 265 CURVE SMOOTH",
"362 501 LINE SMOOTH",
"362 555 OFFCURVE",
"446 557 OFFCURVE",
"486 620 CURVE",
"396 683 LINE",
"342 655 OFFCURVE",
"251 637 OFFCURVE",
"193 637 CURVE",
"193 600 LINE",
"239 600 LINE",
"180 660 OFFCURVE",
"147 683 OFFCURVE",
"106 683 CURVE SMOOTH",
"51 683 OFFCURVE",
"20 652 OFFCURVE",
"20 601 CURVE SMOOTH",
"20 542 OFFCURVE",
"63 502 OFFCURVE",
"141 475 CURVE",
"154 496 LINE",
"128 516 OFFCURVE",
"115 536 OFFCURVE",
"115 560 CURVE SMOOTH",
"115 582 OFFCURVE",
"127 595 OFFCURVE",
"151 595 CURVE SMOOTH",
"186 595 OFFCURVE",
"233 567 OFFCURVE",
"309 490 CURVE",
"272 564 LINE"
);
},
{
closed = 1;
nodes = (
"338 275 LINE",
"100 389 LINE",
"84 357 LINE",
"338 235 LINE"
);
},
{
closed = 1;
nodes = (
"276 312 OFFCURVE",
"272 308 OFFCURVE",
"272 299 CURVE SMOOTH",
"272 242 LINE SMOOTH",
"272 224 OFFCURVE",
"329 195 OFFCURVE",
"352 195 CURVE SMOOTH",
"358 195 OFFCURVE",
"362 199 OFFCURVE",
"362 208 CURVE SMOOTH",
"362 265 LINE SMOOTH",
"362 283 OFFCURVE",
"305 312 OFFCURVE",
"282 312 CURVE SMOOTH"
);
}
);
width = 760;
}
);
leftKerningGroup = nya;
rightKerningGroup = jha;
script = siddham;
category = Letter;
subCategory = Other;
},
{
glyphname = "tta-sidd.ini";
production = uni11598.ini;
lastChange = "2019-04-05 14:14:14 +0000";
layers = (
{
anchors = (
{
name = _bottom;
position = "{405, 635}";
},
{
name = bottom;
position = "{405, 126}";
},
{
name = top;
position = "{395, 680}";
},
{
name = topleft;
position = "{219, 680}";
}
);
layerId = "56FF8C95-10BF-4749-91E0-C1649AF59D40";
paths = (
{
closed = 1;
nodes = (
"705 325 LINE",
"605 401 OFFCURVE",
"570 448 OFFCURVE",
"570 500 CURVE SMOOTH",
"570 548 OFFCURVE",
"600 582 OFFCURVE",
"652 616 CURVE",
"561 680 LINE",
"505 641 OFFCURVE",
"479 606 OFFCURVE",
"479 551 CURVE SMOOTH",
"479 461 OFFCURVE",
"548 395 OFFCURVE",
"682 299 CURVE"
);
},
{
closed = 1;
nodes = (
"360 176 LINE",
"360 143 LINE SMOOTH",
"360 125 OFFCURVE",
"417 96 OFFCURVE",
"440 96 CURVE SMOOTH",
"446 96 OFFCURVE",
"450 100 OFFCURVE",
"450 109 CURVE SMOOTH",
"450 186 LINE"
);
},
{
closed = 1;
nodes = (
"457 152 OFFCURVE",
"540 167 OFFCURVE",
"600 192 CURVE",
"532 277 LINE",
"464 241 OFFCURVE",
"371 217 OFFCURVE",
"301 217 CURVE SMOOTH",
"201 217 OFFCURVE",
"144 254 OFFCURVE",
"144 310 CURVE SMOOTH",
"144 382 OFFCURVE",
"192 420 OFFCURVE",
"317 467 CURVE SMOOTH",
"419 506 OFFCURVE",
"522 563 OFFCURVE",
"583 620 CURVE",
"493 683 LINE",
"465 665 OFFCURVE",
"427 655 OFFCURVE",
"390 655 CURVE SMOOTH",
"342 655 OFFCURVE",
"312 676 OFFCURVE",
"272 676 CURVE SMOOTH",
"248 676 OFFCURVE",
"230 665 OFFCURVE",
"219 647 CURVE",
"203 653 OFFCURVE",
"187 661 OFFCURVE",
"174 669 CURVE",
"167 665 OFFCURVE",
"162 658 OFFCURVE",
"162 648 CURVE SMOOTH",
"162 623 OFFCURVE",
"187 592 OFFCURVE",
"319 505 CURVE",
"298 561 LINE",
"168 506 OFFCURVE",
"50 455 OFFCURVE",
"50 350 CURVE SMOOTH",
"50 253 OFFCURVE",
"190 152 OFFCURVE",
"378 152 CURVE SMOOTH"
);
}
);
width = 725;
}
);
leftKerningGroup = tta;
rightKerningGroup = nga;
script = siddham;
category = Letter;
subCategory = Other;
},
{
glyphname = "ttha-sidd.ini";
production = uni11599.ini;
lastChange = "2019-04-05 14:14:15 +0000";
layers = (
{
anchors = (
{
name = _bottom;
position = "{321, 635}";
},
{
name = bottom;
position = "{321, 51}";
},
{
name = top;
position = "{319, 680}";
},
{
name = topleft;
position = "{202, 680}";
}
);
layerId = "56FF8C95-10BF-4749-91E0-C1649AF59D40";
paths = (
{
closed = 1;
nodes = (
"366 442 LINE",
"366 500 LINE SMOOTH",
"366 554 OFFCURVE",
"450 556 OFFCURVE",
"490 619 CURVE",
"400 682 LINE",
"381 664 OFFCURVE",
"355 654 OFFCURVE",
"331 654 CURVE SMOOTH",
"297 654 OFFCURVE",
"276 670 OFFCURVE",
"247 670 CURVE SMOOTH",
"223 670 OFFCURVE",
"205 659 OFFCURVE",
"194 641 CURVE",
"178 647 OFFCURVE",
"162 655 OFFCURVE",
"149 663 CURVE",
"142 659 OFFCURVE",
"137 652 OFFCURVE",
"137 642 CURVE SMOOTH",
"137 614 OFFCURVE",
"167 579 OFFCURVE",
"339 471 CURVE",
"341 640 LINE",
"290 611 OFFCURVE",
"276 590 OFFCURVE",
"276 558 CURVE SMOOTH",
"276 442 LINE"
);
},
{
closed = 1;
nodes = (
"599 386 OFFCURVE",
"452 482 OFFCURVE",
"301 482 CURVE SMOOTH",
"145 482 OFFCURVE",
"50 399 OFFCURVE",
"50 307 CURVE SMOOTH",
"50 185 OFFCURVE",
"201 90 OFFCURVE",
"350 90 CURVE SMOOTH",
"505 90 OFFCURVE",
"599 173 OFFCURVE",
"599 265 CURVE SMOOTH"
);
},
{
closed = 1;
nodes = (
"509 227 OFFCURVE",
"421 157 OFFCURVE",
"298 157 CURVE SMOOTH",
"194 157 OFFCURVE",
"140 201 OFFCURVE",
"140 266 CURVE SMOOTH",
"140 345 OFFCURVE",
"228 415 OFFCURVE",
"351 415 CURVE SMOOTH",
"455 415 OFFCURVE",
"509 371 OFFCURVE",
"509 305 CURVE SMOOTH"
);
},
{
closed = 1;
nodes = (
"280 156 OFFCURVE",
"276 152 OFFCURVE",
"276 143 CURVE SMOOTH",
"276 68 LINE SMOOTH",
"276 50 OFFCURVE",
"333 21 OFFCURVE",
"356 21 CURVE SMOOTH",
"362 21 OFFCURVE",
"366 25 OFFCURVE",
"366 34 CURVE SMOOTH",
"366 109 LINE SMOOTH",
"366 127 OFFCURVE",
"309 156 OFFCURVE",
"286 156 CURVE SMOOTH"
);
}
);
width = 649;
}
);
leftKerningGroup = ttha;
rightKerningGroup = ttha;
script = siddham;
category = Letter;
subCategory = Other;
},
{
glyphname = "dda-sidd.ini";
production = uni1159A.ini;
lastChange = "2019-04-05 14:14:15 +0000";
layers = (
{
anchors = (
{
name = _bottom;
position = "{323, 625}";
},
{
name = bottom;
position = "{323.488, 116}";
},
{
name = top;
position = "{323, 680}";
},
{
name = topleft;
position = "{183, 680}";
}
);
layerId = "56FF8C95-10BF-4749-91E0-C1649AF59D40";
paths = (
{
closed = 1;
nodes = (
"325 554 LINE",
"227 478 OFFCURVE",
"132 422 OFFCURVE",
"20 368 CURVE",
"110 305 LINE",
"262 369 OFFCURVE",
"468 516 OFFCURVE",
"563 620 CURVE",
"473 683 LINE",
"439 658 OFFCURVE",
"394 645 OFFCURVE",
"350 645 CURVE SMOOTH",
"302 645 OFFCURVE",
"272 666 OFFCURVE",
"232 666 CURVE SMOOTH",
"208 666 OFFCURVE",
"190 655 OFFCURVE",
"179 637 CURVE",
"163 643 OFFCURVE",
"147 651 OFFCURVE",
"134 659 CURVE",
"127 655 OFFCURVE",
"122 648 OFFCURVE",
"122 638 CURVE SMOOTH",
"122 610 OFFCURVE",
"152 575 OFFCURVE",
"324 467 CURVE"
);
},
{
closed = 1;
nodes = (
"368 572 LINE",
"278 572 LINE",
"278 290 LINE SMOOTH",
"278 272 OFFCURVE",
"335 243 OFFCURVE",
"358 243 CURVE SMOOTH",
"364 243 OFFCURVE",
"368 247 OFFCURVE",
"368 256 CURVE SMOOTH"
);
},
{
closed = 1;
nodes = (
"344 163 LINE",
"106 248 LINE",
"95 216 LINE",
"344 126 LINE"
);
},
{
closed = 1;
nodes = (
"282 303 OFFCURVE",
"278 299 OFFCURVE",
"278 290 CURVE SMOOTH",
"278 133 LINE SMOOTH",
"278 115 OFFCURVE",
"335 86 OFFCURVE",
"358 86 CURVE SMOOTH",
"364 86 OFFCURVE",
"368 90 OFFCURVE",
"368 99 CURVE SMOOTH",
"368 256 LINE SMOOTH",
"368 274 OFFCURVE",
"311 303 OFFCURVE",
"288 303 CURVE SMOOTH"
);
}
);
width = 583;
}
);
leftKerningGroup = dda;
rightKerningGroup = ca;
script = siddham;
category = Letter;
subCategory = Other;
},
{
glyphname = "ddha-sidd.ini";
production = uni1159B.ini;
lastChange = "2019-04-05 14:14:15 +0000";
layers = (
{
anchors = (
{
name = _bottom;
position = "{334, 635}";
},
{
name = bottom;
position = "{334, 161}";
},
{
name = top;
position = "{334, 680}";
},
{
name = topleft;
position = "{184, 680}";
}
);
layerId = "56FF8C95-10BF-4749-91E0-C1649AF59D40";
paths = (
{
closed = 1;
nodes = (
"332 256 LINE",
"286 318 OFFCURVE",
"231 364 OFFCURVE",
"159 364 CURVE",
"99 289 LINE",
"117 297 OFFCURVE",
"137 301 OFFCURVE",
"156 301 CURVE SMOOTH",
"216 301 OFFCURVE",
"278 270 OFFCURVE",
"324 213 CURVE"
);
},
{
closed = 1;
nodes = (
"379 179 LINE SMOOTH",
"379 299 OFFCURVE",
"442 367 OFFCURVE",
"533 367 CURVE SMOOTH",
"584 367 OFFCURVE",
"608 343 OFFCURVE",
"608 310 CURVE SMOOTH",
"608 264 OFFCURVE",
"563 230 OFFCURVE",
"505 230 CURVE SMOOTH",
"488 230 OFFCURVE",
"469 233 OFFCURVE",
"455 239 CURVE",
"433 216 LINE",
"457 179 OFFCURVE",
"506 147 OFFCURVE",
"565 147 CURVE SMOOTH",
"643 147 OFFCURVE",
"698 194 OFFCURVE",
"698 256 CURVE SMOOTH",
"698 330 OFFCURVE",
"607 429 OFFCURVE",
"473 429 CURVE SMOOTH",
"358 429 OFFCURVE",
"289 356 OFFCURVE",
"289 228 CURVE SMOOTH",
"289 178 LINE SMOOTH",
"289 160 OFFCURVE",
"346 131 OFFCURVE",
"369 131 CURVE SMOOTH",
"375 131 OFFCURVE",
"379 135 OFFCURVE",
"379 144 CURVE SMOOTH"
);
},
{
closed = 1;
nodes = (
"117 610 OFFCURVE",
"147 575 OFFCURVE",
"319 467 CURVE",
"320 558 LINE",
"224 476 OFFCURVE",
"131 416 OFFCURVE",
"20 359 CURVE",
"20 333 LINE",
"99 289 LINE",
"253 361 OFFCURVE",
"462 512 OFFCURVE",
"558 620 CURVE",
"468 683 LINE",
"434 658 OFFCURVE",
"389 645 OFFCURVE",
"345 645 CURVE SMOOTH",
"297 645 OFFCURVE",
"267 666 OFFCURVE",
"227 666 CURVE SMOOTH",
"203 666 OFFCURVE",
"185 655 OFFCURVE",
"174 637 CURVE",
"158 643 OFFCURVE",
"142 651 OFFCURVE",
"129 659 CURVE",
"122 655 OFFCURVE",
"117 648 OFFCURVE",
"117 638 CURVE SMOOTH"
);
}
);
width = 738;
}
);
leftKerningGroup = da;
rightKerningGroup = ddha;
script = siddham;
category = Letter;
subCategory = Other;
},
{
glyphname = "nna-sidd.ini";
production = uni1159C.ini;
lastChange = "2019-04-05 14:14:15 +0000";
layers = (
{
anchors = (
{
name = bottom;
position = "{393, 243.333}";
},
{
name = top;
position = "{393, 680}";
},
{
name = topleft;
position = "{162, 680}";
}
);
layerId = "56FF8C95-10BF-4749-91E0-C1649AF59D40";
paths = (
{
closed = 1;
nodes = (
"842 205 LINE",
"750 275 OFFCURVE",
"716 335 OFFCURVE",
"716 394 CURVE SMOOTH",
"716 513 LINE SMOOTH",
"716 597 OFFCURVE",
"600 695 OFFCURVE",
"511 695 CURVE SMOOTH",
"410 695 OFFCURVE",
"355 619 OFFCURVE",
"355 489 CURVE",
"438 455 LINE",
"438 561 OFFCURVE",
"488 624 OFFCURVE",
"561 624 CURVE SMOOTH",
"599 624 OFFCURVE",
"626 599 OFFCURVE",
"626 556 CURVE SMOOTH",
"626 434 LINE SMOOTH",
"626 338 OFFCURVE",
"693 263 OFFCURVE",
"824 175 CURVE"
);
},
{
closed = 1;
nodes = (
"434 213 OFFCURVE",
"438 217 OFFCURVE",
"438 226 CURVE SMOOTH",
"438 459 LINE SMOOTH",
"438 551 OFFCURVE",
"318 658 OFFCURVE",
"226 658 CURVE SMOOTH",
"126 658 OFFCURVE",
"70 584 OFFCURVE",
"70 459 CURVE SMOOTH",
"70 339 LINE",
"145 286 LINE",
"160 292 LINE",
"160 425 LINE SMOOTH",
"160 527 OFFCURVE",
"207 588 OFFCURVE",
"276 588 CURVE SMOOTH",
"318 588 OFFCURVE",
"348 560 OFFCURVE",
"348 512 CURVE SMOOTH",
"348 260 LINE SMOOTH",
"348 242 OFFCURVE",
"405 213 OFFCURVE",
"428 213 CURVE SMOOTH"
);
}
);
width = 862;
}
);
leftKerningGroup = nna;
rightKerningGroup = nna;
script = siddham;
category = Letter;
subCategory = Other;
},
{
glyphname = "ta-sidd.ini";
production = uni1159D.ini;
lastChange = "2019-04-05 14:14:15 +0000";
layers = (
{
anchors = (
{
name = _bottom;
position = "{323, 625}";
},
{
name = bottom;
position = "{323, 273}";
},
{
name = top;
position = "{323, 680}";
},
{
name = topleft;
position = "{183, 680}";
}
);
layerId = "56FF8C95-10BF-4749-91E0-C1649AF59D40";
paths = (
{
closed = 1;
nodes = (
"325 554 LINE",
"227 478 OFFCURVE",
"132 422 OFFCURVE",
"20 368 CURVE",
"110 305 LINE",
"262 369 OFFCURVE",
"468 516 OFFCURVE",
"563 620 CURVE",
"473 683 LINE",
"439 658 OFFCURVE",
"394 645 OFFCURVE",
"350 645 CURVE SMOOTH",
"302 645 OFFCURVE",
"272 666 OFFCURVE",
"232 666 CURVE SMOOTH",
"208 666 OFFCURVE",
"190 655 OFFCURVE",
"179 637 CURVE",
"163 643 OFFCURVE",
"147 651 OFFCURVE",
"134 659 CURVE",
"127 655 OFFCURVE",
"122 648 OFFCURVE",
"122 638 CURVE SMOOTH",
"122 610 OFFCURVE",
"152 575 OFFCURVE",
"324 467 CURVE"
);
},
{
closed = 1;
nodes = (
"368 572 LINE",
"278 572 LINE",
"278 290 LINE SMOOTH",
"278 272 OFFCURVE",
"335 243 OFFCURVE",
"358 243 CURVE SMOOTH",
"364 243 OFFCURVE",
"368 247 OFFCURVE",
"368 256 CURVE SMOOTH"
);
}
);
width = 583;
}
);
leftKerningGroup = dda;
rightKerningGroup = ca;
script = siddham;
category = Letter;
subCategory = Other;
},
{
glyphname = "tha-sidd.ini";
production = uni1159E.ini;
lastChange = "2019-04-05 14:14:15 +0000";
layers = (
{
anchors = (
{
name = _bottom;
position = "{366, 645}";
},
{
name = bottom;
position = "{366, 61}";
},
{
name = top;
position = "{262, 680}";
},
{
name = topleft;
position = "{183, 680}";
}
);
layerId = "56FF8C95-10BF-4749-91E0-C1649AF59D40";
paths = (
{
closed = 1;
nodes = (
"365 326 OFFCURVE",
"383 329 OFFCURVE",
"398 334 CURVE",
"351 473 LINE",
"351 423 OFFCURVE",
"296 398 OFFCURVE",
"239 398 CURVE SMOOTH",
"184 398 OFFCURVE",
"156 418 OFFCURVE",
"156 444 CURVE SMOOTH",
"156 503 OFFCURVE",
"234 551 OFFCURVE",
"442 617 CURVE",
"352 680 LINE",
"163 617 OFFCURVE",
"70 554 OFFCURVE",
"70 490 CURVE SMOOTH",
"70 403 OFFCURVE",
"190 326 OFFCURVE",
"349 326 CURVE SMOOTH"
);
},
{
closed = 1;
nodes = (
"355 81 OFFCURVE",
"373 84 OFFCURVE",
"388 89 CURVE",
"351 230 LINE",
"351 180 OFFCURVE",
"296 155 OFFCURVE",
"239 155 CURVE SMOOTH",
"170 155 OFFCURVE",
"136 178 OFFCURVE",
"136 206 CURVE SMOOTH",
"136 244 OFFCURVE",
"187 277 OFFCURVE",
"326 327 CURVE",
"236 390 LINE",
"111 345 OFFCURVE",
"50 301 OFFCURVE",
"50 247 CURVE SMOOTH",
"50 169 OFFCURVE",
"175 81 OFFCURVE",
"339 81 CURVE SMOOTH"
);
},
{
closed = 1;
nodes = (
"411 526 LINE SMOOTH",
"411 569 OFFCURVE",
"418 590 OFFCURVE",
"442 617 CURVE",
"352 680 LINE",
"330 657 OFFCURVE",
"321 634 OFFCURVE",
"321 586 CURVE SMOOTH",
"321 78 LINE SMOOTH",
"321 60 OFFCURVE",
"378 31 OFFCURVE",
"401 31 CURVE SMOOTH",
"407 31 OFFCURVE",
"411 35 OFFCURVE",
"411 44 CURVE SMOOTH"
);
}
);
width = 513;
}
);
rightKerningGroup = gha;
script = siddham;
category = Letter;
subCategory = Other;
},
{
glyphname = "da-sidd.ini";
production = uni1159F.ini;
lastChange = "2019-04-05 14:14:15 +0000";
layers = (
{
anchors = (
{
name = _bottom;
position = "{334, 635}";
},
{
name = bottom;
position = "{334, 217}";
},
{
name = top;
position = "{334, 680}";
},
{
name = topleft;
position = "{184, 680}";
}
);
layerId = "56FF8C95-10BF-4749-91E0-C1649AF59D40";
paths = (
{
closed = 1;
nodes = (
"334 268 LINE",
"289 310 OFFCURVE",
"191 373 OFFCURVE",
"106 416 CURVE",
"123 359 LINE",
"269 416 OFFCURVE",
"467 536 OFFCURVE",
"558 620 CURVE",
"468 683 LINE",
"434 658 OFFCURVE",
"389 645 OFFCURVE",
"345 645 CURVE SMOOTH",
"297 645 OFFCURVE",
"267 666 OFFCURVE",
"227 666 CURVE SMOOTH",
"203 666 OFFCURVE",
"185 655 OFFCURVE",
"174 637 CURVE",
"158 643 OFFCURVE",
"142 651 OFFCURVE",
"129 659 CURVE",
"122 655 OFFCURVE",
"117 648 OFFCURVE",
"117 638 CURVE SMOOTH",
"117 611 OFFCURVE",
"146 578 OFFCURVE",
"310 478 CURVE",
"320 569 LINE",
"224 507 OFFCURVE",
"131 461 OFFCURVE",
"20 417 CURVE",
"20 391 LINE",
"104 363 OFFCURVE",
"236 297 OFFCURVE",
"334 230 CURVE"
);
},
{
closed = 1;
nodes = (
"375 187 OFFCURVE",
"379 191 OFFCURVE",
"379 200 CURVE SMOOTH",
"379 203 LINE SMOOTH",
"379 278 OFFCURVE",
"452 328 OFFCURVE",
"593 400 CURVE",
"503 462 LINE",
"373 397 OFFCURVE",
"289 336 OFFCURVE",
"289 256 CURVE SMOOTH",
"289 234 LINE SMOOTH",
"289 216 OFFCURVE",
"346 187 OFFCURVE",
"369 187 CURVE SMOOTH"
);
}
);
width = 613;
}
);
leftKerningGroup = da;
rightKerningGroup = da;
script = siddham;
category = Letter;
subCategory = Other;
},
{
glyphname = "dha-sidd.ini";
production = uni115A0.ini;
lastChange = "2019-04-05 14:14:15 +0000";
layers = (
{
anchors = (
{
name = _bottom;
position = "{431, 645}";
},
{
name = bottom;
position = "{431, 171}";
},
{
name = top;
position = "{303, 680}";
},
{
name = topleft;
position = "{211, 650}";
}
);
layerId = "56FF8C95-10BF-4749-91E0-C1649AF59D40";
paths = (
{
closed = 1;
nodes = (
"380 191 OFFCURVE",
"398 194 OFFCURVE",
"413 199 CURVE",
"386 339 LINE",
"386 289 OFFCURVE",
"331 264 OFFCURVE",
"274 264 CURVE SMOOTH",
"179 264 OFFCURVE",
"131 306 OFFCURVE",
"131 359 CURVE SMOOTH",
"131 447 OFFCURVE",
"234 517 OFFCURVE",
"507 617 CURVE",
"417 680 LINE",
"167 590 OFFCURVE",
"45 500 OFFCURVE",
"45 408 CURVE SMOOTH",
"45 300 OFFCURVE",
"189 191 OFFCURVE",
"364 191 CURVE SMOOTH"
);
},
{
closed = 1;
nodes = (
"476 526 LINE SMOOTH",
"476 569 OFFCURVE",
"483 590 OFFCURVE",
"507 617 CURVE",
"417 680 LINE",
"395 657 OFFCURVE",
"386 634 OFFCURVE",
"386 586 CURVE SMOOTH",
"386 188 LINE SMOOTH",
"386 170 OFFCURVE",
"443 141 OFFCURVE",
"466 141 CURVE SMOOTH",
"472 141 OFFCURVE",
"476 145 OFFCURVE",
"476 154 CURVE SMOOTH"
);
}
);
width = 578;
}
);
rightKerningGroup = gha;
script = siddham;
category = Letter;
subCategory = Other;
},
{
glyphname = "na-sidd.ini";
production = uni115A1.ini;
lastChange = "2019-04-05 14:14:16 +0000";
layers = (
{
anchors = (
{
name = _bottom;
position = "{390, 635}";
},
{
name = bottom;
position = "{390, 143}";
},
{
name = top;
position = "{390, 680}";
},
{
name = topleft;
position = "{250, 680}";
}
);
layerId = "56FF8C95-10BF-4749-91E0-C1649AF59D40";
paths = (
{
closed = 1;
nodes = (
"147 208 OFFCURVE",
"159 257 OFFCURVE",
"159 309 CURVE SMOOTH",
"159 382 OFFCURVE",
"127 448 OFFCURVE",
"72 513 CURVE",
"45 494 LINE",
"59 463 OFFCURVE",
"69 416 OFFCURVE",
"69 370 CURVE SMOOTH",
"69 318 OFFCURVE",
"56 273 OFFCURVE",
"30 225 CURVE",
"120 165 LINE"
);
},
{
closed = 1;
nodes = (
"183 610 OFFCURVE",
"213 575 OFFCURVE",
"385 467 CURVE",
"346 530 LINE",
"315 417 OFFCURVE",
"246 355 OFFCURVE",
"178 355 CURVE SMOOTH",
"159 355 OFFCURVE",
"141 360 OFFCURVE",
"126 369 CURVE",
"100 346 LINE",
"146 303 OFFCURVE",
"185 282 OFFCURVE",
"233 282 CURVE SMOOTH",
"307 282 OFFCURVE",
"368 331 OFFCURVE",
"408 415 CURVE",
"429 474 LINE",
"489 502 OFFCURVE",
"565 554 OFFCURVE",
"630 620 CURVE",
"540 683 LINE",
"504 658 OFFCURVE",
"457 645 OFFCURVE",
"411 645 CURVE SMOOTH",
"363 645 OFFCURVE",
"333 666 OFFCURVE",
"293 666 CURVE SMOOTH",
"269 666 OFFCURVE",
"251 655 OFFCURVE",
"240 637 CURVE",
"224 643 OFFCURVE",
"208 651 OFFCURVE",
"195 659 CURVE",
"188 655 OFFCURVE",
"183 648 OFFCURVE",
"183 638 CURVE SMOOTH"
);
},
{
closed = 1;
nodes = (
"435 502 LINE",
"345 472 LINE",
"345 160 LINE SMOOTH",
"345 142 OFFCURVE",
"402 113 OFFCURVE",
"425 113 CURVE SMOOTH",
"431 113 OFFCURVE",
"435 117 OFFCURVE",
"435 126 CURVE SMOOTH"
);
}
);
width = 650;
}
);
leftKerningGroup = na;
rightKerningGroup = ca;
script = siddham;
category = Letter;
subCategory = Other;
},
{
glyphname = "pa-sidd.ini";
production = uni115A2.ini;
lastChange = "2019-04-05 14:14:16 +0000";
layers = (
{
anchors = (
{
name = _bottom;
position = "{192, 645}";
},
{
name = bottom;
position = "{548, 173}";
},
{
name = ssa;
position = "{511, 314}";
},
{
name = top;
position = "{348, 680}";
},
{
name = topleft;
position = "{77, 680}";
}
);
layerId = "56FF8C95-10BF-4749-91E0-C1649AF59D40";
paths = (
{
closed = 1;
nodes = (
"457 213 OFFCURVE",
"493 219 OFFCURVE",
"525 230 CURVE",
"508 346 LINE",
"455 303 OFFCURVE",
"397 284 OFFCURVE",
"343 284 CURVE SMOOTH",
"273 284 OFFCURVE",
"237 311 OFFCURVE",
"237 372 CURVE SMOOTH",
"237 481 LINE SMOOTH",
"237 535 OFFCURVE",
"321 557 OFFCURVE",
"361 620 CURVE",
"271 683 LINE",
"252 665 OFFCURVE",
"227 655 OFFCURVE",
"203 655 CURVE SMOOTH",
"169 655 OFFCURVE",
"148 671 OFFCURVE",
"120 671 CURVE SMOOTH",
"96 671 OFFCURVE",
"78 660 OFFCURVE",
"67 642 CURVE",
"51 648 OFFCURVE",
"35 656 OFFCURVE",
"22 664 CURVE",
"15 660 OFFCURVE",
"10 653 OFFCURVE",
"10 643 CURVE SMOOTH",
"10 615 OFFCURVE",
"40 580 OFFCURVE",
"212 472 CURVE",
"212 643 LINE",
"161 614 OFFCURVE",
"147 593 OFFCURVE",
"147 561 CURVE SMOOTH",
"147 435 LINE SMOOTH",
"147 312 OFFCURVE",
"271 213 OFFCURVE",
"425 213 CURVE SMOOTH"
);
},
{
closed = 1;
nodes = (
"589 143 OFFCURVE",
"593 147 OFFCURVE",
"593 156 CURVE SMOOTH",
"593 526 LINE SMOOTH",
"593 569 OFFCURVE",
"600 590 OFFCURVE",
"624 617 CURVE",
"534 680 LINE",
"512 657 OFFCURVE",
"503 634 OFFCURVE",
"503 586 CURVE SMOOTH",
"503 190 LINE SMOOTH",
"503 172 OFFCURVE",
"560 143 OFFCURVE",
"583 143 CURVE SMOOTH"
);
}
);
width = 695;
}
);
leftKerningGroup = pa;
rightKerningGroup = gha;
script = siddham;
category = Letter;
subCategory = Other;
},
{
glyphname = "pha-sidd.ini";
production = uni115A3.ini;
lastChange = "2019-04-05 14:14:16 +0000";
layers = (
{
anchors = (
{
name = _bottom;
position = "{295, 635}";
},
{
name = bottom;
position = "{295, 156}";
},
{
name = top;
position = "{285, 680}";
},
{
name = topleft;
position = "{145, 680}";
}
);
layerId = "56FF8C95-10BF-4749-91E0-C1649AF59D40";
paths = (
{
closed = 1;
nodes = (
"88 611 OFFCURVE",
"116 578 OFFCURVE",
"271 479 CURVE",
"298 577 LINE",
"153 498 OFFCURVE",
"40 451 OFFCURVE",
"40 373 CURVE SMOOTH",
"40 306 OFFCURVE",
"119 250 OFFCURVE",
"258 183 CURVE",
"278 218 LINE",
"177 265 OFFCURVE",
"130 300 OFFCURVE",
"130 337 CURVE SMOOTH",
"130 437 OFFCURVE",
"482 529 OFFCURVE",
"529 620 CURVE",
"439 683 LINE",
"405 658 OFFCURVE",
"360 645 OFFCURVE",
"316 645 CURVE SMOOTH",
"268 645 OFFCURVE",
"238 666 OFFCURVE",
"198 666 CURVE SMOOTH",
"174 666 OFFCURVE",
"156 655 OFFCURVE",
"145 637 CURVE",
"129 643 OFFCURVE",
"113 651 OFFCURVE",
"100 659 CURVE",
"93 655 OFFCURVE",
"88 648 OFFCURVE",
"88 638 CURVE SMOOTH"
);
},
{
closed = 1;
nodes = (
"250 173 LINE SMOOTH",
"250 155 OFFCURVE",
"307 126 OFFCURVE",
"330 126 CURVE SMOOTH",
"336 126 OFFCURVE",
"340 130 OFFCURVE",
"340 139 CURVE SMOOTH",
"340 193 LINE SMOOTH",
"340 300 OFFCURVE",
"390 362 OFFCURVE",
"488 362 CURVE SMOOTH",
"546 362 OFFCURVE",
"576 332 OFFCURVE",
"576 292 CURVE SMOOTH",
"576 252 OFFCURVE",
"540 224 OFFCURVE",
"486 224 CURVE SMOOTH",
"466 224 OFFCURVE",
"448 228 OFFCURVE",
"433 235 CURVE",
"421 217 LINE",
"454 175 OFFCURVE",
"492 146 OFFCURVE",
"547 146 CURVE SMOOTH",
"615 146 OFFCURVE",
"662 186 OFFCURVE",
"662 244 CURVE SMOOTH",
"662 338 OFFCURVE",
"536 429 OFFCURVE",
"428 429 CURVE SMOOTH",
"320 429 OFFCURVE",
"250 361 OFFCURVE",
"250 256 CURVE SMOOTH"
);
}
);
width = 702;
}
);
leftKerningGroup = pha;
rightKerningGroup = pha;
script = siddham;
category = Letter;
subCategory = Other;
},
{
glyphname = "ba-sidd.ini";
production = uni115A4.ini;
lastChange = "2019-04-05 14:14:16 +0000";
layers = (
{
anchors = (
{
name = _bottom;
position = "{344, 635}";
},
{
name = bottom;
position = "{344, 121}";
},
{
name = top;
position = "{340, 680}";
},
{
name = topleft;
position = "{208, 680}";
}
);
layerId = "56FF8C95-10BF-4749-91E0-C1649AF59D40";
paths = (
{
closed = 1;
nodes = (
"145 610 OFFCURVE",
"175 575 OFFCURVE",
"347 467 CURVE",
"343 560 LINE",
"205 484 OFFCURVE",
"40 430 OFFCURVE",
"40 346 CURVE SMOOTH",
"40 254 OFFCURVE",
"198 141 OFFCURVE",
"313 141 CURVE",
"346 169 LINE",
"299 313 LINE",
"299 258 OFFCURVE",
"255 231 OFFCURVE",
"209 231 CURVE SMOOTH",
"156 231 OFFCURVE",
"126 257 OFFCURVE",
"126 297 CURVE SMOOTH",
"126 403 OFFCURVE",
"430 462 OFFCURVE",
"584 620 CURVE",
"494 683 LINE",
"460 658 OFFCURVE",
"415 645 OFFCURVE",
"371 645 CURVE SMOOTH",
"324 645 OFFCURVE",
"294 666 OFFCURVE",
"255 666 CURVE SMOOTH",
"231 666 OFFCURVE",
"213 655 OFFCURVE",
"202 637 CURVE",
"186 643 OFFCURVE",
"170 651 OFFCURVE",
"157 659 CURVE",
"150 655 OFFCURVE",
"145 648 OFFCURVE",
"145 638 CURVE SMOOTH"
);
},
{
closed = 1;
nodes = (
"389 503 LINE",
"299 503 LINE",
"299 138 LINE SMOOTH",
"299 120 OFFCURVE",
"356 91 OFFCURVE",
"379 91 CURVE SMOOTH",
"385 91 OFFCURVE",
"389 95 OFFCURVE",
"389 104 CURVE SMOOTH"
);
}
);
width = 604;
}
);
leftKerningGroup = ba;
rightKerningGroup = ca;
script = siddham;
category = Letter;
subCategory = Other;
},
{
glyphname = "bha-sidd.ini";
production = uni115A5.ini;
lastChange = "2019-04-05 14:14:16 +0000";
layers = (
{
anchors = (
{
name = _bottom;
position = "{319, 635}";
},
{
name = bottom;
position = "{422, 169}";
},
{
name = top;
position = "{313, 680}";
},
{
name = topleft;
position = "{182, 680}";
}
);
layerId = "56FF8C95-10BF-4749-91E0-C1649AF59D40";
paths = (
{
closed = 1;
nodes = (
"121 610 OFFCURVE",
"151 575 OFFCURVE",
"323 467 CURVE",
"327 542 LINE",
"270 472 OFFCURVE",
"205 438 OFFCURVE",
"144 438 CURVE SMOOTH",
"109 438 OFFCURVE",
"82 454 OFFCURVE",
"36 498 CURVE",
"10 475 LINE",
"78 402 OFFCURVE",
"137 365 OFFCURVE",
"209 365 CURVE SMOOTH",
"326 365 OFFCURVE",
"437 461 OFFCURVE",
"552 620 CURVE",
"462 683 LINE",
"431 658 OFFCURVE",
"389 645 OFFCURVE",
"349 645 CURVE SMOOTH",
"301 645 OFFCURVE",
"271 666 OFFCURVE",
"231 666 CURVE SMOOTH",
"207 666 OFFCURVE",
"189 655 OFFCURVE",
"178 637 CURVE",
"162 643 OFFCURVE",
"146 651 OFFCURVE",
"133 659 CURVE",
"126 655 OFFCURVE",
"121 648 OFFCURVE",
"121 638 CURVE SMOOTH"
);
},
{
closed = 1;
nodes = (
"377 168 OFFCURVE",
"434 139 OFFCURVE",
"457 139 CURVE SMOOTH",
"463 139 OFFCURVE",
"467 143 OFFCURVE",
"467 152 CURVE SMOOTH",
"467 265 LINE SMOOTH",
"467 358 OFFCURVE",
"360 460 OFFCURVE",
"271 460 CURVE SMOOTH",
"222 460 OFFCURVE",
"175 405 OFFCURVE",
"147 252 CURVE",
"237 189 LINE",
"261 328 OFFCURVE",
"290 391 OFFCURVE",
"328 391 CURVE SMOOTH",
"359 391 OFFCURVE",
"377 368 OFFCURVE",
"377 322 CURVE SMOOTH",
"377 186 LINE SMOOTH"
);
}
);
width = 572;
}
);
leftKerningGroup = bha;
rightKerningGroup = ca;
script = siddham;
category = Letter;
subCategory = Other;
},
{
glyphname = "ma-sidd.ini";
production = uni115A6.ini;
lastChange = "2019-04-05 14:14:16 +0000";
layers = (
{
anchors = (
{
name = _bottom;
position = "{250, 645}";
},
{
name = bottom;
position = "{524, 226}";
},
{
name = top;
position = "{318, 680}";
},
{
name = topleft;
position = "{133, 680}";
}
);
layerId = "56FF8C95-10BF-4749-91E0-C1649AF59D40";
paths = (
{
closed = 1;
nodes = (
"493 286 LINE",
"389 358 OFFCURVE",
"249 416 OFFCURVE",
"117 416 CURVE SMOOTH",
"58 416 OFFCURVE",
"33 406 OFFCURVE",
"33 384 CURVE SMOOTH",
"33 346 OFFCURVE",
"102 283 OFFCURVE",
"160 283 CURVE SMOOTH",
"256 283 OFFCURVE",
"343 365 OFFCURVE",
"343 426 CURVE SMOOTH",
"343 459 OFFCURVE",
"308 483 OFFCURVE",
"308 504 CURVE SMOOTH",
"308 536 OFFCURVE",
"401 579 OFFCURVE",
"427 620 CURVE",
"337 683 LINE",
"314 665 OFFCURVE",
"284 655 OFFCURVE",
"254 655 CURVE SMOOTH",
"214 655 OFFCURVE",
"189 671 OFFCURVE",
"156 671 CURVE SMOOTH",
"124 671 OFFCURVE",
"104 652 OFFCURVE",
"104 626 CURVE SMOOTH",
"104 552 OFFCURVE",
"253 528 OFFCURVE",
"253 468 CURVE SMOOTH",
"253 427 OFFCURVE",
"186 374 OFFCURVE",
"63 364 CURVE",
"197 327 LINE",
"288 327 OFFCURVE",
"397 294 OFFCURVE",
"483 248 CURVE"
);
},
{
closed = 1;
nodes = (
"565 196 OFFCURVE",
"569 200 OFFCURVE",
"569 209 CURVE SMOOTH",
"569 526 LINE SMOOTH",
"569 569 OFFCURVE",
"576 590 OFFCURVE",
"600 617 CURVE",
"510 680 LINE",
"488 657 OFFCURVE",
"479 634 OFFCURVE",
"479 586 CURVE SMOOTH",
"479 243 LINE SMOOTH",
"479 225 OFFCURVE",
"536 196 OFFCURVE",
"559 196 CURVE SMOOTH"
);
}
);
width = 671;
}
);
leftKerningGroup = ma;
leftMetricsKey = "ma-sidd";
rightKerningGroup = gha;
script = siddham;
category = Letter;
subCategory = Other;
},
{
glyphname = "ya-sidd.ini";
production = uni115A7.ini;
lastChange = "2019-04-05 14:14:16 +0000";
layers = (
{
anchors = (
{
name = _bottom;
position = "{235, 645}";
},
{
name = bottom;
position = "{511, 189}";
},
{
name = top;
position = "{327, 680}";
},
{
name = topleft;
position = "{119, 680}";
}
);
layerId = "56FF8C95-10BF-4749-91E0-C1649AF59D40";
paths = (
{
closed = 1;
nodes = (
"377 209 OFFCURVE",
"447 222 OFFCURVE",
"509 245 CURVE",
"492 353 LINE",
"415 304 OFFCURVE",
"330 282 OFFCURVE",
"251 282 CURVE SMOOTH",
"164 282 OFFCURVE",
"131 304 OFFCURVE",
"131 337 CURVE SMOOTH",
"131 369 OFFCURVE",
"163 385 OFFCURVE",
"229 385 CURVE SMOOTH",
"247 385 OFFCURVE",
"265 384 OFFCURVE",
"280 381 CURVE",
"280 481 LINE SMOOTH",
"280 535 OFFCURVE",
"364 557 OFFCURVE",
"404 620 CURVE",
"314 683 LINE",
"295 665 OFFCURVE",
"270 655 OFFCURVE",
"246 655 CURVE SMOOTH",
"212 655 OFFCURVE",
"191 671 OFFCURVE",
"163 671 CURVE SMOOTH",
"139 671 OFFCURVE",
"121 660 OFFCURVE",
"110 642 CURVE",
"94 648 OFFCURVE",
"78 656 OFFCURVE",
"65 664 CURVE",
"58 660 OFFCURVE",
"53 653 OFFCURVE",
"53 643 CURVE SMOOTH",
"53 615 OFFCURVE",
"83 580 OFFCURVE",
"255 484 CURVE",
"255 643 LINE",
"204 614 OFFCURVE",
"190 593 OFFCURVE",
"190 561 CURVE SMOOTH",
"190 403 LINE",
"211 452 LINE",
"193 456 OFFCURVE",
"174 458 OFFCURVE",
"152 458 CURVE SMOOTH",
"81 458 OFFCURVE",
"40 436 OFFCURVE",
"40 390 CURVE SMOOTH",
"40 301 OFFCURVE",
"168 209 OFFCURVE",
"317 209 CURVE SMOOTH"
);
},
{
closed = 1;
nodes = (
"552 159 OFFCURVE",
"556 163 OFFCURVE",
"556 172 CURVE SMOOTH",
"556 526 LINE SMOOTH",
"556 569 OFFCURVE",
"563 590 OFFCURVE",
"587 617 CURVE",
"497 680 LINE",
"475 657 OFFCURVE",
"466 634 OFFCURVE",
"466 586 CURVE SMOOTH",
"466 206 LINE SMOOTH",
"466 188 OFFCURVE",
"523 159 OFFCURVE",
"546 159 CURVE SMOOTH"
);
}
);
width = 658;
}
);
leftKerningGroup = ya;
rightKerningGroup = gha;
script = siddham;
category = Letter;
subCategory = Other;
},
{
glyphname = "ra-sidd.ini";
production = uni115A8.ini;
lastChange = "2019-04-05 14:14:17 +0000";
layers = (
{
anchors = (
{
name = _bottom;
position = "{258, 635}";
},
{
name = bottom;
position = "{258, 435}";
},
{
name = top;
position = "{258, 680}";
},
{
name = topleft;
position = "{108, 680}";
}
);
layerId = "56FF8C95-10BF-4749-91E0-C1649AF59D40";
paths = (
{
closed = 1;
nodes = (
"213 434 OFFCURVE",
"270 405 OFFCURVE",
"293 405 CURVE SMOOTH",
"299 405 OFFCURVE",
"303 409 OFFCURVE",
"303 418 CURVE SMOOTH",
"303 476 LINE SMOOTH",
"303 550 OFFCURVE",
"439 560 OFFCURVE",
"482 620 CURVE",
"392 683 LINE",
"358 661 OFFCURVE",
"313 650 OFFCURVE",
"269 650 CURVE SMOOTH",
"221 650 OFFCURVE",
"191 671 OFFCURVE",
"151 671 CURVE SMOOTH",
"127 671 OFFCURVE",
"109 660 OFFCURVE",
"98 642 CURVE",
"82 648 OFFCURVE",
"66 656 OFFCURVE",
"53 664 CURVE",
"46 660 OFFCURVE",
"41 653 OFFCURVE",
"41 643 CURVE SMOOTH",
"41 615 OFFCURVE",
"71 580 OFFCURVE",
"243 472 CURVE",
"254 600 LINE",
"225 587 OFFCURVE",
"213 564 OFFCURVE",
"213 516 CURVE SMOOTH",
"213 452 LINE SMOOTH"
);
}
);
width = 522;
}
);
leftKerningGroup = ra;
rightKerningGroup = ra;
script = siddham;
category = Letter;
subCategory = Other;
},
{
glyphname = "la-sidd.ini";
production = uni115A9.ini;
lastChange = "2019-04-05 14:14:17 +0000";
layers = (
{
anchors = (
{
name = _bottom;
position = "{514, 635}";
},
{
name = bottom;
position = "{514, 165}";
},
{
name = top;
position = "{491, 680}";
},
{
name = topleft;
position = "{342, 680}";
}
);
layerId = "56FF8C95-10BF-4749-91E0-C1649AF59D40";
paths = (
{
closed = 1;
nodes = (
"559 491 LINE SMOOTH",
"559 544 OFFCURVE",
"650 557 OFFCURVE",
"693 620 CURVE",
"603 683 LINE",
"578 661 OFFCURVE",
"545 650 OFFCURVE",
"513 650 CURVE SMOOTH",
"471 650 OFFCURVE",
"444 671 OFFCURVE",
"408 671 CURVE SMOOTH",
"384 671 OFFCURVE",
"366 660 OFFCURVE",
"355 642 CURVE",
"339 648 OFFCURVE",
"323 656 OFFCURVE",
"310 664 CURVE",
"303 660 OFFCURVE",
"298 653 OFFCURVE",
"298 643 CURVE SMOOTH",
"298 616 OFFCURVE",
"328 582 OFFCURVE",
"500 480 CURVE",
"510 613 LINE",
"481 600 OFFCURVE",
"469 577 OFFCURVE",
"469 529 CURVE SMOOTH",
"469 367 LINE",
"525 354 LINE",
"455 391 OFFCURVE",
"368 410 OFFCURVE",
"288 420 CURVE",
"341 374 LINE",
"354 392 OFFCURVE",
"359 408 OFFCURVE",
"359 427 CURVE SMOOTH",
"359 499 OFFCURVE",
"248 592 OFFCURVE",
"165 592 CURVE SMOOTH",
"103 592 OFFCURVE",
"50 550 OFFCURVE",
"50 465 CURVE SMOOTH",
"50 322 OFFCURVE",
"197 203 OFFCURVE",
"531 194 CURVE",
"469 234 LINE",
"469 182 LINE SMOOTH",
"469 164 OFFCURVE",
"526 135 OFFCURVE",
"549 135 CURVE SMOOTH",
"555 135 OFFCURVE",
"559 139 OFFCURVE",
"559 148 CURVE SMOOTH",
"559 269 LINE",
"200 275 OFFCURVE",
"140 311 OFFCURVE",
"140 411 CURVE SMOOTH",
"140 492 OFFCURVE",
"181 521 OFFCURVE",
"220 521 CURVE SMOOTH",
"246 521 OFFCURVE",
"269 507 OFFCURVE",
"269 480 CURVE SMOOTH",
"269 460 OFFCURVE",
"260 440 OFFCURVE",
"241 420 CURVE",
"337 350 LINE",
"397 347 OFFCURVE",
"470 342 OFFCURVE",
"534 330 CURVE",
"559 340 LINE"
);
}
);
width = 713;
}
);
leftKerningGroup = la;
rightKerningGroup = ca;
script = siddham;
category = Letter;
subCategory = Other;
},
{
glyphname = "va-sidd.ini";
production = uni115AA.ini;
lastChange = "2019-04-05 14:14:17 +0000";
layers = (
{
anchors = (
{
name = _bottom;
position = "{340, 635}";
},
{
name = bottom;
position = "{340, 121}";
},
{
name = top;
position = "{330, 680}";
},
{
name = topleft;
position = "{202, 680}";
}
);
layerId = "56FF8C95-10BF-4749-91E0-C1649AF59D40";
paths = (
{
closed = 1;
nodes = (
"309 174 LINE",
"181 235 OFFCURVE",
"130 267 OFFCURVE",
"130 311 CURVE SMOOTH",
"130 405 OFFCURVE",
"425 461 OFFCURVE",
"580 620 CURVE",
"490 683 LINE",
"456 658 OFFCURVE",
"411 645 OFFCURVE",
"367 645 CURVE SMOOTH",
"321 645 OFFCURVE",
"293 666 OFFCURVE",
"255 666 CURVE SMOOTH",
"231 666 OFFCURVE",
"213 655 OFFCURVE",
"202 637 CURVE",
"186 643 OFFCURVE",
"170 651 OFFCURVE",
"157 659 CURVE",
"150 655 OFFCURVE",
"145 648 OFFCURVE",
"145 638 CURVE SMOOTH",
"145 610 OFFCURVE",
"175 575 OFFCURVE",
"347 467 CURVE",
"351 574 LINE",
"208 486 OFFCURVE",
"40 440 OFFCURVE",
"40 360 CURVE SMOOTH",
"40 262 OFFCURVE",
"173 192 OFFCURVE",
"309 133 CURVE"
);
},
{
closed = 1;
nodes = (
"381 91 OFFCURVE",
"385 95 OFFCURVE",
"385 104 CURVE SMOOTH",
"385 513 LINE",
"295 513 LINE",
"295 138 LINE SMOOTH",
"295 120 OFFCURVE",
"352 91 OFFCURVE",
"375 91 CURVE SMOOTH"
);
}
);
width = 600;
}
);
leftKerningGroup = va;
rightKerningGroup = ca;
script = siddham;
category = Letter;
subCategory = Other;
},
